STARTFONT 2.1
COMMENT
COMMENT Converted from OpenType font "RobotoMono-SemiBold.ttf" by "otf2bdf 3.0".
COMMENT
FONT -FreeType-Roboto Mono SemiBold-Medium-R-Normal--19-140-100-100-P-96-ISO10646-1
SIZE 14 100 100
FONTBOUNDINGBOX 25 25 -10 -5
STARTPROPERTIES 19
FOUNDRY "FreeType"
FAMILY_NAME "Roboto Mono SemiBold"
WEIGHT_NAME "Medium"
SLANT "R"
SETWIDTH_NAME "Normal"
ADD_STYLE_NAME ""
PIXEL_SIZE 19
POINT_SIZE 140
RESOLUTION_X 100
RESOLUTION_Y 100
SPACING "P"
AVERAGE_WIDTH 96
CHARSET_REGISTRY "ISO10646"
CHARSET_ENCODING "1"
FONT_ASCENT 19
FONT_DESCENT 5
COPYRIGHT "Copyright 2015 The Roboto Mono Project Authors (https://github.com/googlefonts/robotomono)"
_OTF_FONTFILE "RobotoMono-SemiBold.ttf"
_OTF_PSNAME "RobotoMono-SemiBold"
ENDPROPERTIES
CHARS 876
STARTCHAR 000D
ENCODING 13
SWIDTH 565 0
DWIDTH 11 0
BBX 0 0 0 0
BITMAP
ENDCHAR
STARTCHAR 0020
ENCODING 32
SWIDTH 565 0
DWIDTH 11 0
BBX 0 0 0 0
BITMAP
ENDCHAR
STARTCHAR 0021
ENCODING 33
SWIDTH 565 0
DWIDTH 11 0
BBX 3 14 4 0
BITMAP
E0
E0
E0
E0
E0
60
60
60
60
00
00
40
E0
E0
ENDCHAR
STARTCHAR 0022
ENCODING 34
SWIDTH 565 0
DWIDTH 11 0
BBX 5 5 3 9
BITMAP
D8
D8
98
98
98
ENDCHAR
STARTCHAR 0023
ENCODING 35
SWIDTH 565 0
DWIDTH 11 0
BBX 11 14 0 0
BITMAP
0C80
0C80
0C80
0980
7FE0
7FE0
1900
1900
1300
FFC0
1300
3200
3200
3600
ENDCHAR
STARTCHAR 0024
ENCODING 36
SWIDTH 565 0
DWIDTH 11 0
BBX 9 18 1 -2
BITMAP
0C00
0C00
0E00
3F00
7380
6180
6180
7000
3C00
1F00
0780
0180
E180
E180
7F80
3F00
0C00
0C00
ENDCHAR
STARTCHAR 0025
ENCODING 37
SWIDTH 565 0
DWIDTH 11 0
BBX 11 14 0 0
BITMAP
3000
7800
CC80
CD80
CB00
7A00
0600
0400
0DC0
0BE0
1B60
1260
0360
01C0
ENDCHAR
STARTCHAR 0026
ENCODING 38
SWIDTH 565 0
DWIDTH 11 0
BBX 10 14 1 0
BITMAP
1C00
3E00
7600
6300
6600
7E00
3800
78C0
FCC0
CEC0
C780
C380
FF80
7DC0
ENDCHAR
STARTCHAR 0027
ENCODING 39
SWIDTH 565 0
DWIDTH 11 0
BBX 2 5 4 9
BITMAP
C0
C0
C0
C0
C0
ENDCHAR
STARTCHAR 0028
ENCODING 40
SWIDTH 565 0
DWIDTH 11 0
BBX 5 19 3 -4
BITMAP
08
18
30
30
60
60
60
C0
C0
C0
C0
C0
E0
60
60
60
30
18
08
ENDCHAR
STARTCHAR 0029
ENCODING 41
SWIDTH 565 0
DWIDTH 11 0
BBX 5 19 3 -4
BITMAP
80
C0
60
30
30
38
18
18
18
18
18
18
18
38
30
30
60
E0
C0
ENDCHAR
STARTCHAR 002A
ENCODING 42
SWIDTH 565 0
DWIDTH 11 0
BBX 10 10 1 4
BITMAP
0C00
0C00
0C00
4C80
FFC0
1E00
1E00
1300
7380
2100
ENDCHAR
STARTCHAR 002B
ENCODING 43
SWIDTH 565 0
DWIDTH 11 0
BBX 9 10 1 1
BITMAP
1C00
1C00
1C00
1C00
FF80
FF80
1C00
1C00
1C00
1C00
ENDCHAR
STARTCHAR 002C
ENCODING 44
SWIDTH 565 0
DWIDTH 11 0
BBX 3 6 3 -4
BITMAP
60
60
60
60
E0
40
ENDCHAR
STARTCHAR 002D
ENCODING 45
SWIDTH 565 0
DWIDTH 11 0
BBX 7 2 3 5
BITMAP
FE
FE
ENDCHAR
STARTCHAR 002E
ENCODING 46
SWIDTH 565 0
DWIDTH 11 0
BBX 3 3 4 0
BITMAP
E0
E0
E0
ENDCHAR
STARTCHAR 002F
ENCODING 47
SWIDTH 565 0
DWIDTH 11 0
BBX 8 15 2 -1
BITMAP
07
06
06
0C
0C
0C
18
18
38
30
30
70
60
60
E0
ENDCHAR
STARTCHAR 0030
ENCODING 48
SWIDTH 565 0
DWIDTH 11 0
BBX 9 14 1 0
BITMAP
1C00
3F00
7300
6380
E180
E380
E780
FD80
F180
E180
E180
6380
7F00
3E00
ENDCHAR
STARTCHAR 0031
ENCODING 49
SWIDTH 565 0
DWIDTH 11 0
BBX 6 14 2 0
BITMAP
04
1C
FC
FC
9C
1C
1C
1C
1C
1C
1C
1C
1C
1C
ENDCHAR
STARTCHAR 0032
ENCODING 50
SWIDTH 565 0
DWIDTH 11 0
BBX 9 14 1 0
BITMAP
1C00
7F00
E700
C380
C380
0300
0700
0E00
0C00
1800
3000
7000
FF80
FF80
ENDCHAR
STARTCHAR 0033
ENCODING 51
SWIDTH 565 0
DWIDTH 11 0
BBX 9 14 1 0
BITMAP
1C00
7F00
E300
E380
0380
0300
1F00
1F00
0380
0180
C180
E380
7F00
3E00
ENDCHAR
STARTCHAR 0034
ENCODING 52
SWIDTH 565 0
DWIDTH 11 0
BBX 9 14 1 0
BITMAP
0700
0700
0F00
1F00
1F00
3700
3700
6700
C700
FF80
FF80
0700
0700
0700
ENDCHAR
STARTCHAR 0035
ENCODING 53
SWIDTH 565 0
DWIDTH 11 0
BBX 9 14 1 0
BITMAP
7F80
7F80
7F80
6000
6000
7E00
7F00
6380
0180
0180
E180
E380
7F00
3E00
ENDCHAR
STARTCHAR 0036
ENCODING 54
SWIDTH 565 0
DWIDTH 11 0
BBX 9 14 1 0
BITMAP
0200
1E00
3C00
7000
6000
FE00
FF00
E380
C180
C180
E180
6380
7F00
3E00
ENDCHAR
STARTCHAR 0037
ENCODING 55
SWIDTH 565 0
DWIDTH 11 0
BBX 9 14 1 0
BITMAP
FF80
FF80
0180
0300
0300
0700
0600
0E00
0C00
1C00
1800
3800
3000
7000
ENDCHAR
STARTCHAR 0038
ENCODING 56
SWIDTH 565 0
DWIDTH 11 0
BBX 9 14 1 0
BITMAP
1C00
7F00
7380
E380
E380
6300
3F00
3F00
6380
E180
E180
E380
7F00
3E00
ENDCHAR
STARTCHAR 0039
ENCODING 57
SWIDTH 565 0
DWIDTH 11 0
BBX 9 14 1 0
BITMAP
1C00
7E00
7700
E380
C380
C180
E380
7780
7F80
1B80
0300
0700
3E00
3800
ENDCHAR
STARTCHAR 003A
ENCODING 58
SWIDTH 565 0
DWIDTH 11 0
BBX 3 11 4 0
BITMAP
E0
E0
E0
00
00
00
00
00
E0
E0
E0
ENDCHAR
STARTCHAR 003B
ENCODING 59
SWIDTH 565 0
DWIDTH 11 0
BBX 3 15 4 -4
BITMAP
E0
E0
E0
00
00
00
00
00
00
60
60
60
60
E0
40
ENDCHAR
STARTCHAR 003C
ENCODING 60
SWIDTH 565 0
DWIDTH 11 0
BBX 9 9 1 1
BITMAP
0180
0780
3F00
F800
F000
7E00
0F80
0380
0080
ENDCHAR
STARTCHAR 003D
ENCODING 61
SWIDTH 565 0
DWIDTH 11 0
BBX 8 6 2 3
BITMAP
FF
FF
00
00
FF
FF
ENDCHAR
STARTCHAR 003E
ENCODING 62
SWIDTH 565 0
DWIDTH 11 0
BBX 8 9 2 1
BITMAP
80
F0
7C
0F
0F
3E
F8
C0
80
ENDCHAR
STARTCHAR 003F
ENCODING 63
SWIDTH 565 0
DWIDTH 11 0
BBX 8 14 2 0
BITMAP
3C
FE
E7
C3
03
07
0E
1C
18
18
00
10
38
18
ENDCHAR
STARTCHAR 0040
ENCODING 64
SWIDTH 565 0
DWIDTH 11 0
BBX 11 13 0 0
BITMAP
1F80
30C0
2240
6F60
4960
5920
D960
D960
5B40
4DC0
6000
3100
1F00
ENDCHAR
STARTCHAR 0041
ENCODING 65
SWIDTH 565 0
DWIDTH 11 0
BBX 11 14 0 0
BITMAP
0600
0E00
0F00
0F00
1F00
1B80
1980
3980
31C0
3FC0
3FC0
70C0
60E0
E060
ENDCHAR
STARTCHAR 0042
ENCODING 66
SWIDTH 565 0
DWIDTH 11 0
BBX 10 14 1 0
BITMAP
F800
FF00
E780
E180
E1C0
E180
FF00
FF80
E180
E1C0
E1C0
E1C0
FF80
FF00
ENDCHAR
STARTCHAR 0043
ENCODING 67
SWIDTH 565 0
DWIDTH 11 0
BBX 10 14 1 0
BITMAP
1C00
3F00
7380
E180
C1C0
C000
C000
C000
C000
C000
E1C0
E180
7F80
3E00
ENDCHAR
STARTCHAR 0044
ENCODING 68
SWIDTH 565 0
DWIDTH 11 0
BBX 10 14 1 0
BITMAP
F000
FE00
EF00
E380
E180
E180
E1C0
E1C0
E1C0
E180
E380
E380
FF00
FC00
ENDCHAR
STARTCHAR 0045
ENCODING 69
SWIDTH 565 0
DWIDTH 11 0
BBX 9 14 1 0
BITMAP
FF80
FF80
E000
E000
E000
E000
FF00
FF00
E000
E000
E000
E000
FF80
FF80
ENDCHAR
STARTCHAR 0046
ENCODING 70
SWIDTH 565 0
DWIDTH 11 0
BBX 9 14 1 0
BITMAP
FF80
FF80
E000
E000
E000
E000
FF80
FF80
E000
E000
E000
E000
E000
E000
ENDCHAR
STARTCHAR 0047
ENCODING 71
SWIDTH 565 0
DWIDTH 11 0
BBX 9 14 1 0
BITMAP
1C00
3F00
7380
E180
C000
C000
C000
C780
C780
C180
E180
6180
7F80
3F00
ENDCHAR
STARTCHAR 0048
ENCODING 72
SWIDTH 565 0
DWIDTH 11 0
BBX 9 14 1 0
BITMAP
E180
E180
E180
E180
E180
E180
FF80
FF80
E180
E180
E180
E180
E180
E180
ENDCHAR
STARTCHAR 0049
ENCODING 73
SWIDTH 565 0
DWIDTH 11 0
BBX 8 14 2 0
BITMAP
FF
FF
38
38
38
38
38
38
38
38
38
38
FF
FF
ENDCHAR
STARTCHAR 004A
ENCODING 74
SWIDTH 565 0
DWIDTH 11 0
BBX 9 14 1 0
BITMAP
0180
0180
0180
0180
0180
0180
0180
0180
0180
0180
C180
E380
7F00
3E00
ENDCHAR
STARTCHAR 004B
ENCODING 75
SWIDTH 565 0
DWIDTH 11 0
BBX 11 14 1 0
BITMAP
E1C0
E1C0
E380
E700
EE00
EC00
FC00
FC00
FE00
E700
E300
E380
E1C0
E1E0
ENDCHAR
STARTCHAR 004C
ENCODING 76
SWIDTH 565 0
DWIDTH 11 0
BBX 9 14 1 0
BITMAP
E000
E000
E000
E000
E000
E000
E000
E000
E000
E000
E000
E000
FF80
FF80
ENDCHAR
STARTCHAR 004D
ENCODING 77
SWIDTH 565 0
DWIDTH 11 0
BBX 9 14 1 0
BITMAP
E380
E380
F380
F780
D780
DF80
DD80
DD80
CD80
C980
C180
C180
C180
C180
ENDCHAR
STARTCHAR 004E
ENCODING 78
SWIDTH 565 0
DWIDTH 11 0
BBX 9 14 1 0
BITMAP
E180
E180
F180
F180
F180
F980
F980
ED80
ED80
E780
E780
E380
E380
E380
ENDCHAR
STARTCHAR 004F
ENCODING 79
SWIDTH 565 0
DWIDTH 11 0
BBX 10 14 1 0
BITMAP
1C00
3F00
7780
E180
C180
C1C0
C1C0
C1C0
C1C0
C180
E180
E380
7F00
3E00
ENDCHAR
STARTCHAR 0050
ENCODING 80
SWIDTH 565 0
DWIDTH 11 0
BBX 10 14 1 0
BITMAP
F800
FF00
E380
E1C0
E1C0
E1C0
E180
FF80
FE00
E000
E000
E000
E000
E000
ENDCHAR
STARTCHAR 0051
ENCODING 81
SWIDTH 565 0
DWIDTH 11 0
BBX 10 16 1 -2
BITMAP
1C00
3F00
7380
E180
C180
C1C0
C1C0
C1C0
C1C0
C1C0
E180
E380
7F00
3F80
01C0
00C0
ENDCHAR
STARTCHAR 0052
ENCODING 82
SWIDTH 565 0
DWIDTH 11 0
BBX 10 14 1 0
BITMAP
F800
FF00
E780
E180
E1C0
E180
E380
FF00
FE00
E700
E300
E380
E180
E1C0
ENDCHAR
STARTCHAR 0053
ENCODING 83
SWIDTH 565 0
DWIDTH 11 0
BBX 10 14 1 0
BITMAP
1C00
7F00
7380
E1C0
E000
7000
7C00
1F00
0380
01C0
C1C0
E1C0
7F80
3F00
ENDCHAR
STARTCHAR 0054
ENCODING 84
SWIDTH 565 0
DWIDTH 11 0
BBX 11 14 0 0
BITMAP
FFE0
FFE0
0E00
0E00
0E00
0E00
0E00
0E00
0E00
0E00
0E00
0E00
0E00
0E00
ENDCHAR
STARTCHAR 0055
ENCODING 85
SWIDTH 565 0
DWIDTH 11 0
BBX 9 14 1 0
BITMAP
E180
E180
E180
E180
E180
E180
E180
E180
E180
E180
E180
6380
7F00
3E00
ENDCHAR
STARTCHAR 0056
ENCODING 86
SWIDTH 565 0
DWIDTH 11 0
BBX 11 14 0 0
BITMAP
E0E0
60E0
70C0
70C0
31C0
3180
3980
1B80
1B80
1B00
1F00
0F00
0E00
0E00
ENDCHAR
STARTCHAR 0057
ENCODING 87
SWIDTH 565 0
DWIDTH 11 0
BBX 11 14 0 0
BITMAP
E660
E660
6660
6E60
6EE0
6EC0
6FC0
6BC0
6BC0
3BC0
39C0
39C0
39C0
3180
ENDCHAR
STARTCHAR 0058
ENCODING 88
SWIDTH 565 0
DWIDTH 11 0
BBX 11 14 0 0
BITMAP
E0E0
70E0
31C0
3980
1B80
1F00
0F00
0E00
0F00
1F80
3980
39C0
70C0
F0E0
ENDCHAR
STARTCHAR 0059
ENCODING 89
SWIDTH 565 0
DWIDTH 11 0
BBX 11 14 0 0
BITMAP
E060
60E0
70C0
31C0
3980
1B80
1F00
0F00
0E00
0600
0600
0600
0600
0600
ENDCHAR
STARTCHAR 005A
ENCODING 90
SWIDTH 565 0
DWIDTH 11 0
BBX 10 14 1 0
BITMAP
FF80
FF80
0380
0300
0700
0E00
0C00
1C00
3800
3000
7000
6000
FFC0
FFC0
ENDCHAR
STARTCHAR 005B
ENCODING 91
SWIDTH 565 0
DWIDTH 11 0
BBX 4 19 4 -3
BITMAP
F0
F0
C0
C0
C0
C0
C0
C0
C0
C0
C0
C0
C0
C0
C0
C0
C0
F0
F0
ENDCHAR
STARTCHAR 005C
ENCODING 92
SWIDTH 565 0
DWIDTH 11 0
BBX 8 15 2 -1
BITMAP
C0
60
60
70
30
30
38
18
18
1C
0C
0C
0E
06
07
ENDCHAR
STARTCHAR 005D
ENCODING 93
SWIDTH 565 0
DWIDTH 11 0
BBX 4 19 4 -3
BITMAP
F0
F0
70
70
70
70
70
70
70
70
70
70
70
70
70
70
70
F0
F0
ENDCHAR
STARTCHAR 005E
ENCODING 94
SWIDTH 565 0
DWIDTH 11 0
BBX 8 8 2 6
BITMAP
18
18
3C
3C
6C
66
C6
C3
ENDCHAR
STARTCHAR 005F
ENCODING 95
SWIDTH 565 0
DWIDTH 11 0
BBX 9 2 1 -2
BITMAP
FF80
FF80
ENDCHAR
STARTCHAR 0060
ENCODING 96
SWIDTH 565 0
DWIDTH 11 0
BBX 4 3 4 11
BITMAP
E0
60
30
ENDCHAR
STARTCHAR 0061
ENCODING 97
SWIDTH 565 0
DWIDTH 11 0
BBX 9 10 1 0
BITMAP
3E00
7F00
E380
0380
3F80
7380
E380
E380
FF80
7D80
ENDCHAR
STARTCHAR 0062
ENCODING 98
SWIDTH 565 0
DWIDTH 11 0
BBX 9 14 1 0
BITMAP
E000
E000
E000
E000
FF00
FF00
E380
E180
E180
E180
E180
E380
FF00
FF00
ENDCHAR
STARTCHAR 0063
ENCODING 99
SWIDTH 565 0
DWIDTH 11 0
BBX 9 10 1 0
BITMAP
3E00
7F00
6380
E180
E000
E000
E000
6380
7F00
3E00
ENDCHAR
STARTCHAR 0064
ENCODING 100
SWIDTH 565 0
DWIDTH 11 0
BBX 9 14 1 0
BITMAP
0180
0180
0180
0180
3D80
7F80
E380
E180
C180
C180
E180
E380
7F80
3D80
ENDCHAR
STARTCHAR 0065
ENCODING 101
SWIDTH 565 0
DWIDTH 11 0
BBX 9 10 1 0
BITMAP
3E00
7F80
6180
E180
FF80
FF80
E000
6100
7F80
3F00
ENDCHAR
STARTCHAR 0066
ENCODING 102
SWIDTH 565 0
DWIDTH 11 0
BBX 10 15 1 0
BITMAP
0380
0FC0
1C40
1800
1800
FF80
FF80
1800
1800
1800
1800
1800
1800
1800
1800
ENDCHAR
STARTCHAR 0067
ENCODING 103
SWIDTH 565 0
DWIDTH 11 0
BBX 9 14 1 -4
BITMAP
3D80
7F80
E380
E180
E180
E180
E180
6380
7F80
3D80
0180
4380
7F00
3E00
ENDCHAR
STARTCHAR 0068
ENCODING 104
SWIDTH 565 0
DWIDTH 11 0
BBX 9 14 1 0
BITMAP
E000
E000
E000
E000
EF00
FF80
E380
E180
E180
E180
E180
E180
E180
E180
ENDCHAR
STARTCHAR 0069
ENCODING 105
SWIDTH 565 0
DWIDTH 11 0
BBX 8 14 2 0
BITMAP
18
18
10
00
F8
F8
18
18
18
18
18
18
FF
FF
ENDCHAR
STARTCHAR 006A
ENCODING 106
SWIDTH 565 0
DWIDTH 11 0
BBX 6 18 2 -4
BITMAP
0C
1C
08
00
7C
7C
0C
0C
0C
0C
0C
0C
0C
0C
0C
1C
F8
F0
ENDCHAR
STARTCHAR 006B
ENCODING 107
SWIDTH 565 0
DWIDTH 11 0
BBX 10 14 1 0
BITMAP
E000
E000
E000
E000
E380
E700
EE00
FC00
FC00
FE00
E600
E700
E380
E1C0
ENDCHAR
STARTCHAR 006C
ENCODING 108
SWIDTH 565 0
DWIDTH 11 0
BBX 8 14 2 0
BITMAP
F8
F8
18
18
18
18
18
18
18
18
18
18
FF
FF
ENDCHAR
STARTCHAR 006D
ENCODING 109
SWIDTH 565 0
DWIDTH 11 0
BBX 10 10 1 0
BITMAP
FB80
FF80
CDC0
CDC0
CDC0
CDC0
CDC0
CDC0
CDC0
CDC0
ENDCHAR
STARTCHAR 006E
ENCODING 110
SWIDTH 565 0
DWIDTH 11 0
BBX 9 10 1 0
BITMAP
EF00
FF80
E180
E180
E180
E180
E180
E180
E180
E180
ENDCHAR
STARTCHAR 006F
ENCODING 111
SWIDTH 565 0
DWIDTH 11 0
BBX 9 10 1 0
BITMAP
3E00
7F00
E380
E180
C180
C180
E180
E380
7F00
3E00
ENDCHAR
STARTCHAR 0070
ENCODING 112
SWIDTH 565 0
DWIDTH 11 0
BBX 9 14 1 -4
BITMAP
FF00
FF00
E380
E180
E180
E180
E180
E380
FF00
FE00
E000
E000
E000
E000
ENDCHAR
STARTCHAR 0071
ENCODING 113
SWIDTH 565 0
DWIDTH 11 0
BBX 9 14 1 -4
BITMAP
3D80
7F80
E380
E180
E180
E180
E180
E380
7F80
3D80
0180
0180
0180
0180
ENDCHAR
STARTCHAR 0072
ENCODING 114
SWIDTH 565 0
DWIDTH 11 0
BBX 7 10 3 0
BITMAP
DE
FE
E0
C0
C0
C0
C0
C0
C0
C0
ENDCHAR
STARTCHAR 0073
ENCODING 115
SWIDTH 565 0
DWIDTH 11 0
BBX 9 10 1 0
BITMAP
3F00
7F80
6180
6000
7E00
1F80
0380
E180
7F80
3F00
ENDCHAR
STARTCHAR 0074
ENCODING 116
SWIDTH 565 0
DWIDTH 11 0
BBX 9 12 1 0
BITMAP
1800
1800
FF80
FF80
1800
1800
1800
1800
1800
1800
1F80
0F80
ENDCHAR
STARTCHAR 0075
ENCODING 117
SWIDTH 565 0
DWIDTH 11 0
BBX 9 10 1 0
BITMAP
E180
E180
E180
E180
E180
E180
E180
6380
7F80
3D80
ENDCHAR
STARTCHAR 0076
ENCODING 118
SWIDTH 565 0
DWIDTH 11 0
BBX 10 10 1 0
BITMAP
C1C0
E180
6380
6300
7300
3700
3600
1E00
1C00
1C00
ENDCHAR
STARTCHAR 0077
ENCODING 119
SWIDTH 565 0
DWIDTH 11 0
BBX 11 10 0 0
BITMAP
E660
6660
6EE0
6EC0
6AC0
6BC0
2BC0
3BC0
3980
3180
ENDCHAR
STARTCHAR 0078
ENCODING 120
SWIDTH 565 0
DWIDTH 11 0
BBX 10 10 1 0
BITMAP
E1C0
7380
3700
3E00
1E00
1E00
3E00
3300
7380
E1C0
ENDCHAR
STARTCHAR 0079
ENCODING 121
SWIDTH 565 0
DWIDTH 11 0
BBX 10 14 1 -4
BITMAP
C1C0
E1C0
6180
7380
3300
3700
3E00
1E00
1E00
0C00
1C00
1800
7800
7000
ENDCHAR
STARTCHAR 007A
ENCODING 122
SWIDTH 565 0
DWIDTH 11 0
BBX 9 10 1 0
BITMAP
FF80
FF80
0700
0600
0E00
1C00
3800
7000
FF80
FF80
ENDCHAR
STARTCHAR 007B
ENCODING 123
SWIDTH 565 0
DWIDTH 11 0
BBX 6 18 3 -3
BITMAP
0C
1C
18
38
30
30
30
30
F0
E0
70
30
30
30
30
38
18
0C
ENDCHAR
STARTCHAR 007C
ENCODING 124
SWIDTH 565 0
DWIDTH 11 0
BBX 2 18 5 -4
BITMAP
C0
C0
C0
C0
C0
C0
C0
C0
C0
C0
C0
C0
C0
C0
C0
C0
C0
C0
ENDCHAR
STARTCHAR 007D
ENCODING 125
SWIDTH 565 0
DWIDTH 11 0
BBX 6 18 3 -3
BITMAP
C0
E0
70
30
30
30
30
30
1C
1C
38
30
30
30
30
30
60
E0
ENDCHAR
STARTCHAR 007E
ENCODING 126
SWIDTH 565 0
DWIDTH 11 0
BBX 11 4 0 4
BITMAP
3000
7C60
EFC0
C7C0
ENDCHAR
STARTCHAR 00A0
ENCODING 160
SWIDTH 565 0
DWIDTH 11 0
BBX 0 0 0 0
BITMAP
ENDCHAR
STARTCHAR 00A1
ENCODING 161
SWIDTH 565 0
DWIDTH 11 0
BBX 2 13 5 -3
BITMAP
C0
C0
00
00
00
C0
C0
C0
C0
C0
C0
C0
C0
ENDCHAR
STARTCHAR 00A2
ENCODING 162
SWIDTH 565 0
DWIDTH 11 0
BBX 9 14 1 -2
BITMAP
0C00
0C00
3F00
7F80
6180
E180
E000
E000
E000
6180
7F80
3F00
0C00
0C00
ENDCHAR
STARTCHAR 00A3
ENCODING 163
SWIDTH 565 0
DWIDTH 11 0
BBX 10 14 1 0
BITMAP
0E00
3F80
3980
31C0
7000
7000
3000
FE00
3000
3000
3000
7000
FFC0
FFC0
ENDCHAR
STARTCHAR 00A4
ENCODING 164
SWIDTH 565 0
DWIDTH 11 0
BBX 10 10 1 0
BITMAP
4C80
FFC0
6380
C180
C080
C080
C180
6180
FFC0
FE80
ENDCHAR
STARTCHAR 00A5
ENCODING 165
SWIDTH 565 0
DWIDTH 11 0
BBX 11 14 0 0
BITMAP
E060
60E0
70C0
31C0
3980
1B80
0F00
7FC0
7FC0
0600
7FC0
0600
0600
0600
ENDCHAR
STARTCHAR 00A6
ENCODING 166
SWIDTH 565 0
DWIDTH 11 0
BBX 2 16 5 -2
BITMAP
C0
C0
C0
C0
C0
C0
C0
C0
00
C0
C0
C0
C0
C0
C0
C0
ENDCHAR
STARTCHAR 00A7
ENCODING 167
SWIDTH 565 0
DWIDTH 11 0
BBX 10 18 1 -4
BITMAP
1E00
7F80
E380
E1C0
E000
7000
7F00
EF80
C3C0
C1C0
F1C0
7F80
1F80
0380
C1C0
E180
FF80
7F00
ENDCHAR
STARTCHAR 00A8
ENCODING 168
SWIDTH 565 0
DWIDTH 11 0
BBX 6 2 3 12
BITMAP
CC
CC
ENDCHAR
STARTCHAR 00A9
ENCODING 169
SWIDTH 565 0
DWIDTH 11 0
BBX 10 10 1 0
BITMAP
3E00
4100
9C80
B240
A040
A040
B240
9C80
4100
3E00
ENDCHAR
STARTCHAR 00AA
ENCODING 170
SWIDTH 565 0
DWIDTH 11 0
BBX 6 8 3 6
BITMAP
30
F8
C8
7C
CC
8C
FC
60
ENDCHAR
STARTCHAR 00AB
ENCODING 171
SWIDTH 565 0
DWIDTH 11 0
BBX 8 8 2 1
BITMAP
33
66
66
CC
CC
44
66
33
ENDCHAR
STARTCHAR 00AC
ENCODING 172
SWIDTH 565 0
DWIDTH 11 0
BBX 7 4 2 3
BITMAP
FE
02
02
02
ENDCHAR
STARTCHAR 00AD
ENCODING 173
SWIDTH 565 0
DWIDTH 11 0
BBX 7 2 3 5
BITMAP
FE
FE
ENDCHAR
STARTCHAR 00AE
ENCODING 174
SWIDTH 565 0
DWIDTH 11 0
BBX 10 10 1 0
BITMAP
3E00
4100
9C80
9240
9640
9C40
9440
9280
4100
3E00
ENDCHAR
STARTCHAR 00AF
ENCODING 175
SWIDTH 565 0
DWIDTH 11 0
BBX 6 2 3 12
BITMAP
FC
FC
ENDCHAR
STARTCHAR 00B0
ENCODING 176
SWIDTH 565 0
DWIDTH 11 0
BBX 5 5 3 9
BITMAP
30
78
C8
C8
78
ENDCHAR
STARTCHAR 00B1
ENCODING 177
SWIDTH 565 0
DWIDTH 11 0
BBX 9 12 1 0
BITMAP
0C00
0C00
0C00
FC00
FF80
0F80
0C00
0C00
0C00
0000
7F80
7F80
ENDCHAR
STARTCHAR 00B2
ENCODING 178
SWIDTH 565 0
DWIDTH 11 0
BBX 6 8 3 6
BITMAP
30
F8
C8
18
38
60
FC
FC
ENDCHAR
STARTCHAR 00B3
ENCODING 179
SWIDTH 565 0
DWIDTH 11 0
BBX 6 8 3 6
BITMAP
30
F8
0C
38
38
0C
FC
78
ENDCHAR
STARTCHAR 00B4
ENCODING 180
SWIDTH 565 0
DWIDTH 11 0
BBX 4 3 4 11
BITMAP
70
60
C0
ENDCHAR
STARTCHAR 00B5
ENCODING 181
SWIDTH 565 0
DWIDTH 11 0
BBX 8 14 2 -4
BITMAP
C3
C3
C3
C3
C3
C3
C3
C3
FF
FF
C0
C0
C0
C0
ENDCHAR
STARTCHAR 00B6
ENCODING 182
SWIDTH 565 0
DWIDTH 11 0
BBX 7 14 2 0
BITMAP
0E
7E
7E
FE
FE
FE
FE
7E
3E
06
06
06
06
06
ENDCHAR
STARTCHAR 00B7
ENCODING 183
SWIDTH 565 0
DWIDTH 11 0
BBX 2 3 5 5
BITMAP
C0
C0
C0
ENDCHAR
STARTCHAR 00B8
ENCODING 184
SWIDTH 565 0
DWIDTH 11 0
BBX 3 4 4 -4
BITMAP
C0
60
60
E0
ENDCHAR
STARTCHAR 00B9
ENCODING 185
SWIDTH 565 0
DWIDTH 11 0
BBX 3 7 4 6
BITMAP
E0
E0
60
60
60
60
60
ENDCHAR
STARTCHAR 00BA
ENCODING 186
SWIDTH 565 0
DWIDTH 11 0
BBX 7 8 2 6
BITMAP
38
7C
46
C6
C6
46
7C
18
ENDCHAR
STARTCHAR 00BB
ENCODING 187
SWIDTH 565 0
DWIDTH 11 0
BBX 7 8 3 1
BITMAP
90
D8
6C
24
36
6C
D8
90
ENDCHAR
STARTCHAR 00BC
ENCODING 188
SWIDTH 565 0
DWIDTH 11 0
BBX 10 14 1 0
BITMAP
2000
E000
E200
6300
6600
6400
6C00
0980
1980
1380
3780
2FC0
07C0
0180
ENDCHAR
STARTCHAR 00BD
ENCODING 189
SWIDTH 565 0
DWIDTH 11 0
BBX 11 14 0 0
BITMAP
1000
E000
A200
2300
2200
2600
2400
0DC0
0BE0
1A60
3060
10C0
0300
03E0
ENDCHAR
STARTCHAR 00BE
ENCODING 190
SWIDTH 565 0
DWIDTH 11 0
BBX 11 14 0 0
BITMAP
3000
7800
8880
3880
0980
CD00
7B00
0640
04C0
0DC0
0940
1BE0
03E0
0040
ENDCHAR
STARTCHAR 00BF
ENCODING 191
SWIDTH 565 0
DWIDTH 11 0
BBX 8 14 2 -4
BITMAP
18
18
00
00
18
18
38
70
E0
C0
C3
E7
7E
18
ENDCHAR
STARTCHAR 00C0
ENCODING 192
SWIDTH 565 0
DWIDTH 11 0
BBX 11 17 0 0
BITMAP
1C00
0C00
0600
0600
0E00
0F00
0F00
1F00
1B80
1980
3980
31C0
3FC0
3FC0
70C0
60E0
E060
ENDCHAR
STARTCHAR 00C1
ENCODING 193
SWIDTH 565 0
DWIDTH 11 0
BBX 11 17 0 0
BITMAP
0380
0300
0600
0600
0E00
0F00
0F00
1F00
1B80
1980
3980
31C0
3FC0
3FC0
70C0
60E0
E060
ENDCHAR
STARTCHAR 00C2
ENCODING 194
SWIDTH 565 0
DWIDTH 11 0
BBX 11 17 0 0
BITMAP
0E00
1B00
2080
0600
0E00
0F00
0F00
1F00
1B80
1980
3980
31C0
3FC0
3FC0
70C0
60E0
E060
ENDCHAR
STARTCHAR 00C3
ENCODING 195
SWIDTH 565 0
DWIDTH 11 0
BBX 11 17 0 0
BITMAP
1D80
3700
0000
0600
0E00
0F00
0F00
1F00
1B80
1980
3980
31C0
3FC0
3FC0
70C0
60E0
E060
ENDCHAR
STARTCHAR 00C4
ENCODING 196
SWIDTH 565 0
DWIDTH 11 0
BBX 11 17 0 0
BITMAP
1980
3980
0000
0600
0E00
0F00
0F00
1F00
1B80
1980
3980
31C0
3FC0
3FC0
70C0
60E0
E060
ENDCHAR
STARTCHAR 00C5
ENCODING 197
SWIDTH 565 0
DWIDTH 11 0
BBX 11 17 0 0
BITMAP
0E00
0900
0E00
0600
0E00
0F00
0F00
1F00
1B80
1980
3980
31C0
3FC0
3FC0
70C0
60E0
E060
ENDCHAR
STARTCHAR 00C6
ENCODING 198
SWIDTH 565 0
DWIDTH 11 0
BBX 11 14 0 0
BITMAP
07E0
07E0
0F00
0F00
0F00
1B00
1BC0
1BC0
3300
3F00
3F00
7300
63E0
E3E0
ENDCHAR
STARTCHAR 00C7
ENCODING 199
SWIDTH 565 0
DWIDTH 11 0
BBX 10 18 1 -4
BITMAP
1C00
3F00
7380
E180
C1C0
C000
C000
C000
C000
C000
E1C0
E180
7F80
3E00
1800
0C00
0C00
1C00
ENDCHAR
STARTCHAR 00C8
ENCODING 200
SWIDTH 565 0
DWIDTH 11 0
BBX 9 17 1 0
BITMAP
3800
1800
0C00
FF80
FF80
E000
E000
E000
E000
FF00
FF00
E000
E000
E000
E000
FF80
FF80
ENDCHAR
STARTCHAR 00C9
ENCODING 201
SWIDTH 565 0
DWIDTH 11 0
BBX 9 17 1 0
BITMAP
0700
0600
0C00
FF80
FF80
E000
E000
E000
E000
FF00
FF00
E000
E000
E000
E000
FF80
FF80
ENDCHAR
STARTCHAR 00CA
ENCODING 202
SWIDTH 565 0
DWIDTH 11 0
BBX 9 17 1 0
BITMAP
1C00
3600
4100
FF80
FF80
E000
E000
E000
E000
FF00
FF00
E000
E000
E000
E000
FF80
FF80
ENDCHAR
STARTCHAR 00CB
ENCODING 203
SWIDTH 565 0
DWIDTH 11 0
BBX 9 17 1 0
BITMAP
3300
7300
0000
FF80
FF80
E000
E000
E000
E000
FF00
FF00
E000
E000
E000
E000
FF80
FF80
ENDCHAR
STARTCHAR 00CC
ENCODING 204
SWIDTH 565 0
DWIDTH 11 0
BBX 8 17 2 0
BITMAP
E0
60
30
FF
FF
38
38
38
38
38
38
38
38
38
38
FF
FF
ENDCHAR
STARTCHAR 00CD
ENCODING 205
SWIDTH 565 0
DWIDTH 11 0
BBX 8 17 2 0
BITMAP
0E
0C
18
FF
FF
38
38
38
38
38
38
38
38
38
38
FF
FF
ENDCHAR
STARTCHAR 00CE
ENCODING 206
SWIDTH 565 0
DWIDTH 11 0
BBX 8 17 2 0
BITMAP
38
6C
82
FF
FF
38
38
38
38
38
38
38
38
38
38
FF
FF
ENDCHAR
STARTCHAR 00CF
ENCODING 207
SWIDTH 565 0
DWIDTH 11 0
BBX 8 17 2 0
BITMAP
66
E6
00
FF
FF
38
38
38
38
38
38
38
38
38
38
FF
FF
ENDCHAR
STARTCHAR 00D0
ENCODING 208
SWIDTH 565 0
DWIDTH 11 0
BBX 11 14 0 0
BITMAP
7800
7F00
7780
71C0
70C0
70E0
FCE0
FCE0
70E0
70E0
70C0
71C0
7F80
7E00
ENDCHAR
STARTCHAR 00D1
ENCODING 209
SWIDTH 565 0
DWIDTH 11 0
BBX 9 17 1 0
BITMAP
3B00
6E00
0000
E180
E180
F180
F180
F180
F980
F980
ED80
ED80
E780
E780
E380
E380
E380
ENDCHAR
STARTCHAR 00D2
ENCODING 210
SWIDTH 565 0
DWIDTH 11 0
BBX 10 17 1 0
BITMAP
3800
1800
0C00
1C00
3F00
7780
E180
C180
C1C0
C1C0
C1C0
C1C0
C180
E180
E380
7F00
3E00
ENDCHAR
STARTCHAR 00D3
ENCODING 211
SWIDTH 565 0
DWIDTH 11 0
BBX 10 17 1 0
BITMAP
0700
0600
0C00
1C00
3F00
7780
E180
C180
C1C0
C1C0
C1C0
C1C0
C180
E180
E380
7F00
3E00
ENDCHAR
STARTCHAR 00D4
ENCODING 212
SWIDTH 565 0
DWIDTH 11 0
BBX 10 17 1 0
BITMAP
1C00
3600
4100
1C00
3F00
7780
E180
C180
C1C0
C1C0
C1C0
C1C0
C180
E180
E380
7F00
3E00
ENDCHAR
STARTCHAR 00D5
ENCODING 213
SWIDTH 565 0
DWIDTH 11 0
BBX 10 17 1 0
BITMAP
3B00
6E00
0000
1C00
3F00
7780
E180
C180
C1C0
C1C0
C1C0
C1C0
C180
E180
E380
7F00
3E00
ENDCHAR
STARTCHAR 00D6
ENCODING 214
SWIDTH 565 0
DWIDTH 11 0
BBX 10 17 1 0
BITMAP
3300
7300
0000
1C00
3F00
7780
E180
C180
C1C0
C1C0
C1C0
C1C0
C180
E180
E380
7F00
3E00
ENDCHAR
STARTCHAR 00D7
ENCODING 215
SWIDTH 565 0
DWIDTH 11 0
BBX 8 9 2 2
BITMAP
82
C3
E6
7C
38
3C
6E
C7
C2
ENDCHAR
STARTCHAR 00D8
ENCODING 216
SWIDTH 565 0
DWIDTH 11 0
BBX 11 15 0 -1
BITMAP
0E60
1FC0
39C0
71C0
63C0
62E0
66E0
64E0
6CE0
68E0
78C0
71C0
3F80
7F00
C000
ENDCHAR
STARTCHAR 00D9
ENCODING 217
SWIDTH 565 0
DWIDTH 11 0
BBX 9 17 1 0
BITMAP
3800
1800
0C00
E180
E180
E180
E180
E180
E180
E180
E180
E180
E180
E180
6380
7F00
3E00
ENDCHAR
STARTCHAR 00DA
ENCODING 218
SWIDTH 565 0
DWIDTH 11 0
BBX 9 17 1 0
BITMAP
0700
0600
0C00
E180
E180
E180
E180
E180
E180
E180
E180
E180
E180
E180
6380
7F00
3E00
ENDCHAR
STARTCHAR 00DB
ENCODING 219
SWIDTH 565 0
DWIDTH 11 0
BBX 9 17 1 0
BITMAP
1C00
3600
4100
E180
E180
E180
E180
E180
E180
E180
E180
E180
E180
E180
6380
7F00
3E00
ENDCHAR
STARTCHAR 00DC
ENCODING 220
SWIDTH 565 0
DWIDTH 11 0
BBX 9 17 1 0
BITMAP
3300
7300
0000
E180
E180
E180
E180
E180
E180
E180
E180
E180
E180
E180
6380
7F00
3E00
ENDCHAR
STARTCHAR 00DD
ENCODING 221
SWIDTH 565 0
DWIDTH 11 0
BBX 11 17 0 0
BITMAP
0380
0300
0600
E060
60E0
70C0
31C0
3980
1B80
1F00
0F00
0E00
0600
0600
0600
0600
0600
ENDCHAR
STARTCHAR 00DE
ENCODING 222
SWIDTH 565 0
DWIDTH 11 0
BBX 10 14 1 0
BITMAP
E000
E000
E000
FE00
FF80
E180
E1C0
E1C0
E1C0
FF80
FF00
E000
E000
E000
ENDCHAR
STARTCHAR 00DF
ENCODING 223
SWIDTH 565 0
DWIDTH 11 0
BBX 9 14 2 0
BITMAP
7C00
FE00
C600
C600
CE00
CC00
CC00
CE00
C700
C300
C380
C380
DF00
DF00
ENDCHAR
STARTCHAR 00E0
ENCODING 224
SWIDTH 565 0
DWIDTH 11 0
BBX 9 14 1 0
BITMAP
7000
3000
1800
0000
3E00
7F00
E380
0380
3F80
7380
E380
E380
FF80
7D80
ENDCHAR
STARTCHAR 00E1
ENCODING 225
SWIDTH 565 0
DWIDTH 11 0
BBX 9 14 1 0
BITMAP
0700
0600
0C00
0000
3E00
7F00
E380
0380
3F80
7380
E380
E380
FF80
7D80
ENDCHAR
STARTCHAR 00E2
ENCODING 226
SWIDTH 565 0
DWIDTH 11 0
BBX 9 14 1 0
BITMAP
1C00
3600
4100
0000
3E00
7F00
E380
0380
3F80
7380
E380
E380
FF80
7D80
ENDCHAR
STARTCHAR 00E3
ENCODING 227
SWIDTH 565 0
DWIDTH 11 0
BBX 9 14 1 0
BITMAP
3B00
6E00
0000
0000
3E00
7F00
E380
0380
3F80
7380
E380
E380
FF80
7D80
ENDCHAR
STARTCHAR 00E4
ENCODING 228
SWIDTH 565 0
DWIDTH 11 0
BBX 9 14 1 0
BITMAP
3300
7300
0000
0000
3E00
7F00
E380
0380
3F80
7380
E380
E380
FF80
7D80
ENDCHAR
STARTCHAR 00E5
ENCODING 229
SWIDTH 565 0
DWIDTH 11 0
BBX 9 15 1 0
BITMAP
1C00
1200
1C00
0000
0000
3E00
7F00
E380
0380
3F80
7380
E380
E380
FF80
7D80
ENDCHAR
STARTCHAR 00E6
ENCODING 230
SWIDTH 565 0
DWIDTH 11 0
BBX 11 10 0 0
BITMAP
3FC0
7FE0
6660
0660
3FE0
7FE0
E600
E600
7FE0
7BE0
ENDCHAR
STARTCHAR 00E7
ENCODING 231
SWIDTH 565 0
DWIDTH 11 0
BBX 9 14 1 -4
BITMAP
3E00
7F00
6380
E180
E000
E000
E000
6380
7F00
3E00
0C00
0600
0600
0E00
ENDCHAR
STARTCHAR 00E8
ENCODING 232
SWIDTH 565 0
DWIDTH 11 0
BBX 9 14 1 0
BITMAP
7000
3000
1800
0000
3E00
7F80
6180
E180
FF80
FF80
E000
6100
7F80
3F00
ENDCHAR
STARTCHAR 00E9
ENCODING 233
SWIDTH 565 0
DWIDTH 11 0
BBX 9 14 1 0
BITMAP
0700
0600
0C00
0000
3E00
7F80
6180
E180
FF80
FF80
E000
6100
7F80
3F00
ENDCHAR
STARTCHAR 00EA
ENCODING 234
SWIDTH 565 0
DWIDTH 11 0
BBX 9 14 1 0
BITMAP
1C00
3600
4100
0000
3E00
7F80
6180
E180
FF80
FF80
E000
6100
7F80
3F00
ENDCHAR
STARTCHAR 00EB
ENCODING 235
SWIDTH 565 0
DWIDTH 11 0
BBX 9 14 1 0
BITMAP
3300
7300
0000
0000
3E00
7F80
6180
E180
FF80
FF80
E000
6100
7F80
3F00
ENDCHAR
STARTCHAR 00EC
ENCODING 236
SWIDTH 565 0
DWIDTH 11 0
BBX 8 14 2 0
BITMAP
70
30
18
00
F8
F8
18
18
18
18
18
18
FF
FF
ENDCHAR
STARTCHAR 00ED
ENCODING 237
SWIDTH 565 0
DWIDTH 11 0
BBX 8 14 2 0
BITMAP
07
06
0C
00
F8
F8
18
18
18
18
18
18
FF
FF
ENDCHAR
STARTCHAR 00EE
ENCODING 238
SWIDTH 565 0
DWIDTH 11 0
BBX 8 14 2 0
BITMAP
1C
36
41
00
F8
F8
18
18
18
18
18
18
FF
FF
ENDCHAR
STARTCHAR 00EF
ENCODING 239
SWIDTH 565 0
DWIDTH 11 0
BBX 8 14 2 0
BITMAP
66
E6
00
00
F8
F8
18
18
18
18
18
18
FF
FF
ENDCHAR
STARTCHAR 00F0
ENCODING 240
SWIDTH 565 0
DWIDTH 11 0
BBX 10 14 0 0
BITMAP
0C40
0FC0
0700
1F80
11C0
1FC0
7FC0
71C0
60C0
E0C0
E1C0
61C0
7F80
1F00
ENDCHAR
STARTCHAR 00F1
ENCODING 241
SWIDTH 565 0
DWIDTH 11 0
BBX 9 14 1 0
BITMAP
3B00
6E00
0000
0000
EF00
FF80
E180
E180
E180
E180
E180
E180
E180
E180
ENDCHAR
STARTCHAR 00F2
ENCODING 242
SWIDTH 565 0
DWIDTH 11 0
BBX 9 14 1 0
BITMAP
3800
1800
0C00
0000
3E00
7F00
E380
E180
C180
C180
E180
E380
7F00
3E00
ENDCHAR
STARTCHAR 00F3
ENCODING 243
SWIDTH 565 0
DWIDTH 11 0
BBX 9 14 1 0
BITMAP
0700
0600
0C00
0000
3E00
7F00
E380
E180
C180
C180
E180
E380
7F00
3E00
ENDCHAR
STARTCHAR 00F4
ENCODING 244
SWIDTH 565 0
DWIDTH 11 0
BBX 9 14 1 0
BITMAP
1C00
3600
4100
0000
3E00
7F00
E380
E180
C180
C180
E180
E380
7F00
3E00
ENDCHAR
STARTCHAR 00F5
ENCODING 245
SWIDTH 565 0
DWIDTH 11 0
BBX 9 14 1 0
BITMAP
3B00
6E00
0000
0000
3E00
7F00
E380
E180
C180
C180
E180
E380
7F00
3E00
ENDCHAR
STARTCHAR 00F6
ENCODING 246
SWIDTH 565 0
DWIDTH 11 0
BBX 9 14 1 0
BITMAP
3300
7300
0000
0000
3E00
7F00
E380
E180
C180
C180
E180
E380
7F00
3E00
ENDCHAR
STARTCHAR 00F7
ENCODING 247
SWIDTH 565 0
DWIDTH 11 0
BBX 9 10 1 1
BITMAP
1C00
0C00
0000
0000
FF80
FF80
0000
0C00
1C00
0800
ENDCHAR
STARTCHAR 00F8
ENCODING 248
SWIDTH 565 0
DWIDTH 11 0
BBX 9 12 1 -1
BITMAP
0180
3F00
7F00
E780
E580
CD80
C980
F980
F380
7F00
3E00
6000
ENDCHAR
STARTCHAR 00F9
ENCODING 249
SWIDTH 565 0
DWIDTH 11 0
BBX 9 14 1 0
BITMAP
3800
1800
0C00
0000
E180
E180
E180
E180
E180
E180
E180
6380
7F80
3D80
ENDCHAR
STARTCHAR 00FA
ENCODING 250
SWIDTH 565 0
DWIDTH 11 0
BBX 9 14 1 0
BITMAP
0700
0600
0C00
0000
E180
E180
E180
E180
E180
E180
E180
6380
7F80
3D80
ENDCHAR
STARTCHAR 00FB
ENCODING 251
SWIDTH 565 0
DWIDTH 11 0
BBX 9 14 1 0
BITMAP
1C00
3600
4100
0000
E180
E180
E180
E180
E180
E180
E180
6380
7F80
3D80
ENDCHAR
STARTCHAR 00FC
ENCODING 252
SWIDTH 565 0
DWIDTH 11 0
BBX 9 14 1 0
BITMAP
3300
7300
0000
0000
E180
E180
E180
E180
E180
E180
E180
6380
7F80
3D80
ENDCHAR
STARTCHAR 00FD
ENCODING 253
SWIDTH 565 0
DWIDTH 11 0
BBX 10 18 1 -4
BITMAP
0700
0600
0C00
0000
C1C0
E1C0
6180
7380
3300
3700
3E00
1E00
1E00
0C00
1C00
1800
7800
7000
ENDCHAR
STARTCHAR 00FE
ENCODING 254
SWIDTH 565 0
DWIDTH 11 0
BBX 9 18 1 -4
BITMAP
E000
E000
E000
E000
FF00
FF00
E380
E180
E180
E180
E180
E380
FF00
FF00
E000
E000
E000
E000
ENDCHAR
STARTCHAR 00FF
ENCODING 255
SWIDTH 565 0
DWIDTH 11 0
BBX 10 18 1 -4
BITMAP
3300
7300
0000
0000
C1C0
E1C0
6180
7380
3300
3700
3E00
1E00
1E00
0C00
1C00
1800
7800
7000
ENDCHAR
STARTCHAR 0100
ENCODING 256
SWIDTH 565 0
DWIDTH 11 0
BBX 11 17 0 0
BITMAP
3F80
3F80
0000
0600
0E00
0F00
0F00
1F00
1B80
1980
3980
31C0
3FC0
3FC0
70C0
60E0
E060
ENDCHAR
STARTCHAR 0101
ENCODING 257
SWIDTH 565 0
DWIDTH 11 0
BBX 9 14 1 0
BITMAP
7F00
7F00
0000
0000
3E00
7F00
E380
0380
3F80
7380
E380
E380
FF80
7D80
ENDCHAR
STARTCHAR 0102
ENCODING 258
SWIDTH 565 0
DWIDTH 11 0
BBX 11 17 0 0
BITMAP
1980
0F00
0000
0600
0E00
0F00
0F00
1F00
1B80
1980
3980
31C0
3FC0
3FC0
70C0
60E0
E060
ENDCHAR
STARTCHAR 0103
ENCODING 259
SWIDTH 565 0
DWIDTH 11 0
BBX 9 14 1 0
BITMAP
3300
1E00
0000
0000
3E00
7F00
E380
0380
3F80
7380
E380
E380
FF80
7D80
ENDCHAR
STARTCHAR 0104
ENCODING 260
SWIDTH 565 0
DWIDTH 11 0
BBX 11 18 0 -4
BITMAP
0600
0E00
0F00
0F00
1F00
1B80
1980
3980
31C0
3FC0
3FC0
70C0
60E0
E060
00C0
0180
01E0
00E0
ENDCHAR
STARTCHAR 0105
ENCODING 261
SWIDTH 565 0
DWIDTH 11 0
BBX 9 14 1 -4
BITMAP
3E00
7F00
E380
0380
3F80
7380
E380
E380
FF80
7D80
0300
0600
0780
0380
ENDCHAR
STARTCHAR 0106
ENCODING 262
SWIDTH 565 0
DWIDTH 11 0
BBX 10 17 1 0
BITMAP
0380
0300
0600
1C00
3F00
7380
E180
C1C0
C000
C000
C000
C000
C000
E1C0
E180
7F80
3E00
ENDCHAR
STARTCHAR 0107
ENCODING 263
SWIDTH 565 0
DWIDTH 11 0
BBX 9 14 1 0
BITMAP
0700
0600
0C00
0000
3E00
7F00
6380
E180
E000
E000
E000
6380
7F00
3E00
ENDCHAR
STARTCHAR 0108
ENCODING 264
SWIDTH 565 0
DWIDTH 11 0
BBX 10 17 1 0
BITMAP
0E00
1B00
2080
1C00
3F00
7380
E180
C1C0
C000
C000
C000
C000
C000
E1C0
E180
7F80
3E00
ENDCHAR
STARTCHAR 0109
ENCODING 265
SWIDTH 565 0
DWIDTH 11 0
BBX 9 14 1 0
BITMAP
1C00
3600
4100
0000
3E00
7F00
6380
E180
E000
E000
E000
6380
7F00
3E00
ENDCHAR
STARTCHAR 010A
ENCODING 266
SWIDTH 565 0
DWIDTH 11 0
BBX 10 17 1 0
BITMAP
0600
0E00
0400
1C00
3F00
7380
E180
C1C0
C000
C000
C000
C000
C000
E1C0
E180
7F80
3E00
ENDCHAR
STARTCHAR 010B
ENCODING 267
SWIDTH 565 0
DWIDTH 11 0
BBX 9 14 1 0
BITMAP
0C00
1C00
0800
0000
3E00
7F00
6380
E180
E000
E000
E000
6380
7F00
3E00
ENDCHAR
STARTCHAR 010C
ENCODING 268
SWIDTH 565 0
DWIDTH 11 0
BBX 10 17 1 0
BITMAP
7300
1E00
0000
1C00
3F00
7380
E180
C1C0
C000
C000
C000
C000
C000
E1C0
E180
7F80
3E00
ENDCHAR
STARTCHAR 010D
ENCODING 269
SWIDTH 565 0
DWIDTH 11 0
BBX 9 14 1 0
BITMAP
7300
1E00
0000
0000
3E00
7F00
6380
E180
E000
E000
E000
6380
7F00
3E00
ENDCHAR
STARTCHAR 010E
ENCODING 270
SWIDTH 565 0
DWIDTH 11 0
BBX 10 17 1 0
BITMAP
E600
3C00
0000
F000
FE00
EF00
E380
E180
E180
E1C0
E1C0
E1C0
E180
E380
E380
FF00
FC00
ENDCHAR
STARTCHAR 010F
ENCODING 271
SWIDTH 565 0
DWIDTH 11 0
BBX 13 14 0 0
BITMAP
0198
0198
0198
01B0
3D90
7F80
E380
E180
C180
C180
E180
E380
7F80
3D80
ENDCHAR
STARTCHAR 0110
ENCODING 272
SWIDTH 565 0
DWIDTH 11 0
BBX 11 14 0 0
BITMAP
7800
7F00
7780
71C0
70C0
70E0
FCE0
FCE0
70E0
70E0
70C0
71C0
7F80
7E00
ENDCHAR
STARTCHAR 0111
ENCODING 273
SWIDTH 565 0
DWIDTH 11 0
BBX 10 14 1 0
BITMAP
0380
0FC0
0FC0
0380
3F80
7F80
E380
E380
C380
C380
E380
E380
7F80
3D80
ENDCHAR
STARTCHAR 0112
ENCODING 274
SWIDTH 565 0
DWIDTH 11 0
BBX 9 17 1 0
BITMAP
7F00
7F00
0000
FF80
FF80
E000
E000
E000
E000
FF00
FF00
E000
E000
E000
E000
FF80
FF80
ENDCHAR
STARTCHAR 0113
ENCODING 275
SWIDTH 565 0
DWIDTH 11 0
BBX 9 14 1 0
BITMAP
7F00
7F00
0000
0000
3E00
7F80
6180
E180
FF80
FF80
E000
6100
7F80
3F00
ENDCHAR
STARTCHAR 0114
ENCODING 276
SWIDTH 565 0
DWIDTH 11 0
BBX 9 17 1 0
BITMAP
3300
1E00
0000
FF80
FF80
E000
E000
E000
E000
FF00
FF00
E000
E000
E000
E000
FF80
FF80
ENDCHAR
STARTCHAR 0115
ENCODING 277
SWIDTH 565 0
DWIDTH 11 0
BBX 9 14 1 0
BITMAP
3300
1E00
0000
0000
3E00
7F80
6180
E180
FF80
FF80
E000
6100
7F80
3F00
ENDCHAR
STARTCHAR 0116
ENCODING 278
SWIDTH 565 0
DWIDTH 11 0
BBX 9 17 1 0
BITMAP
0C00
1C00
0800
FF80
FF80
E000
E000
E000
E000
FF00
FF00
E000
E000
E000
E000
FF80
FF80
ENDCHAR
STARTCHAR 0117
ENCODING 279
SWIDTH 565 0
DWIDTH 11 0
BBX 9 14 1 0
BITMAP
0C00
1C00
0800
0000
3E00
7F80
6180
E180
FF80
FF80
E000
6100
7F80
3F00
ENDCHAR
STARTCHAR 0118
ENCODING 280
SWIDTH 565 0
DWIDTH 11 0
BBX 9 18 1 -4
BITMAP
FF80
FF80
E000
E000
E000
E000
FF00
FF00
E000
E000
E000
E000
FF80
FF80
0200
0600
0700
0380
ENDCHAR
STARTCHAR 0119
ENCODING 281
SWIDTH 565 0
DWIDTH 11 0
BBX 9 14 1 -4
BITMAP
3E00
7F80
6180
E180
FF80
FF80
E000
6100
7F80
3F00
0C00
0C00
0E00
0700
ENDCHAR
STARTCHAR 011A
ENCODING 282
SWIDTH 565 0
DWIDTH 11 0
BBX 9 17 1 0
BITMAP
7300
1E00
0000
FF80
FF80
E000
E000
E000
E000
FF00
FF00
E000
E000
E000
E000
FF80
FF80
ENDCHAR
STARTCHAR 011B
ENCODING 283
SWIDTH 565 0
DWIDTH 11 0
BBX 9 14 1 0
BITMAP
7300
1E00
0000
0000
3E00
7F80
6180
E180
FF80
FF80
E000
6100
7F80
3F00
ENDCHAR
STARTCHAR 011C
ENCODING 284
SWIDTH 565 0
DWIDTH 11 0
BBX 9 17 1 0
BITMAP
1C00
3600
4100
1C00
3F00
7380
E180
C000
C000
C000
C780
C780
C180
E180
6180
7F80
3F00
ENDCHAR
STARTCHAR 011D
ENCODING 285
SWIDTH 565 0
DWIDTH 11 0
BBX 9 18 1 -4
BITMAP
1C00
3600
4100
0000
3D80
7F80
E380
E180
E180
E180
E180
6380
7F80
3D80
0180
4380
7F00
3E00
ENDCHAR
STARTCHAR 011E
ENCODING 286
SWIDTH 565 0
DWIDTH 11 0
BBX 9 17 1 0
BITMAP
3300
1E00
0000
1C00
3F00
7380
E180
C000
C000
C000
C780
C780
C180
E180
6180
7F80
3F00
ENDCHAR
STARTCHAR 011F
ENCODING 287
SWIDTH 565 0
DWIDTH 11 0
BBX 9 18 1 -4
BITMAP
3300
1E00
0000
0000
3D80
7F80
E380
E180
E180
E180
E180
6380
7F80
3D80
0180
4380
7F00
3E00
ENDCHAR
STARTCHAR 0120
ENCODING 288
SWIDTH 565 0
DWIDTH 11 0
BBX 9 17 1 0
BITMAP
0C00
1C00
0800
1C00
3F00
7380
E180
C000
C000
C000
C780
C780
C180
E180
6180
7F80
3F00
ENDCHAR
STARTCHAR 0121
ENCODING 289
SWIDTH 565 0
DWIDTH 11 0
BBX 9 18 1 -4
BITMAP
0C00
1C00
0800
0000
3D80
7F80
E380
E180
E180
E180
E180
6380
7F80
3D80
0180
4380
7F00
3E00
ENDCHAR
STARTCHAR 0122
ENCODING 290
SWIDTH 565 0
DWIDTH 11 0
BBX 9 19 1 -5
BITMAP
1C00
3F00
7380
E180
C000
C000
C000
C780
C780
C180
E180
6180
7F80
3F00
0000
0C00
0C00
0800
0800
ENDCHAR
STARTCHAR 0123
ENCODING 291
SWIDTH 565 0
DWIDTH 11 0
BBX 9 20 1 -4
BITMAP
0800
0C00
0C00
1800
1800
0000
3D80
7F80
E380
E180
E180
E180
E180
6380
7F80
3D80
0180
4380
7F00
3E00
ENDCHAR
STARTCHAR 0124
ENCODING 292
SWIDTH 565 0
DWIDTH 11 0
BBX 9 17 1 0
BITMAP
1C00
3600
4100
E180
E180
E180
E180
E180
E180
FF80
FF80
E180
E180
E180
E180
E180
E180
ENDCHAR
STARTCHAR 0125
ENCODING 293
SWIDTH 565 0
DWIDTH 11 0
BBX 11 18 -1 0
BITMAP
3800
6C00
8200
0000
3800
3800
3800
3800
3BC0
3FE0
38E0
3860
3860
3860
3860
3860
3860
3860
ENDCHAR
STARTCHAR 0126
ENCODING 294
SWIDTH 565 0
DWIDTH 11 0
BBX 11 14 0 0
BITMAP
61C0
61C0
61C0
FFE0
61C0
61C0
7FC0
7FC0
61C0
61C0
61C0
61C0
61C0
61C0
ENDCHAR
STARTCHAR 0127
ENCODING 295
SWIDTH 565 0
DWIDTH 11 0
BBX 10 14 0 0
BITMAP
3000
FC00
FC00
3000
3780
3FC0
30C0
30C0
30C0
30C0
30C0
30C0
30C0
30C0
ENDCHAR
STARTCHAR 0128
ENCODING 296
SWIDTH 565 0
DWIDTH 11 0
BBX 8 17 2 0
BITMAP
76
DC
00
FF
FF
38
38
38
38
38
38
38
38
38
38
FF
FF
ENDCHAR
STARTCHAR 0129
ENCODING 297
SWIDTH 565 0
DWIDTH 11 0
BBX 8 14 2 0
BITMAP
3B
6E
00
00
F8
F8
18
18
18
18
18
18
FF
FF
ENDCHAR
STARTCHAR 012A
ENCODING 298
SWIDTH 565 0
DWIDTH 11 0
BBX 8 17 2 0
BITMAP
FE
FE
00
FF
FF
38
38
38
38
38
38
38
38
38
38
FF
FF
ENDCHAR
STARTCHAR 012B
ENCODING 299
SWIDTH 565 0
DWIDTH 11 0
BBX 8 14 2 0
BITMAP
FE
FE
00
00
F8
F8
18
18
18
18
18
18
FF
FF
ENDCHAR
STARTCHAR 012C
ENCODING 300
SWIDTH 565 0
DWIDTH 11 0
BBX 8 17 2 0
BITMAP
66
3C
00
FF
FF
38
38
38
38
38
38
38
38
38
38
FF
FF
ENDCHAR
STARTCHAR 012D
ENCODING 301
SWIDTH 565 0
DWIDTH 11 0
BBX 8 14 2 0
BITMAP
66
3C
00
00
F8
F8
18
18
18
18
18
18
FF
FF
ENDCHAR
STARTCHAR 012E
ENCODING 302
SWIDTH 565 0
DWIDTH 11 0
BBX 8 18 2 -4
BITMAP
FF
FF
38
38
38
38
38
38
38
38
38
38
FF
FF
30
30
38
3C
ENDCHAR
STARTCHAR 012F
ENCODING 303
SWIDTH 565 0
DWIDTH 11 0
BBX 8 18 2 -4
BITMAP
18
1C
18
00
F8
F8
18
18
18
18
18
18
FF
FF
30
30
38
38
ENDCHAR
STARTCHAR 0130
ENCODING 304
SWIDTH 565 0
DWIDTH 11 0
BBX 8 17 2 0
BITMAP
18
38
10
FF
FF
38
38
38
38
38
38
38
38
38
38
FF
FF
ENDCHAR
STARTCHAR 0131
ENCODING 305
SWIDTH 565 0
DWIDTH 11 0
BBX 8 10 2 0
BITMAP
F8
F8
18
18
18
18
18
18
FF
FF
ENDCHAR
STARTCHAR 0132
ENCODING 306
SWIDTH 565 0
DWIDTH 11 0
BBX 9 14 1 0
BITMAP
C180
C180
C180
C180
C180
C180
C180
C180
C180
C180
C180
D980
D980
CF00
ENDCHAR
STARTCHAR 0133
ENCODING 307
SWIDTH 565 0
DWIDTH 11 0
BBX 9 18 1 -4
BITMAP
2080
3180
0000
0000
F780
F780
3180
3180
3180
3180
3180
3180
FD80
FD80
0180
0180
1F80
1F00
ENDCHAR
STARTCHAR 0134
ENCODING 308
SWIDTH 565 0
DWIDTH 11 0
BBX 11 17 1 0
BITMAP
0380
06C0
0820
0180
0180
0180
0180
0180
0180
0180
0180
0180
0180
C180
E380
7F00
3E00
ENDCHAR
STARTCHAR 0135
ENCODING 309
SWIDTH 565 0
DWIDTH 11 0
BBX 8 18 2 -4
BITMAP
1C
36
41
00
7C
7C
1C
1C
1C
1C
1C
1C
1C
1C
1C
1C
F8
F0
ENDCHAR
STARTCHAR 0136
ENCODING 310
SWIDTH 565 0
DWIDTH 11 0
BBX 11 19 1 -5
BITMAP
E1C0
E1C0
E380
E700
EE00
EC00
FC00
FC00
FE00
E700
E300
E380
E1C0
E1E0
0000
0C00
0C00
0800
0800
ENDCHAR
STARTCHAR 0137
ENCODING 311
SWIDTH 565 0
DWIDTH 11 0
BBX 10 19 1 -5
BITMAP
E000
E000
E000
E000
E380
E700
EE00
FC00
FC00
FE00
E600
E700
E380
E1C0
0000
1800
1800
1000
1000
ENDCHAR
STARTCHAR 0138
ENCODING 312
SWIDTH 565 0
DWIDTH 11 0
BBX 9 10 2 0
BITMAP
C780
C700
CE00
DC00
F800
FC00
EE00
CE00
C700
C380
ENDCHAR
STARTCHAR 0139
ENCODING 313
SWIDTH 565 0
DWIDTH 11 0
BBX 9 17 1 0
BITMAP
3800
3000
6000
E000
E000
E000
E000
E000
E000
E000
E000
E000
E000
E000
E000
FF80
FF80
ENDCHAR
STARTCHAR 013A
ENCODING 314
SWIDTH 565 0
DWIDTH 11 0
BBX 8 18 2 0
BITMAP
07
06
0C
00
F8
F8
18
18
18
18
18
18
18
18
18
18
FF
FF
ENDCHAR
STARTCHAR 013B
ENCODING 315
SWIDTH 565 0
DWIDTH 11 0
BBX 9 19 1 -5
BITMAP
E000
E000
E000
E000
E000
E000
E000
E000
E000
E000
E000
E000
FF80
FF80
0000
0C00
0C00
0800
0800
ENDCHAR
STARTCHAR 013C
ENCODING 316
SWIDTH 565 0
DWIDTH 11 0
BBX 8 19 2 -5
BITMAP
F8
F8
18
18
18
18
18
18
18
18
18
18
FF
FF
00
18
18
10
10
ENDCHAR
STARTCHAR 013D
ENCODING 317
SWIDTH 565 0
DWIDTH 11 0
BBX 9 14 1 0
BITMAP
E000
E300
E300
E300
E600
E200
E000
E000
E000
E000
E000
E000
FF80
FF80
ENDCHAR
STARTCHAR 013E
ENCODING 318
SWIDTH 565 0
DWIDTH 11 0
BBX 10 14 1 0
BITMAP
F8C0
F8C0
18C0
1980
1880
1800
1800
1800
1800
1800
1800
1800
FF00
FF00
ENDCHAR
STARTCHAR 013F
ENCODING 319
SWIDTH 565 0
DWIDTH 11 0
BBX 9 14 1 0
BITMAP
E000
E000
E000
E000
E000
E600
EE00
E400
E000
E000
E000
E000
FF80
FF80
ENDCHAR
STARTCHAR 0140
ENCODING 320
SWIDTH 565 0
DWIDTH 11 0
BBX 9 14 1 0
BITMAP
F800
F800
1800
1800
1800
1980
1B80
1900
1800
1800
1800
1800
FF00
FF00
ENDCHAR
STARTCHAR 0141
ENCODING 321
SWIDTH 565 0
DWIDTH 11 0
BBX 11 14 0 0
BITMAP
3000
3000
3000
3000
3000
3400
3C00
F000
B000
3000
3000
3000
3FE0
3FE0
ENDCHAR
STARTCHAR 0142
ENCODING 322
SWIDTH 565 0
DWIDTH 11 0
BBX 8 14 2 0
BITMAP
F8
F8
18
19
1B
1E
78
F8
98
18
18
18
FF
FF
ENDCHAR
STARTCHAR 0143
ENCODING 323
SWIDTH 565 0
DWIDTH 11 0
BBX 9 17 1 0
BITMAP
0700
0600
0C00
E180
E180
F180
F180
F180
F980
F980
ED80
ED80
E780
E780
E380
E380
E380
ENDCHAR
STARTCHAR 0144
ENCODING 324
SWIDTH 565 0
DWIDTH 11 0
BBX 9 14 1 0
BITMAP
0700
0600
0C00
0000
EF00
FF80
E180
E180
E180
E180
E180
E180
E180
E180
ENDCHAR
STARTCHAR 0145
ENCODING 325
SWIDTH 565 0
DWIDTH 11 0
BBX 9 19 1 -5
BITMAP
E180
E180
F180
F180
F180
F980
F980
ED80
ED80
E780
E780
E380
E380
E380
0000
0C00
0C00
0800
0800
ENDCHAR
STARTCHAR 0146
ENCODING 326
SWIDTH 565 0
DWIDTH 11 0
BBX 9 15 1 -5
BITMAP
EF00
FF80
E180
E180
E180
E180
E180
E180
E180
E180
0000
0C00
0C00
0800
0800
ENDCHAR
STARTCHAR 0147
ENCODING 327
SWIDTH 565 0
DWIDTH 11 0
BBX 9 17 1 0
BITMAP
7300
1E00
0000
E180
E180
F180
F180
F180
F980
F980
ED80
ED80
E780
E780
E380
E380
E380
ENDCHAR
STARTCHAR 0148
ENCODING 328
SWIDTH 565 0
DWIDTH 11 0
BBX 9 14 1 0
BITMAP
7300
1E00
0000
0000
EF00
FF80
E180
E180
E180
E180
E180
E180
E180
E180
ENDCHAR
STARTCHAR 0149
ENCODING 329
SWIDTH 565 0
DWIDTH 11 0
BBX 12 14 -2 0
BITMAP
6000
6000
6000
C000
5DE0
1FF0
1C30
1C30
1C30
1C30
1C30
1C30
1C30
1C30
ENDCHAR
STARTCHAR 014A
ENCODING 330
SWIDTH 565 0
DWIDTH 11 0
BBX 9 18 1 -4
BITMAP
E180
E180
F180
F180
F980
F980
FD80
ED80
ED80
E780
E780
E380
E380
E380
0180
0380
0780
0F00
ENDCHAR
STARTCHAR 014B
ENCODING 331
SWIDTH 565 0
DWIDTH 11 0
BBX 9 14 1 -4
BITMAP
EF00
FF80
E380
E180
E180
E180
E180
E180
E180
E180
0180
0380
0F80
0F00
ENDCHAR
STARTCHAR 014C
ENCODING 332
SWIDTH 565 0
DWIDTH 11 0
BBX 10 17 1 0
BITMAP
7F00
7F00
0000
1C00
3F00
7780
E180
C180
C1C0
C1C0
C1C0
C1C0
C180
E180
E380
7F00
3E00
ENDCHAR
STARTCHAR 014D
ENCODING 333
SWIDTH 565 0
DWIDTH 11 0
BBX 9 14 1 0
BITMAP
7F00
7F00
0000
0000
3E00
7F00
E380
E180
C180
C180
E180
E380
7F00
3E00
ENDCHAR
STARTCHAR 014E
ENCODING 334
SWIDTH 565 0
DWIDTH 11 0
BBX 10 17 1 0
BITMAP
3300
1E00
0000
1C00
3F00
7780
E180
C180
C1C0
C1C0
C1C0
C1C0
C180
E180
E380
7F00
3E00
ENDCHAR
STARTCHAR 014F
ENCODING 335
SWIDTH 565 0
DWIDTH 11 0
BBX 9 14 1 0
BITMAP
3300
1E00
0000
0000
3E00
7F00
E380
E180
C180
C180
E180
E380
7F00
3E00
ENDCHAR
STARTCHAR 0150
ENCODING 336
SWIDTH 565 0
DWIDTH 11 0
BBX 10 17 1 0
BITMAP
1DC0
1B00
2400
1C00
3F00
7780
E180
C180
C1C0
C1C0
C1C0
C1C0
C180
E180
E380
7F00
3E00
ENDCHAR
STARTCHAR 0151
ENCODING 337
SWIDTH 565 0
DWIDTH 11 0
BBX 10 14 1 0
BITMAP
1DC0
1B00
2400
0000
3E00
7F00
E380
E180
C180
C180
E180
E380
7F00
3E00
ENDCHAR
STARTCHAR 0152
ENCODING 338
SWIDTH 565 0
DWIDTH 11 0
BBX 10 14 1 0
BITMAP
3FC0
7FC0
EE00
CE00
CE00
CE00
CF80
CF80
CE00
CE00
CE00
CE00
FFC0
7FC0
ENDCHAR
STARTCHAR 0153
ENCODING 339
SWIDTH 565 0
DWIDTH 11 0
BBX 11 10 0 0
BITMAP
3FC0
7FE0
6660
E660
E7E0
E7E0
E600
6600
7FC0
3FE0
ENDCHAR
STARTCHAR 0154
ENCODING 340
SWIDTH 565 0
DWIDTH 11 0
BBX 10 17 1 0
BITMAP
0700
0600
0C00
F800
FF00
E780
E180
E1C0
E180
E380
FF00
FE00
E700
E300
E380
E180
E1C0
ENDCHAR
STARTCHAR 0155
ENCODING 341
SWIDTH 565 0
DWIDTH 11 0
BBX 7 14 3 0
BITMAP
1C
18
30
00
DE
FE
E0
C0
C0
C0
C0
C0
C0
C0
ENDCHAR
STARTCHAR 0156
ENCODING 342
SWIDTH 565 0
DWIDTH 11 0
BBX 10 19 1 -5
BITMAP
F800
FF00
E780
E180
E1C0
E180
E380
FF00
FE00
E700
E300
E380
E180
E1C0
0000
0C00
0C00
0800
0800
ENDCHAR
STARTCHAR 0157
ENCODING 343
SWIDTH 565 0
DWIDTH 11 0
BBX 7 15 3 -5
BITMAP
DE
FE
E0
C0
C0
C0
C0
C0
C0
C0
00
C0
C0
80
80
ENDCHAR
STARTCHAR 0158
ENCODING 344
SWIDTH 565 0
DWIDTH 11 0
BBX 10 17 1 0
BITMAP
7300
1E00
0000
F800
FF00
E780
E180
E1C0
E180
E380
FF00
FE00
E700
E300
E380
E180
E1C0
ENDCHAR
STARTCHAR 0159
ENCODING 345
SWIDTH 565 0
DWIDTH 11 0
BBX 8 14 2 0
BITMAP
E6
3C
00
00
6F
7F
70
60
60
60
60
60
60
60
ENDCHAR
STARTCHAR 015A
ENCODING 346
SWIDTH 565 0
DWIDTH 11 0
BBX 10 17 1 0
BITMAP
0700
0600
0C00
1C00
7F00
7380
E1C0
E000
7000
7C00
1F00
0380
01C0
C1C0
E1C0
7F80
3F00
ENDCHAR
STARTCHAR 015B
ENCODING 347
SWIDTH 565 0
DWIDTH 11 0
BBX 9 14 1 0
BITMAP
0700
0600
0C00
0000
3F00
7F80
6180
6000
7E00
1F80
0380
E180
7F80
3F00
ENDCHAR
STARTCHAR 015C
ENCODING 348
SWIDTH 565 0
DWIDTH 11 0
BBX 10 17 1 0
BITMAP
1C00
3600
4100
1C00
7F00
7380
E1C0
E000
7000
7C00
1F00
0380
01C0
C1C0
E1C0
7F80
3F00
ENDCHAR
STARTCHAR 015D
ENCODING 349
SWIDTH 565 0
DWIDTH 11 0
BBX 9 14 1 0
BITMAP
1C00
3600
4100
0000
3F00
7F80
6180
6000
7E00
1F80
0380
E180
7F80
3F00
ENDCHAR
STARTCHAR 015E
ENCODING 350
SWIDTH 565 0
DWIDTH 11 0
BBX 10 18 1 -4
BITMAP
1C00
7F00
7380
E1C0
E000
7000
7C00
1F00
0380
01C0
C1C0
E1C0
7F80
3F00
0C00
0600
0600
0E00
ENDCHAR
STARTCHAR 015F
ENCODING 351
SWIDTH 565 0
DWIDTH 11 0
BBX 9 14 1 -4
BITMAP
3F00
7F80
6180
6000
7E00
1F80
0380
E180
7F80
3F00
1800
0C00
0C00
1C00
ENDCHAR
STARTCHAR 0160
ENCODING 352
SWIDTH 565 0
DWIDTH 11 0
BBX 10 17 1 0
BITMAP
7300
1E00
0000
1C00
7F00
7380
E1C0
E000
7000
7C00
1F00
0380
01C0
C1C0
E1C0
7F80
3F00
ENDCHAR
STARTCHAR 0161
ENCODING 353
SWIDTH 565 0
DWIDTH 11 0
BBX 9 14 1 0
BITMAP
7300
1E00
0000
0000
3F00
7F80
6180
6000
7E00
1F80
0380
E180
7F80
3F00
ENDCHAR
STARTCHAR 0162
ENCODING 354
SWIDTH 565 0
DWIDTH 11 0
BBX 11 18 0 -4
BITMAP
FFE0
FFE0
0E00
0E00
0E00
0E00
0E00
0E00
0E00
0E00
0E00
0E00
0E00
0E00
0C00
0600
0600
0E00
ENDCHAR
STARTCHAR 0163
ENCODING 355
SWIDTH 565 0
DWIDTH 11 0
BBX 9 16 1 -4
BITMAP
1800
1800
FF80
FF80
1800
1800
1800
1800
1800
1800
1F80
0F80
0C00
0600
0600
0E00
ENDCHAR
STARTCHAR 0164
ENCODING 356
SWIDTH 565 0
DWIDTH 11 0
BBX 11 17 0 0
BITMAP
3980
0F00
0000
FFE0
FFE0
0E00
0E00
0E00
0E00
0E00
0E00
0E00
0E00
0E00
0E00
0E00
0E00
ENDCHAR
STARTCHAR 0165
ENCODING 357
SWIDTH 565 0
DWIDTH 11 0
BBX 10 15 1 0
BITMAP
00C0
00C0
00C0
1980
1880
FF80
FF80
1800
1800
1800
1800
1800
1800
1F80
0F80
ENDCHAR
STARTCHAR 0166
ENCODING 358
SWIDTH 565 0
DWIDTH 11 0
BBX 11 14 0 0
BITMAP
FFE0
FFE0
0E00
0E00
0E00
3F80
3F80
0E00
0E00
0E00
0E00
0E00
0E00
0E00
ENDCHAR
STARTCHAR 0167
ENCODING 359
SWIDTH 565 0
DWIDTH 11 0
BBX 9 12 1 0
BITMAP
1800
1800
FF80
FF80
1800
7E00
7E00
1800
1800
1800
1F80
0F80
ENDCHAR
STARTCHAR 0168
ENCODING 360
SWIDTH 565 0
DWIDTH 11 0
BBX 9 17 1 0
BITMAP
3B00
6E00
0000
E180
E180
E180
E180
E180
E180
E180
E180
E180
E180
E180
6380
7F00
3E00
ENDCHAR
STARTCHAR 0169
ENCODING 361
SWIDTH 565 0
DWIDTH 11 0
BBX 9 14 1 0
BITMAP
3B00
6E00
0000
0000
E180
E180
E180
E180
E180
E180
E180
6380
7F80
3D80
ENDCHAR
STARTCHAR 016A
ENCODING 362
SWIDTH 565 0
DWIDTH 11 0
BBX 9 17 1 0
BITMAP
7F00
7F00
0000
E180
E180
E180
E180
E180
E180
E180
E180
E180
E180
E180
6380
7F00
3E00
ENDCHAR
STARTCHAR 016B
ENCODING 363
SWIDTH 565 0
DWIDTH 11 0
BBX 9 14 1 0
BITMAP
7F00
7F00
0000
0000
E180
E180
E180
E180
E180
E180
E180
6380
7F80
3D80
ENDCHAR
STARTCHAR 016C
ENCODING 364
SWIDTH 565 0
DWIDTH 11 0
BBX 9 17 1 0
BITMAP
3300
1E00
0000
E180
E180
E180
E180
E180
E180
E180
E180
E180
E180
E180
6380
7F00
3E00
ENDCHAR
STARTCHAR 016D
ENCODING 365
SWIDTH 565 0
DWIDTH 11 0
BBX 9 14 1 0
BITMAP
3300
1E00
0000
0000
E180
E180
E180
E180
E180
E180
E180
6380
7F80
3D80
ENDCHAR
STARTCHAR 016E
ENCODING 366
SWIDTH 565 0
DWIDTH 11 0
BBX 9 17 1 0
BITMAP
1C00
1200
1C00
E180
E180
E180
E180
E180
E180
E180
E180
E180
E180
E180
6380
7F00
3E00
ENDCHAR
STARTCHAR 016F
ENCODING 367
SWIDTH 565 0
DWIDTH 11 0
BBX 9 14 1 0
BITMAP
1C00
1200
1C00
0000
E180
E180
E180
E180
E180
E180
E180
6380
7F80
3D80
ENDCHAR
STARTCHAR 0170
ENCODING 368
SWIDTH 565 0
DWIDTH 11 0
BBX 10 17 1 0
BITMAP
1DC0
1B00
2400
E180
E180
E180
E180
E180
E180
E180
E180
E180
E180
E180
6380
7F00
3E00
ENDCHAR
STARTCHAR 0171
ENCODING 369
SWIDTH 565 0
DWIDTH 11 0
BBX 10 14 1 0
BITMAP
1DC0
1B00
2400
0000
E180
E180
E180
E180
E180
E180
E180
6380
7F80
3D80
ENDCHAR
STARTCHAR 0172
ENCODING 370
SWIDTH 565 0
DWIDTH 11 0
BBX 9 17 1 -3
BITMAP
E180
E180
E180
E180
E180
E180
E180
E180
E180
E180
E180
6380
7F00
3E00
0C00
0C00
0F00
ENDCHAR
STARTCHAR 0173
ENCODING 371
SWIDTH 565 0
DWIDTH 11 0
BBX 9 14 1 -4
BITMAP
E180
E180
E180
E180
E180
E180
E180
6380
7F80
3D80
0300
0300
0380
0380
ENDCHAR
STARTCHAR 0174
ENCODING 372
SWIDTH 565 0
DWIDTH 11 0
BBX 11 17 0 0
BITMAP
0E00
1B00
2080
E660
E660
6660
6E60
6EE0
6EC0
6FC0
6BC0
6BC0
3BC0
39C0
39C0
39C0
3180
ENDCHAR
STARTCHAR 0175
ENCODING 373
SWIDTH 565 0
DWIDTH 11 0
BBX 11 14 0 0
BITMAP
0E00
1B00
2080
0000
E660
6660
6EE0
6EC0
6AC0
6BC0
2BC0
3BC0
3980
3180
ENDCHAR
STARTCHAR 0176
ENCODING 374
SWIDTH 565 0
DWIDTH 11 0
BBX 11 17 0 0
BITMAP
0E00
1B00
2080
E060
60E0
70C0
31C0
3980
1B80
1F00
0F00
0E00
0600
0600
0600
0600
0600
ENDCHAR
STARTCHAR 0177
ENCODING 375
SWIDTH 565 0
DWIDTH 11 0
BBX 10 18 1 -4
BITMAP
1C00
3600
4100
0000
C1C0
E1C0
6180
7380
3300
3700
3E00
1E00
1E00
0C00
1C00
1800
7800
7000
ENDCHAR
STARTCHAR 0178
ENCODING 376
SWIDTH 565 0
DWIDTH 11 0
BBX 11 17 0 0
BITMAP
1980
3980
0000
E060
60E0
70C0
31C0
3980
1B80
1F00
0F00
0E00
0600
0600
0600
0600
0600
ENDCHAR
STARTCHAR 0179
ENCODING 377
SWIDTH 565 0
DWIDTH 11 0
BBX 10 17 1 0
BITMAP
0700
0600
0C00
FF80
FF80
0380
0300
0700
0E00
0C00
1C00
3800
3000
7000
6000
FFC0
FFC0
ENDCHAR
STARTCHAR 017A
ENCODING 378
SWIDTH 565 0
DWIDTH 11 0
BBX 9 14 1 0
BITMAP
0700
0600
0C00
0000
FF80
FF80
0700
0600
0E00
1C00
3800
7000
FF80
FF80
ENDCHAR
STARTCHAR 017B
ENCODING 379
SWIDTH 565 0
DWIDTH 11 0
BBX 10 17 1 0
BITMAP
0C00
1C00
0800
FF80
FF80
0380
0300
0700
0E00
0C00
1C00
3800
3000
7000
6000
FFC0
FFC0
ENDCHAR
STARTCHAR 017C
ENCODING 380
SWIDTH 565 0
DWIDTH 11 0
BBX 9 14 1 0
BITMAP
0C00
1C00
0800
0000
FF80
FF80
0700
0600
0E00
1C00
3800
7000
FF80
FF80
ENDCHAR
STARTCHAR 017D
ENCODING 381
SWIDTH 565 0
DWIDTH 11 0
BBX 10 17 1 0
BITMAP
7300
1E00
0000
FF80
FF80
0380
0300
0700
0E00
0C00
1C00
3800
3000
7000
6000
FFC0
FFC0
ENDCHAR
STARTCHAR 017E
ENCODING 382
SWIDTH 565 0
DWIDTH 11 0
BBX 9 14 1 0
BITMAP
7300
1E00
0000
0000
FF80
FF80
0700
0600
0E00
1C00
3800
7000
FF80
FF80
ENDCHAR
STARTCHAR 017F
ENCODING 383
SWIDTH 565 0
DWIDTH 11 0
BBX 6 15 4 0
BITMAP
1C
7C
F0
E0
C0
C0
C0
C0
C0
C0
C0
C0
C0
C0
C0
ENDCHAR
STARTCHAR 0192
ENCODING 402
SWIDTH 565 0
DWIDTH 11 0
BBX 9 19 1 -4
BITMAP
0380
0F80
0E80
1C00
1C00
3F00
3F00
1C00
1C00
1C00
1C00
1C00
1C00
1C00
1C00
1C00
1C00
F800
F000
ENDCHAR
STARTCHAR 01A0
ENCODING 416
SWIDTH 565 0
DWIDTH 11 0
BBX 11 14 1 0
BITMAP
1C60
3FC0
73C0
E180
C180
C1C0
C1C0
C1C0
C1C0
C1C0
E180
6380
7F00
3E00
ENDCHAR
STARTCHAR 01A1
ENCODING 417
SWIDTH 565 0
DWIDTH 11 0
BBX 10 11 1 0
BITMAP
00C0
3EC0
7F80
E380
E180
C180
C180
E180
E380
7F00
3E00
ENDCHAR
STARTCHAR 01AF
ENCODING 431
SWIDTH 565 0
DWIDTH 11 0
BBX 12 14 1 0
BITMAP
E190
E190
E1F0
E1E0
E180
E180
E180
E180
E180
E180
E180
6380
7F00
3E00
ENDCHAR
STARTCHAR 01B0
ENCODING 432
SWIDTH 565 0
DWIDTH 11 0
BBX 12 11 1 0
BITMAP
0030
E3B0
E3E0
E3C0
E380
E380
E380
E380
E380
7F80
3D80
ENDCHAR
STARTCHAR 01F0
ENCODING 496
SWIDTH 565 0
DWIDTH 11 0
BBX 8 18 2 -4
BITMAP
73
1E
00
00
7C
7C
1C
1C
1C
1C
1C
1C
1C
1C
1C
1C
F8
F0
ENDCHAR
STARTCHAR 01FA
ENCODING 506
SWIDTH 565 0
DWIDTH 11 0
BBX 11 20 0 0
BITMAP
0180
0300
0600
0900
0900
0600
0600
0E00
0F00
0F00
1F00
1B80
1980
3980
31C0
3FC0
3FC0
70C0
60E0
E060
ENDCHAR
STARTCHAR 01FB
ENCODING 507
SWIDTH 565 0
DWIDTH 11 0
BBX 9 17 1 0
BITMAP
0300
0600
0C00
1200
1200
0C00
0000
3E00
7F00
E380
0380
3F80
7380
E380
E380
FF80
7D80
ENDCHAR
STARTCHAR 01FC
ENCODING 508
SWIDTH 565 0
DWIDTH 11 0
BBX 11 17 0 0
BITMAP
01C0
0180
0300
07E0
07E0
0F00
0F00
0F00
1B00
1BC0
1BC0
3300
3F00
3F00
7300
63E0
E3E0
ENDCHAR
STARTCHAR 01FD
ENCODING 509
SWIDTH 565 0
DWIDTH 11 0
BBX 11 14 0 0
BITMAP
0380
0300
0600
0000
3FC0
7FE0
6660
0660
3FE0
7FE0
E600
E600
7FE0
7BE0
ENDCHAR
STARTCHAR 01FE
ENCODING 510
SWIDTH 565 0
DWIDTH 11 0
BBX 11 19 0 -1
BITMAP
0380
0300
0600
0000
0E60
1FC0
39C0
71C0
63C0
62E0
66E0
64E0
6CE0
68E0
78C0
71C0
3F80
7F00
C000
ENDCHAR
STARTCHAR 01FF
ENCODING 511
SWIDTH 565 0
DWIDTH 11 0
BBX 9 15 1 -1
BITMAP
0700
0600
0C80
0100
3F00
7F00
E780
E580
CD80
C980
F980
F380
7F00
3E00
6000
ENDCHAR
STARTCHAR 0218
ENCODING 536
SWIDTH 565 0
DWIDTH 11 0
BBX 10 19 1 -5
BITMAP
1C00
7F00
7380
E1C0
E000
7000
7C00
1F00
0380
01C0
C1C0
E1C0
7F80
3F00
0000
0C00
0C00
0800
0800
ENDCHAR
STARTCHAR 0219
ENCODING 537
SWIDTH 565 0
DWIDTH 11 0
BBX 9 15 1 -5
BITMAP
3F00
7F80
6180
6000
7E00
1F80
0380
E180
7F80
3F00
0000
1800
1800
1000
1000
ENDCHAR
STARTCHAR 021A
ENCODING 538
SWIDTH 565 0
DWIDTH 11 0
BBX 11 19 0 -5
BITMAP
FFE0
FFE0
0E00
0E00
0E00
0E00
0E00
0E00
0E00
0E00
0E00
0E00
0E00
0E00
0000
0600
0600
0400
0400
ENDCHAR
STARTCHAR 021B
ENCODING 539
SWIDTH 565 0
DWIDTH 11 0
BBX 9 17 1 -5
BITMAP
1800
1800
FF80
FF80
1800
1800
1800
1800
1800
1800
1F80
0F80
0000
0C00
0C00
0800
0800
ENDCHAR
STARTCHAR 0237
ENCODING 567
SWIDTH 565 0
DWIDTH 11 0
BBX 6 14 2 -4
BITMAP
7C
7C
1C
1C
1C
1C
1C
1C
1C
1C
1C
1C
F8
F0
ENDCHAR
STARTCHAR 0259
ENCODING 601
SWIDTH 565 0
DWIDTH 11 0
BBX 10 10 1 0
BITMAP
7E00
7F00
4380
0180
FFC0
FFC0
6180
6380
7F00
3E00
ENDCHAR
STARTCHAR 02BC
ENCODING 700
SWIDTH 565 0
DWIDTH 11 0
BBX 3 5 4 9
BITMAP
60
60
60
C0
40
ENDCHAR
STARTCHAR 02C6
ENCODING 710
SWIDTH 565 0
DWIDTH 11 0
BBX 7 2 1 12
BITMAP
38
EE
ENDCHAR
STARTCHAR 02C7
ENCODING 711
SWIDTH 565 0
DWIDTH 11 0
BBX 7 2 2 12
BITMAP
E6
3C
ENDCHAR
STARTCHAR 02C9
ENCODING 713
SWIDTH 565 0
DWIDTH 11 0
BBX 6 2 3 12
BITMAP
FC
FC
ENDCHAR
STARTCHAR 02D8
ENCODING 728
SWIDTH 565 0
DWIDTH 11 0
BBX 6 2 3 11
BITMAP
CC
78
ENDCHAR
STARTCHAR 02D9
ENCODING 729
SWIDTH 565 0
DWIDTH 11 0
BBX 3 3 4 11
BITMAP
60
E0
40
ENDCHAR
STARTCHAR 02DA
ENCODING 730
SWIDTH 565 0
DWIDTH 11 0
BBX 4 3 4 10
BITMAP
E0
90
E0
ENDCHAR
STARTCHAR 02DB
ENCODING 731
SWIDTH 565 0
DWIDTH 11 0
BBX 3 5 4 -4
BITMAP
40
E0
80
E0
E0
ENDCHAR
STARTCHAR 02DC
ENCODING 732
SWIDTH 565 0
DWIDTH 11 0
BBX 7 2 1 12
BITMAP
76
DC
ENDCHAR
STARTCHAR 02DD
ENCODING 733
SWIDTH 565 0
DWIDTH 11 0
BBX 8 2 2 12
BITMAP
77
FC
ENDCHAR
STARTCHAR 02F3
ENCODING 755
SWIDTH 565 0
DWIDTH 11 0
BBX 3 2 4 -3
BITMAP
E0
E0
ENDCHAR
STARTCHAR 0300
ENCODING 768
SWIDTH 565 0
DWIDTH 11 0
BBX 3 3 -8 11
BITMAP
C0
60
20
ENDCHAR
STARTCHAR 0301
ENCODING 769
SWIDTH 565 0
DWIDTH 11 0
BBX 3 3 -6 11
BITMAP
60
C0
C0
ENDCHAR
STARTCHAR 0303
ENCODING 771
SWIDTH 565 0
DWIDTH 11 0
BBX 7 2 -9 12
BITMAP
76
DC
ENDCHAR
STARTCHAR 0309
ENCODING 777
SWIDTH 565 0
DWIDTH 11 0
BBX 4 3 -7 12
BITMAP
E0
30
E0
ENDCHAR
STARTCHAR 030F
ENCODING 783
SWIDTH 565 0
DWIDTH 11 0
BBX 8 2 -10 12
BITMAP
EE
3F
ENDCHAR
STARTCHAR 0323
ENCODING 803
SWIDTH 565 0
DWIDTH 11 0
BBX 3 2 -7 -3
BITMAP
E0
E0
ENDCHAR
STARTCHAR 0384
ENCODING 900
SWIDTH 565 0
DWIDTH 11 0
BBX 3 3 5 12
BITMAP
60
40
C0
ENDCHAR
STARTCHAR 0385
ENCODING 901
SWIDTH 565 0
DWIDTH 11 0
BBX 8 6 2 11
BITMAP
0C
0C
08
43
E7
42
ENDCHAR
STARTCHAR 0386
ENCODING 902
SWIDTH 565 0
DWIDTH 11 0
BBX 11 15 0 0
BITMAP
6000
4600
CE00
0F00
0F00
1F00
1B80
1980
3980
31C0
3FC0
3FC0
70C0
60E0
E060
ENDCHAR
STARTCHAR 0387
ENCODING 903
SWIDTH 565 0
DWIDTH 11 0
BBX 2 3 6 5
BITMAP
C0
C0
C0
ENDCHAR
STARTCHAR 0388
ENCODING 904
SWIDTH 565 0
DWIDTH 11 0
BBX 12 15 -1 0
BITMAP
6000
5FF0
DFF0
1C00
1C00
1C00
1C00
1FE0
1FE0
1C00
1C00
1C00
1C00
1FF0
1FF0
ENDCHAR
STARTCHAR 0389
ENCODING 905
SWIDTH 565 0
DWIDTH 11 0
BBX 12 15 -1 0
BITMAP
6000
5C30
DC30
1C30
1C30
1C30
1C30
1FF0
1FF0
1C30
1C30
1C30
1C30
1C30
1C30
ENDCHAR
STARTCHAR 038A
ENCODING 906
SWIDTH 565 0
DWIDTH 11 0
BBX 11 15 -1 0
BITMAP
6000
5FE0
DFE0
0700
0700
0700
0700
0700
0700
0700
0700
0700
0700
1FE0
1FE0
ENDCHAR
STARTCHAR 038C
ENCODING 908
SWIDTH 565 0
DWIDTH 11 0
BBX 12 15 -1 0
BITMAP
6000
4700
CFC0
1DE0
3860
3060
3070
3070
3070
3070
3060
3860
38E0
1FC0
0F80
ENDCHAR
STARTCHAR 038E
ENCODING 910
SWIDTH 565 0
DWIDTH 11 0
BBX 14 15 -2 0
BITMAP
6000
5C0C
CC1C
0E18
0638
0730
0370
03E0
01E0
01C0
00C0
00C0
00C0
00C0
00C0
ENDCHAR
STARTCHAR 038F
ENCODING 911
SWIDTH 565 0
DWIDTH 11 0
BBX 12 15 -1 0
BITMAP
6000
4700
CFC0
1CE0
3860
3870
3070
3070
3070
3860
3860
18E0
0CC0
3DF0
3DF0
ENDCHAR
STARTCHAR 0390
ENCODING 912
SWIDTH 565 0
DWIDTH 11 0
BBX 8 16 2 0
BITMAP
0C
0C
08
43
E7
42
F8
F8
38
38
38
38
38
38
1F
1F
ENDCHAR
STARTCHAR 0391
ENCODING 913
SWIDTH 565 0
DWIDTH 11 0
BBX 11 14 0 0
BITMAP
0600
0E00
0F00
0F00
1F00
1B80
1980
3980
31C0
3FC0
3FC0
70C0
60E0
E060
ENDCHAR
STARTCHAR 0392
ENCODING 914
SWIDTH 565 0
DWIDTH 11 0
BBX 10 14 1 0
BITMAP
F800
FF00
E780
E180
E1C0
E180
FF00
FF80
E180
E1C0
E1C0
E1C0
FF80
FF00
ENDCHAR
STARTCHAR 0393
ENCODING 915
SWIDTH 565 0
DWIDTH 11 0
BBX 9 14 1 0
BITMAP
FF80
FF80
E000
E000
E000
E000
E000
E000
E000
E000
E000
E000
E000
E000
ENDCHAR
STARTCHAR 0394
ENCODING 916
SWIDTH 565 0
DWIDTH 11 0
BBX 12 14 0 0
BITMAP
0600
0700
0F00
0F00
0F80
1D80
1980
19C0
38C0
30C0
30E0
70E0
7FE0
FFF0
ENDCHAR
STARTCHAR 0395
ENCODING 917
SWIDTH 565 0
DWIDTH 11 0
BBX 9 14 1 0
BITMAP
FF80
FF80
E000
E000
E000
E000
FF00
FF00
E000
E000
E000
E000
FF80
FF80
ENDCHAR
STARTCHAR 0396
ENCODING 918
SWIDTH 565 0
DWIDTH 11 0
BBX 10 14 1 0
BITMAP
FF80
FF80
0380
0300
0700
0E00
0C00
1C00
3800
3000
7000
6000
FFC0
FFC0
ENDCHAR
STARTCHAR 0397
ENCODING 919
SWIDTH 565 0
DWIDTH 11 0
BBX 9 14 1 0
BITMAP
E180
E180
E180
E180
E180
E180
FF80
FF80
E180
E180
E180
E180
E180
E180
ENDCHAR
STARTCHAR 0398
ENCODING 920
SWIDTH 565 0
DWIDTH 11 0
BBX 10 14 1 0
BITMAP
1C00
3F00
7380
E180
C180
C1C0
DFC0
DFC0
C1C0
C1C0
E180
6380
7F00
3E00
ENDCHAR
STARTCHAR 0399
ENCODING 921
SWIDTH 565 0
DWIDTH 11 0
BBX 8 14 2 0
BITMAP
FF
FF
38
38
38
38
38
38
38
38
38
38
FF
FF
ENDCHAR
STARTCHAR 039A
ENCODING 922
SWIDTH 565 0
DWIDTH 11 0
BBX 11 14 1 0
BITMAP
E1C0
E1C0
E380
E700
EE00
EC00
FC00
FC00
FE00
E700
E300
E380
E1C0
E1E0
ENDCHAR
STARTCHAR 039B
ENCODING 923
SWIDTH 565 0
DWIDTH 11 0
BBX 11 14 0 0
BITMAP
0E00
0E00
0F00
0F00
1B00
1B00
1B80
3980
3180
31C0
70C0
70C0
60E0
E0E0
ENDCHAR
STARTCHAR 039C
ENCODING 924
SWIDTH 565 0
DWIDTH 11 0
BBX 9 14 1 0
BITMAP
E380
E380
F380
F780
D780
DF80
DD80
DD80
CD80
C980
C180
C180
C180
C180
ENDCHAR
STARTCHAR 039D
ENCODING 925
SWIDTH 565 0
DWIDTH 11 0
BBX 9 14 1 0
BITMAP
E180
E180
F180
F180
F180
F980
F980
ED80
ED80
E780
E780
E380
E380
E380
ENDCHAR
STARTCHAR 039E
ENCODING 926
SWIDTH 565 0
DWIDTH 11 0
BBX 9 14 1 0
BITMAP
FF80
FF80
0000
0000
0000
0000
7F00
7F00
0000
0000
0000
0000
FF80
FF80
ENDCHAR
STARTCHAR 039F
ENCODING 927
SWIDTH 565 0
DWIDTH 11 0
BBX 10 14 1 0
BITMAP
1C00
3F00
7780
E180
C180
C1C0
C1C0
C1C0
C1C0
C180
E180
E380
7F00
3E00
ENDCHAR
STARTCHAR 03A0
ENCODING 928
SWIDTH 565 0
DWIDTH 11 0
BBX 9 14 1 0
BITMAP
FF80
FF80
E180
E180
E180
E180
E180
E180
E180
E180
E180
E180
E180
E180
ENDCHAR
STARTCHAR 03A1
ENCODING 929
SWIDTH 565 0
DWIDTH 11 0
BBX 10 14 1 0
BITMAP
F800
FF00
E380
E1C0
E1C0
E1C0
E180
FF80
FE00
E000
E000
E000
E000
E000
ENDCHAR
STARTCHAR 03A3
ENCODING 931
SWIDTH 565 0
DWIDTH 11 0
BBX 10 14 1 0
BITMAP
FF80
FF80
6000
7000
3800
1C00
0C00
0E00
1C00
3800
3000
7000
FFC0
FFC0
ENDCHAR
STARTCHAR 03A4
ENCODING 932
SWIDTH 565 0
DWIDTH 11 0
BBX 11 14 0 0
BITMAP
FFE0
FFE0
0E00
0E00
0E00
0E00
0E00
0E00
0E00
0E00
0E00
0E00
0E00
0E00
ENDCHAR
STARTCHAR 03A5
ENCODING 933
SWIDTH 565 0
DWIDTH 11 0
BBX 11 14 0 0
BITMAP
E060
60E0
70C0
31C0
3980
1B80
1F00
0F00
0E00
0600
0600
0600
0600
0600
ENDCHAR
STARTCHAR 03A6
ENCODING 934
SWIDTH 565 0
DWIDTH 11 0
BBX 11 14 1 0
BITMAP
0C00
0C00
1E00
7F80
FDC0
CCC0
CCC0
CCE0
CCC0
EDC0
7F80
3F00
0C00
0C00
ENDCHAR
STARTCHAR 03A7
ENCODING 935
SWIDTH 565 0
DWIDTH 11 0
BBX 11 14 0 0
BITMAP
E0E0
70E0
31C0
3980
1B80
1F00
0F00
0E00
0F00
1F80
3980
39C0
70C0
F0E0
ENDCHAR
STARTCHAR 03A8
ENCODING 936
SWIDTH 565 0
DWIDTH 11 0
BBX 10 14 1 0
BITMAP
CCC0
CCC0
CCC0
CCC0
CCC0
CCC0
CCC0
CCC0
EDC0
7F80
3F00
0C00
0C00
0C00
ENDCHAR
STARTCHAR 03A9
ENCODING 937
SWIDTH 565 0
DWIDTH 11 0
BBX 10 14 1 0
BITMAP
1C00
3F00
7380
E180
E1C0
C1C0
C1C0
C1C0
E180
E180
6380
3300
F7C0
F7C0
ENDCHAR
STARTCHAR 03AA
ENCODING 938
SWIDTH 565 0
DWIDTH 11 0
BBX 8 17 2 0
BITMAP
66
E6
00
FF
FF
38
38
38
38
38
38
38
38
38
38
FF
FF
ENDCHAR
STARTCHAR 03AB
ENCODING 939
SWIDTH 565 0
DWIDTH 11 0
BBX 11 17 0 0
BITMAP
1980
3980
0000
E060
60E0
70C0
31C0
3980
1B80
1F00
0F00
0E00
0600
0600
0600
0600
0600
ENDCHAR
STARTCHAR 03AC
ENCODING 940
SWIDTH 565 0
DWIDTH 11 0
BBX 10 15 1 0
BITMAP
0600
0400
0C00
0000
0000
3D80
7F80
E380
E380
C380
C380
E380
E380
7FC0
3DC0
ENDCHAR
STARTCHAR 03AD
ENCODING 941
SWIDTH 565 0
DWIDTH 11 0
BBX 10 15 1 0
BITMAP
0600
0400
0C00
0000
0000
3F00
7F80
E1C0
6000
3E00
7E00
E000
E1C0
7F80
3F00
ENDCHAR
STARTCHAR 03AE
ENCODING 942
SWIDTH 565 0
DWIDTH 11 0
BBX 9 19 1 -4
BITMAP
0600
0400
0C00
0000
0000
FF00
FF80
E380
E180
E180
E180
E180
E180
E180
E180
0180
0180
0180
0180
ENDCHAR
STARTCHAR 03AF
ENCODING 943
SWIDTH 565 0
DWIDTH 11 0
BBX 8 15 2 0
BITMAP
0C
08
18
00
00
F8
F8
38
38
38
38
38
38
1F
1F
ENDCHAR
STARTCHAR 03B0
ENCODING 944
SWIDTH 565 0
DWIDTH 11 0
BBX 9 16 1 0
BITMAP
0C00
0C00
0800
4300
E700
4200
E300
E380
E180
E180
E180
E180
E180
E380
7F00
3E00
ENDCHAR
STARTCHAR 03B1
ENCODING 945
SWIDTH 565 0
DWIDTH 11 0
BBX 10 10 1 0
BITMAP
3D80
7F80
E380
E380
C380
C380
E380
E380
7FC0
3DC0
ENDCHAR
STARTCHAR 03B2
ENCODING 946
SWIDTH 565 0
DWIDTH 11 0
BBX 9 18 2 -4
BITMAP
3800
7E00
E700
C300
C300
C700
DE00
DF00
C300
C380
C380
C380
FF00
FE00
C000
C000
C000
C000
ENDCHAR
STARTCHAR 03B3
ENCODING 947
SWIDTH 565 0
DWIDTH 11 0
BBX 11 14 0 -4
BITMAP
E0E0
70C0
30C0
31C0
3980
1980
1B00
0F00
0F00
0E00
0600
0600
0600
0600
ENDCHAR
STARTCHAR 03B4
ENCODING 948
SWIDTH 565 0
DWIDTH 11 0
BBX 10 15 1 0
BITMAP
0C00
3F00
7100
7000
3800
3E00
3F00
6380
E180
C1C0
C1C0
E1C0
E180
7F80
3E00
ENDCHAR
STARTCHAR 03B5
ENCODING 949
SWIDTH 565 0
DWIDTH 11 0
BBX 10 10 1 0
BITMAP
3F00
7F80
E1C0
6000
3E00
7E00
E000
E1C0
7F80
3F00
ENDCHAR
STARTCHAR 03B6
ENCODING 950
SWIDTH 565 0
DWIDTH 11 0
BBX 9 18 1 -4
BITMAP
FF80
FF80
0300
0600
0C00
1800
3000
6000
6000
E000
E000
E000
7E00
3F00
0380
0300
0700
0200
ENDCHAR
STARTCHAR 03B7
ENCODING 951
SWIDTH 565 0
DWIDTH 11 0
BBX 9 14 1 -4
BITMAP
FF00
FF80
E380
E180
E180
E180
E180
E180
E180
E180
0180
0180
0180
0180
ENDCHAR
STARTCHAR 03B8
ENCODING 952
SWIDTH 565 0
DWIDTH 11 0
BBX 8 14 2 0
BITMAP
38
7E
E6
C3
C3
C3
FF
FF
C3
C3
C3
C7
7E
7C
ENDCHAR
STARTCHAR 03B9
ENCODING 953
SWIDTH 565 0
DWIDTH 11 0
BBX 8 10 2 0
BITMAP
F8
F8
38
38
38
38
38
38
1F
1F
ENDCHAR
STARTCHAR 03BA
ENCODING 954
SWIDTH 565 0
DWIDTH 11 0
BBX 9 10 2 0
BITMAP
C780
C700
CE00
DC00
F800
FC00
EE00
CE00
C700
C380
ENDCHAR
STARTCHAR 03BB
ENCODING 955
SWIDTH 565 0
DWIDTH 11 0
BBX 11 14 0 0
BITMAP
7000
7800
1C00
0C00
0C00
1E00
1E00
1F00
3F00
3300
3380
7180
61E0
E0E0
ENDCHAR
STARTCHAR 03BC
ENCODING 956
SWIDTH 565 0
DWIDTH 11 0
BBX 8 14 2 -4
BITMAP
C3
C3
C3
C3
C3
C3
C3
C3
FF
FF
C0
C0
C0
C0
ENDCHAR
STARTCHAR 03BD
ENCODING 957
SWIDTH 565 0
DWIDTH 11 0
BBX 10 10 1 0
BITMAP
C1C0
E180
6380
6300
7300
3700
3600
1E00
1C00
1C00
ENDCHAR
STARTCHAR 03BE
ENCODING 958
SWIDTH 565 0
DWIDTH 11 0
BBX 8 18 2 -4
BITMAP
1E
7F
71
E0
E0
7E
3E
70
C0
C0
C0
E0
7E
1F
03
03
07
02
ENDCHAR
STARTCHAR 03BF
ENCODING 959
SWIDTH 565 0
DWIDTH 11 0
BBX 9 10 1 0
BITMAP
3E00
7F00
E380
E180
C180
C180
E180
E380
7F00
3E00
ENDCHAR
STARTCHAR 03C0
ENCODING 960
SWIDTH 565 0
DWIDTH 11 0
BBX 11 10 1 0
BITMAP
FFC0
FFC0
7380
7380
7380
7380
7380
7380
73C0
71E0
ENDCHAR
STARTCHAR 03C1
ENCODING 961
SWIDTH 565 0
DWIDTH 11 0
BBX 9 14 1 -4
BITMAP
3E00
7F00
6380
E180
E180
E180
E180
E380
FF80
FF00
E000
E000
E000
E000
ENDCHAR
STARTCHAR 03C2
ENCODING 962
SWIDTH 565 0
DWIDTH 11 0
BBX 9 14 1 -4
BITMAP
3E00
7F00
E380
C180
C000
C000
C000
E000
7E00
1F00
0380
0380
0700
0200
ENDCHAR
STARTCHAR 03C3
ENCODING 963
SWIDTH 565 0
DWIDTH 11 0
BBX 10 10 1 0
BITMAP
3FC0
7FC0
E300
C380
C180
C180
C380
E380
7F00
3E00
ENDCHAR
STARTCHAR 03C4
ENCODING 964
SWIDTH 565 0
DWIDTH 11 0
BBX 9 10 1 0
BITMAP
FF80
FF80
1800
1800
1800
1800
1800
1C00
1F00
0F80
ENDCHAR
STARTCHAR 03C5
ENCODING 965
SWIDTH 565 0
DWIDTH 11 0
BBX 9 10 1 0
BITMAP
E300
E380
E180
E180
E180
E180
E180
E380
7F00
3E00
ENDCHAR
STARTCHAR 03C6
ENCODING 966
SWIDTH 565 0
DWIDTH 11 0
BBX 10 14 1 -4
BITMAP
6700
7F80
EDC0
CCC0
CCC0
CCC0
CCC0
EDC0
7F80
3F00
0C00
0C00
0C00
0C00
ENDCHAR
STARTCHAR 03C7
ENCODING 967
SWIDTH 565 0
DWIDTH 11 0
BBX 10 10 1 0
BITMAP
E1C0
7380
3700
3E00
1E00
1E00
3E00
3300
7380
E1C0
ENDCHAR
STARTCHAR 03C8
ENCODING 968
SWIDTH 565 0
DWIDTH 11 0
BBX 10 14 1 -4
BITMAP
CDC0
CCC0
CCC0
CCC0
CCC0
CCC0
CCC0
EDC0
7F80
3F00
0C00
0C00
0C00
0C00
ENDCHAR
STARTCHAR 03C9
ENCODING 969
SWIDTH 565 0
DWIDTH 11 0
BBX 11 10 0 0
BITMAP
70C0
60E0
66E0
6660
E660
6660
6E60
6EE0
7FC0
3BC0
ENDCHAR
STARTCHAR 03CA
ENCODING 970
SWIDTH 565 0
DWIDTH 11 0
BBX 8 14 2 0
BITMAP
66
E6
00
00
F8
F8
38
38
38
38
38
38
1F
1F
ENDCHAR
STARTCHAR 03CB
ENCODING 971
SWIDTH 565 0
DWIDTH 11 0
BBX 9 14 1 0
BITMAP
3300
7300
0000
0000
E300
E380
E180
E180
E180
E180
E180
E380
7F00
3E00
ENDCHAR
STARTCHAR 03CC
ENCODING 972
SWIDTH 565 0
DWIDTH 11 0
BBX 9 15 1 0
BITMAP
0600
0400
0C00
0000
0000
3E00
7F00
E380
E180
C180
C180
E180
E380
7F00
3E00
ENDCHAR
STARTCHAR 03CD
ENCODING 973
SWIDTH 565 0
DWIDTH 11 0
BBX 9 15 1 0
BITMAP
0C00
0800
1800
0000
0000
E300
E380
E180
E180
E180
E180
E180
E380
7F00
3E00
ENDCHAR
STARTCHAR 03CE
ENCODING 974
SWIDTH 565 0
DWIDTH 11 0
BBX 11 15 0 0
BITMAP
0300
0200
0600
0000
0000
70C0
60E0
66E0
6660
E660
6660
6E60
6EE0
7FC0
3BC0
ENDCHAR
STARTCHAR 03D1
ENCODING 977
SWIDTH 565 0
DWIDTH 11 0
BBX 10 14 1 0
BITMAP
0600
1F00
1B80
3980
3980
1980
1D80
EFC0
E3C0
E180
E180
6380
7F00
3E00
ENDCHAR
STARTCHAR 03D2
ENCODING 978
SWIDTH 565 0
DWIDTH 11 0
BBX 11 14 1 0
BITMAP
C060
E1E0
61C0
7380
3300
3B00
1F00
1E00
0E00
0C00
0C00
0C00
0C00
0C00
ENDCHAR
STARTCHAR 03D6
ENCODING 982
SWIDTH 565 0
DWIDTH 11 0
BBX 12 10 0 0
BITMAP
FFF0
FFF0
60E0
66E0
6660
E660
E660
6E60
7FE0
39C0
ENDCHAR
STARTCHAR 0400
ENCODING 1024
SWIDTH 565 0
DWIDTH 11 0
BBX 9 17 1 0
BITMAP
3800
1800
0C00
FF80
FF80
E000
E000
E000
E000
FF00
FF00
E000
E000
E000
E000
FF80
FF80
ENDCHAR
STARTCHAR 0401
ENCODING 1025
SWIDTH 565 0
DWIDTH 11 0
BBX 9 17 1 0
BITMAP
3300
7300
0000
FF80
FF80
E000
E000
E000
E000
FF00
FF00
E000
E000
E000
E000
FF80
FF80
ENDCHAR
STARTCHAR 0402
ENCODING 1026
SWIDTH 565 0
DWIDTH 11 0
BBX 11 14 0 0
BITMAP
FFC0
FFC0
1C00
1C00
1C00
1C00
1F80
1FC0
1CE0
1CE0
1CE0
1CE0
1DC0
1D80
ENDCHAR
STARTCHAR 0403
ENCODING 1027
SWIDTH 565 0
DWIDTH 11 0
BBX 9 17 1 0
BITMAP
0700
0600
0C00
FF80
FF80
E000
E000
E000
E000
E000
E000
E000
E000
E000
E000
E000
E000
ENDCHAR
STARTCHAR 0404
ENCODING 1028
SWIDTH 565 0
DWIDTH 11 0
BBX 10 14 1 0
BITMAP
1C00
3F00
7380
E180
C1C0
C000
FE00
FE00
C000
C000
E1C0
6180
7F80
3F00
ENDCHAR
STARTCHAR 0405
ENCODING 1029
SWIDTH 565 0
DWIDTH 11 0
BBX 10 14 1 0
BITMAP
1C00
7F00
7380
E1C0
E000
7000
7C00
1F00
0780
01C0
C1C0
E1C0
7F80
3F00
ENDCHAR
STARTCHAR 0406
ENCODING 1030
SWIDTH 565 0
DWIDTH 11 0
BBX 8 14 2 0
BITMAP
FF
FF
38
38
38
38
38
38
38
38
38
38
FF
FF
ENDCHAR
STARTCHAR 0407
ENCODING 1031
SWIDTH 565 0
DWIDTH 11 0
BBX 8 17 2 0
BITMAP
66
E6
00
FF
FF
38
38
38
38
38
38
38
38
38
38
FF
FF
ENDCHAR
STARTCHAR 0408
ENCODING 1032
SWIDTH 565 0
DWIDTH 11 0
BBX 9 14 1 0
BITMAP
0180
0180
0180
0180
0180
0180
0180
0180
0180
0180
C180
E380
7F00
3E00
ENDCHAR
STARTCHAR 0409
ENCODING 1033
SWIDTH 565 0
DWIDTH 11 0
BBX 11 14 0 0
BITMAP
3E00
3E00
3600
3600
3600
3780
37C0
36E0
3660
3660
3660
66E0
E7C0
C780
ENDCHAR
STARTCHAR 040A
ENCODING 1034
SWIDTH 565 0
DWIDTH 11 0
BBX 10 14 1 0
BITMAP
CC00
CC00
CC00
CC00
CC00
CC00
FF80
FD80
CDC0
CCC0
CCC0
CD80
CF80
CF00
ENDCHAR
STARTCHAR 040B
ENCODING 1035
SWIDTH 565 0
DWIDTH 11 0
BBX 10 14 0 0
BITMAP
FFC0
FFC0
1C00
1C00
1C00
1C00
1F80
1FC0
1CC0
1CC0
1CC0
1CC0
1CC0
1CC0
ENDCHAR
STARTCHAR 040C
ENCODING 1036
SWIDTH 565 0
DWIDTH 11 0
BBX 11 17 1 0
BITMAP
0700
0600
0C00
E1C0
E1C0
E380
E700
EE00
EC00
FC00
FC00
FE00
E700
E300
E380
E1C0
E1E0
ENDCHAR
STARTCHAR 040D
ENCODING 1037
SWIDTH 565 0
DWIDTH 11 0
BBX 9 17 1 0
BITMAP
7000
3000
1800
E180
E380
E380
E780
E780
ED80
ED80
FD80
F980
F980
F180
F180
E180
E180
ENDCHAR
STARTCHAR 040E
ENCODING 1038
SWIDTH 565 0
DWIDTH 11 0
BBX 11 17 0 0
BITMAP
1980
0F00
0000
E060
60E0
70E0
30C0
39C0
1980
1B80
1F00
0F00
0E00
0600
0E00
7C00
7800
ENDCHAR
STARTCHAR 040F
ENCODING 1039
SWIDTH 565 0
DWIDTH 11 0
BBX 9 17 1 -3
BITMAP
E180
E180
E180
E180
E180
E180
E180
E180
E180
E180
E180
E180
FF80
FF80
1C00
1C00
1C00
ENDCHAR
STARTCHAR 0410
ENCODING 1040
SWIDTH 565 0
DWIDTH 11 0
BBX 11 14 0 0
BITMAP
0600
0E00
0F00
0F00
1F00
1B80
1980
3980
31C0
3FC0
3FC0
70C0
60E0
E060
ENDCHAR
STARTCHAR 0411
ENCODING 1041
SWIDTH 565 0
DWIDTH 11 0
BBX 9 14 1 0
BITMAP
FF80
FF80
E000
E000
E000
E000
FF00
FF80
E180
E180
E180
E380
FF00
FE00
ENDCHAR
STARTCHAR 0412
ENCODING 1042
SWIDTH 565 0
DWIDTH 11 0
BBX 10 14 1 0
BITMAP
F800
FF00
E780
E180
E1C0
E180
FF00
FF80
E180
E1C0
E1C0
E1C0
FF80
FF00
ENDCHAR
STARTCHAR 0413
ENCODING 1043
SWIDTH 565 0
DWIDTH 11 0
BBX 9 14 1 0
BITMAP
FF80
FF80
E000
E000
E000
E000
E000
E000
E000
E000
E000
E000
E000
E000
ENDCHAR
STARTCHAR 0414
ENCODING 1044
SWIDTH 565 0
DWIDTH 11 0
BBX 11 17 0 -3
BITMAP
1FC0
1FC0
19C0
19C0
19C0
19C0
19C0
19C0
19C0
39C0
39C0
31C0
FFE0
7FE0
60E0
60E0
60C0
ENDCHAR
STARTCHAR 0415
ENCODING 1045
SWIDTH 565 0
DWIDTH 11 0
BBX 9 14 1 0
BITMAP
FF80
FF80
E000
E000
E000
E000
FF00
FF00
E000
E000
E000
E000
FF80
FF80
ENDCHAR
STARTCHAR 0416
ENCODING 1046
SWIDTH 565 0
DWIDTH 11 0
BBX 11 14 0 0
BITMAP
E6E0
66E0
66C0
66C0
36C0
3780
3F80
3F80
3780
76C0
76C0
66C0
E6E0
E660
ENDCHAR
STARTCHAR 0417
ENCODING 1047
SWIDTH 565 0
DWIDTH 11 0
BBX 10 14 1 0
BITMAP
1C00
7F80
E380
C1C0
01C0
0180
1F00
1F00
0180
01C0
C1C0
E1C0
FF80
3F00
ENDCHAR
STARTCHAR 0418
ENCODING 1048
SWIDTH 565 0
DWIDTH 11 0
BBX 9 14 1 0
BITMAP
E180
E380
E380
E780
E780
ED80
ED80
FD80
F980
F980
F180
F180
E180
E180
ENDCHAR
STARTCHAR 0419
ENCODING 1049
SWIDTH 565 0
DWIDTH 11 0
BBX 9 17 1 0
BITMAP
3300
1E00
0000
E180
E380
E380
E780
E780
ED80
ED80
FD80
F980
F980
F180
F180
E180
E180
ENDCHAR
STARTCHAR 041A
ENCODING 1050
SWIDTH 565 0
DWIDTH 11 0
BBX 10 14 1 0
BITMAP
E1C0
E180
E380
E700
E700
EE00
FC00
FC00
EE00
E700
E700
E380
E180
E1C0
ENDCHAR
STARTCHAR 041B
ENCODING 1051
SWIDTH 565 0
DWIDTH 11 0
BBX 10 14 0 0
BITMAP
3FC0
3FC0
38C0
38C0
38C0
38C0
38C0
38C0
38C0
38C0
30C0
30C0
F0C0
E0C0
ENDCHAR
STARTCHAR 041C
ENCODING 1052
SWIDTH 565 0
DWIDTH 11 0
BBX 9 14 1 0
BITMAP
E380
E380
F380
F780
D780
DF80
DD80
DD80
CD80
C980
C180
C180
C180
C180
ENDCHAR
STARTCHAR 041D
ENCODING 1053
SWIDTH 565 0
DWIDTH 11 0
BBX 9 14 1 0
BITMAP
E180
E180
E180
E180
E180
E180
FF80
FF80
E180
E180
E180
E180
E180
E180
ENDCHAR
STARTCHAR 041E
ENCODING 1054
SWIDTH 565 0
DWIDTH 11 0
BBX 10 14 1 0
BITMAP
1C00
3F00
7780
E180
C180
C1C0
C1C0
C1C0
C1C0
C180
E180
E380
7F00
3E00
ENDCHAR
STARTCHAR 041F
ENCODING 1055
SWIDTH 565 0
DWIDTH 11 0
BBX 9 14 1 0
BITMAP
FF80
FF80
E180
E180
E180
E180
E180
E180
E180
E180
E180
E180
E180
E180
ENDCHAR
STARTCHAR 0420
ENCODING 1056
SWIDTH 565 0
DWIDTH 11 0
BBX 10 14 1 0
BITMAP
F800
FF00
E380
E1C0
E1C0
E1C0
E180
FF80
FE00
E000
E000
E000
E000
E000
ENDCHAR
STARTCHAR 0421
ENCODING 1057
SWIDTH 565 0
DWIDTH 11 0
BBX 10 14 1 0
BITMAP
1C00
3F00
7380
E180
C1C0
C000
C000
C000
C000
C000
E1C0
E180
7F80
3E00
ENDCHAR
STARTCHAR 0422
ENCODING 1058
SWIDTH 565 0
DWIDTH 11 0
BBX 11 14 0 0
BITMAP
FFE0
FFE0
0E00
0E00
0E00
0E00
0E00
0E00
0E00
0E00
0E00
0E00
0E00
0E00
ENDCHAR
STARTCHAR 0423
ENCODING 1059
SWIDTH 565 0
DWIDTH 11 0
BBX 11 14 0 0
BITMAP
E060
60E0
70E0
30C0
39C0
1980
1B80
1F00
0F00
0E00
0600
0E00
7C00
7800
ENDCHAR
STARTCHAR 0424
ENCODING 1060
SWIDTH 565 0
DWIDTH 11 0
BBX 11 14 1 0
BITMAP
0C00
0C00
1E00
7F80
FDC0
CCC0
CCC0
CCE0
CCC0
EDC0
7F80
3F00
0C00
0C00
ENDCHAR
STARTCHAR 0425
ENCODING 1061
SWIDTH 565 0
DWIDTH 11 0
BBX 11 14 0 0
BITMAP
E0E0
70E0
31C0
3980
1B80
1F00
0F00
0E00
0F00
1F80
3980
39C0
70C0
F0E0
ENDCHAR
STARTCHAR 0426
ENCODING 1062
SWIDTH 565 0
DWIDTH 11 0
BBX 11 17 1 -3
BITMAP
E380
E380
E380
E380
E380
E380
E380
E380
E380
E380
E380
E380
FFE0
FFE0
00C0
00C0
00C0
ENDCHAR
STARTCHAR 0427
ENCODING 1063
SWIDTH 565 0
DWIDTH 11 0
BBX 9 14 1 0
BITMAP
E180
E180
E180
E180
E180
6180
6180
7F80
3F80
0180
0180
0180
0180
0180
ENDCHAR
STARTCHAR 0428
ENCODING 1064
SWIDTH 565 0
DWIDTH 11 0
BBX 10 14 1 0
BITMAP
CDC0
CDC0
CDC0
CDC0
CDC0
CDC0
CDC0
CDC0
CDC0
CDC0
CDC0
CDC0
FFC0
FFC0
ENDCHAR
STARTCHAR 0429
ENCODING 1065
SWIDTH 565 0
DWIDTH 11 0
BBX 11 17 1 -3
BITMAP
CDC0
CDC0
CDC0
CDC0
CDC0
CDC0
CDC0
CDC0
CDC0
CDC0
CDC0
CDC0
FFE0
FFE0
00E0
00E0
00E0
ENDCHAR
STARTCHAR 042A
ENCODING 1066
SWIDTH 565 0
DWIDTH 11 0
BBX 11 14 0 0
BITMAP
F800
F800
1800
1800
1800
1800
1F80
1FC0
18E0
18E0
18E0
18C0
1FC0
1F80
ENDCHAR
STARTCHAR 042B
ENCODING 1067
SWIDTH 565 0
DWIDTH 11 0
BBX 10 14 1 0
BITMAP
C1C0
C1C0
C1C0
C1C0
C1C0
C1C0
F9C0
FDC0
CDC0
CDC0
CDC0
CDC0
FDC0
F9C0
ENDCHAR
STARTCHAR 042C
ENCODING 1068
SWIDTH 565 0
DWIDTH 11 0
BBX 9 14 1 0
BITMAP
E000
E000
E000
E000
E000
E000
FF00
FF80
E180
E180
E180
E380
FF00
FE00
ENDCHAR
STARTCHAR 042D
ENCODING 1069
SWIDTH 565 0
DWIDTH 11 0
BBX 10 14 0 0
BITMAP
0E00
3F80
7380
61C0
E0C0
00C0
0FC0
0FC0
00C0
80C0
61C0
61C0
7F80
3F00
ENDCHAR
STARTCHAR 042E
ENCODING 1070
SWIDTH 565 0
DWIDTH 11 0
BBX 10 14 1 0
BITMAP
C600
CF80
DD80
D980
D980
D9C0
F9C0
F9C0
D9C0
D980
D980
D980
DF80
CF00
ENDCHAR
STARTCHAR 042F
ENCODING 1071
SWIDTH 565 0
DWIDTH 11 0
BBX 10 14 0 0
BITMAP
07C0
3FC0
79C0
61C0
61C0
61C0
71C0
3FC0
1FC0
39C0
31C0
71C0
61C0
E1C0
ENDCHAR
STARTCHAR 0430
ENCODING 1072
SWIDTH 565 0
DWIDTH 11 0
BBX 9 10 1 0
BITMAP
3E00
7F00
E380
0380
3F80
7380
E380
E380
FF80
7D80
ENDCHAR
STARTCHAR 0431
ENCODING 1073
SWIDTH 565 0
DWIDTH 11 0
BBX 9 14 1 0
BITMAP
0380
1F00
3C00
6000
6000
FF00
F780
E180
E180
E180
E180
6380
7F00
3E00
ENDCHAR
STARTCHAR 0432
ENCODING 1074
SWIDTH 565 0
DWIDTH 11 0
BBX 9 10 1 0
BITMAP
FE00
FF00
E380
E380
FF00
FF00
E180
E180
FF80
FF00
ENDCHAR
STARTCHAR 0433
ENCODING 1075
SWIDTH 565 0
DWIDTH 11 0
BBX 9 10 1 0
BITMAP
FF80
FF80
E000
E000
E000
E000
E000
E000
E000
E000
ENDCHAR
STARTCHAR 0434
ENCODING 1076
SWIDTH 565 0
DWIDTH 11 0
BBX 11 13 0 -3
BITMAP
1FC0
1FC0
18C0
18C0
18C0
18C0
18C0
38C0
FFE0
FFE0
E060
E060
6060
ENDCHAR
STARTCHAR 0435
ENCODING 1077
SWIDTH 565 0
DWIDTH 11 0
BBX 9 10 1 0
BITMAP
3E00
7F80
6180
E180
FF80
FF80
E000
6100
7F80
3F00
ENDCHAR
STARTCHAR 0436
ENCODING 1078
SWIDTH 565 0
DWIDTH 11 0
BBX 11 10 0 0
BITMAP
E6E0
66C0
36C0
3780
3F80
3F80
37C0
76C0
66C0
E6E0
ENDCHAR
STARTCHAR 0437
ENCODING 1079
SWIDTH 565 0
DWIDTH 11 0
BBX 9 10 1 0
BITMAP
3F00
7F80
E180
0180
1F00
1F80
0180
E180
7F80
3F00
ENDCHAR
STARTCHAR 0438
ENCODING 1080
SWIDTH 565 0
DWIDTH 11 0
BBX 9 10 1 0
BITMAP
E380
E380
E780
EF80
ED80
F980
F980
F180
F180
E180
ENDCHAR
STARTCHAR 0439
ENCODING 1081
SWIDTH 565 0
DWIDTH 11 0
BBX 9 14 1 0
BITMAP
3300
1E00
0000
0000
E380
E380
E780
EF80
ED80
F980
F980
F180
F180
E180
ENDCHAR
STARTCHAR 043A
ENCODING 1082
SWIDTH 565 0
DWIDTH 11 0
BBX 10 10 1 0
BITMAP
E1C0
E380
E700
EE00
FC00
FE00
E700
E700
E380
E1C0
ENDCHAR
STARTCHAR 043B
ENCODING 1083
SWIDTH 565 0
DWIDTH 11 0
BBX 10 10 0 0
BITMAP
3FC0
3FC0
38C0
38C0
38C0
38C0
38C0
30C0
F0C0
E0C0
ENDCHAR
STARTCHAR 043C
ENCODING 1084
SWIDTH 565 0
DWIDTH 11 0
BBX 9 10 1 0
BITMAP
E380
E380
F380
F780
F780
D780
DD80
DD80
DD80
CD80
ENDCHAR
STARTCHAR 043D
ENCODING 1085
SWIDTH 565 0
DWIDTH 11 0
BBX 9 10 1 0
BITMAP
E180
E180
E180
E180
FF80
FF80
E180
E180
E180
E180
ENDCHAR
STARTCHAR 043E
ENCODING 1086
SWIDTH 565 0
DWIDTH 11 0
BBX 9 10 1 0
BITMAP
3E00
7F00
E380
E180
C180
C180
E180
E380
7F00
3E00
ENDCHAR
STARTCHAR 043F
ENCODING 1087
SWIDTH 565 0
DWIDTH 11 0
BBX 9 10 1 0
BITMAP
FF80
FF80
E180
E180
E180
E180
E180
E180
E180
E180
ENDCHAR
STARTCHAR 0440
ENCODING 1088
SWIDTH 565 0
DWIDTH 11 0
BBX 9 14 1 -4
BITMAP
FF00
FF00
E380
E180
E180
E180
E180
E380
FF00
FE00
E000
E000
E000
E000
ENDCHAR
STARTCHAR 0441
ENCODING 1089
SWIDTH 565 0
DWIDTH 11 0
BBX 9 10 1 0
BITMAP
3E00
7F00
6380
E180
E000
E000
E000
6380
7F00
3E00
ENDCHAR
STARTCHAR 0442
ENCODING 1090
SWIDTH 565 0
DWIDTH 11 0
BBX 10 10 1 0
BITMAP
FFC0
FFC0
0C00
0C00
0C00
0C00
0C00
0C00
0C00
0C00
ENDCHAR
STARTCHAR 0443
ENCODING 1091
SWIDTH 565 0
DWIDTH 11 0
BBX 10 14 1 -4
BITMAP
C1C0
E1C0
6180
7380
3300
3700
3E00
1E00
1E00
0C00
1C00
1800
7800
7000
ENDCHAR
STARTCHAR 0444
ENCODING 1092
SWIDTH 565 0
DWIDTH 11 0
BBX 10 18 1 -4
BITMAP
1C00
1C00
1C00
1C00
3E00
7F80
FD80
DDC0
DDC0
DDC0
DDC0
FD80
7F80
3E00
1C00
1C00
1C00
1C00
ENDCHAR
STARTCHAR 0445
ENCODING 1093
SWIDTH 565 0
DWIDTH 11 0
BBX 10 10 1 0
BITMAP
E1C0
7380
3700
3E00
1E00
1E00
3E00
3300
7380
E1C0
ENDCHAR
STARTCHAR 0446
ENCODING 1094
SWIDTH 565 0
DWIDTH 11 0
BBX 10 13 1 -3
BITMAP
E380
E380
E380
E380
E380
E380
E380
E380
FFC0
FFC0
00C0
00C0
00C0
ENDCHAR
STARTCHAR 0447
ENCODING 1095
SWIDTH 565 0
DWIDTH 11 0
BBX 9 10 1 0
BITMAP
E180
E180
E180
E180
E180
7F80
3F80
0180
0180
0180
ENDCHAR
STARTCHAR 0448
ENCODING 1096
SWIDTH 565 0
DWIDTH 11 0
BBX 10 10 1 0
BITMAP
CDC0
CDC0
CDC0
CDC0
CDC0
CDC0
CDC0
CDC0
FFC0
FFC0
ENDCHAR
STARTCHAR 0449
ENCODING 1097
SWIDTH 565 0
DWIDTH 11 0
BBX 11 13 1 -3
BITMAP
CDC0
CDC0
CDC0
CDC0
CDC0
CDC0
CDC0
CDC0
FFE0
FFC0
00C0
00C0
00C0
ENDCHAR
STARTCHAR 044A
ENCODING 1098
SWIDTH 565 0
DWIDTH 11 0
BBX 10 10 1 0
BITMAP
F000
F000
3000
3000
3F80
3FC0
31C0
31C0
3F80
3F00
ENDCHAR
STARTCHAR 044B
ENCODING 1099
SWIDTH 565 0
DWIDTH 11 0
BBX 10 10 1 0
BITMAP
C1C0
C1C0
C1C0
C1C0
F9C0
CDC0
CDC0
CDC0
FDC0
F9C0
ENDCHAR
STARTCHAR 044C
ENCODING 1100
SWIDTH 565 0
DWIDTH 11 0
BBX 10 10 1 0
BITMAP
E000
E000
E000
FC00
FF80
E380
E1C0
E180
FF80
FF00
ENDCHAR
STARTCHAR 044D
ENCODING 1101
SWIDTH 565 0
DWIDTH 11 0
BBX 9 10 1 0
BITMAP
3E00
7F00
E380
0180
0F80
0F80
C180
E380
7F00
3E00
ENDCHAR
STARTCHAR 044E
ENCODING 1102
SWIDTH 565 0
DWIDTH 11 0
BBX 10 10 1 0
BITMAP
CF00
CF80
DDC0
D8C0
F8C0
F8C0
D8C0
DDC0
CF80
CF00
ENDCHAR
STARTCHAR 044F
ENCODING 1103
SWIDTH 565 0
DWIDTH 11 0
BBX 9 10 1 0
BITMAP
3F80
7F80
E180
E180
E180
7F80
3180
7180
6180
C180
ENDCHAR
STARTCHAR 0450
ENCODING 1104
SWIDTH 565 0
DWIDTH 11 0
BBX 9 14 1 0
BITMAP
7000
3000
1800
0000
3E00
7F80
6180
E180
FF80
FF80
E000
6100
7F80
3F00
ENDCHAR
STARTCHAR 0451
ENCODING 1105
SWIDTH 565 0
DWIDTH 11 0
BBX 9 14 1 0
BITMAP
3300
7300
0000
0000
3E00
7F80
6180
E180
FF80
FF80
E000
6100
7F80
3F00
ENDCHAR
STARTCHAR 0452
ENCODING 1106
SWIDTH 565 0
DWIDTH 11 0
BBX 10 18 0 -4
BITMAP
7000
FC00
FC00
7000
7F80
7FC0
71C0
70C0
70C0
70C0
70C0
70C0
70C0
70C0
00C0
00C0
03C0
0380
ENDCHAR
STARTCHAR 0453
ENCODING 1107
SWIDTH 565 0
DWIDTH 11 0
BBX 9 14 1 0
BITMAP
0700
0600
0C00
0000
FF80
FF80
E000
E000
E000
E000
E000
E000
E000
E000
ENDCHAR
STARTCHAR 0454
ENCODING 1108
SWIDTH 565 0
DWIDTH 11 0
BBX 9 10 1 0
BITMAP
3E00
7F00
E380
E180
FC00
FC00
E000
6380
7F00
3E00
ENDCHAR
STARTCHAR 0455
ENCODING 1109
SWIDTH 565 0
DWIDTH 11 0
BBX 9 10 1 0
BITMAP
3F00
7F80
6180
6000
7E00
1F80
0380
E180
7F80
3F00
ENDCHAR
STARTCHAR 0456
ENCODING 1110
SWIDTH 565 0
DWIDTH 11 0
BBX 8 14 2 0
BITMAP
18
18
10
00
F8
F8
18
18
18
18
18
18
FF
FF
ENDCHAR
STARTCHAR 0457
ENCODING 1111
SWIDTH 565 0
DWIDTH 11 0
BBX 8 14 2 0
BITMAP
66
E6
00
00
F8
F8
18
18
18
18
18
18
FF
FF
ENDCHAR
STARTCHAR 0458
ENCODING 1112
SWIDTH 565 0
DWIDTH 11 0
BBX 6 18 2 -4
BITMAP
0C
1C
08
00
7C
7C
0C
0C
0C
0C
0C
0C
0C
0C
0C
1C
F8
F0
ENDCHAR
STARTCHAR 0459
ENCODING 1113
SWIDTH 565 0
DWIDTH 11 0
BBX 11 10 0 0
BITMAP
3F00
3F00
3700
3780
37E0
37E0
3760
7760
E7E0
C7C0
ENDCHAR
STARTCHAR 045A
ENCODING 1114
SWIDTH 565 0
DWIDTH 11 0
BBX 10 10 1 0
BITMAP
CC00
CC00
CC00
CF00
FF80
FDC0
CCC0
CDC0
CF80
CF00
ENDCHAR
STARTCHAR 045B
ENCODING 1115
SWIDTH 565 0
DWIDTH 11 0
BBX 10 14 0 0
BITMAP
7000
FC00
FC00
7000
7780
7FC0
71C0
70C0
70C0
70C0
70C0
70C0
70C0
70C0
ENDCHAR
STARTCHAR 045C
ENCODING 1116
SWIDTH 565 0
DWIDTH 11 0
BBX 10 14 1 0
BITMAP
0700
0600
0C00
0000
E1C0
E380
E700
EE00
FC00
FE00
E700
E700
E380
E1C0
ENDCHAR
STARTCHAR 045D
ENCODING 1117
SWIDTH 565 0
DWIDTH 11 0
BBX 9 14 1 0
BITMAP
7000
3000
1800
0000
E380
E380
E780
EF80
ED80
F980
F980
F180
F180
E180
ENDCHAR
STARTCHAR 045E
ENCODING 1118
SWIDTH 565 0
DWIDTH 11 0
BBX 10 18 1 -4
BITMAP
3300
1E00
0000
0000
C1C0
E1C0
6180
7380
3300
3700
3E00
1E00
1E00
0C00
1C00
1800
7800
7000
ENDCHAR
STARTCHAR 045F
ENCODING 1119
SWIDTH 565 0
DWIDTH 11 0
BBX 9 13 1 -3
BITMAP
E180
E180
E180
E180
E180
E180
E180
E180
FF80
FF80
1C00
1C00
1C00
ENDCHAR
STARTCHAR 0460
ENCODING 1120
SWIDTH 565 0
DWIDTH 11 0
BBX 10 14 1 0
BITMAP
CCC0
CCC0
CCC0
CCC0
CCC0
CCC0
CCC0
CCC0
CCC0
CCC0
CCC0
CCC0
FFC0
7780
ENDCHAR
STARTCHAR 0461
ENCODING 1121
SWIDTH 565 0
DWIDTH 11 0
BBX 10 10 1 0
BITMAP
CCC0
CCC0
CCC0
CCC0
CCC0
CCC0
CCC0
CDC0
FF80
7780
ENDCHAR
STARTCHAR 0462
ENCODING 1122
SWIDTH 565 0
DWIDTH 11 0
BBX 10 14 0 0
BITMAP
7000
7000
FC00
FC00
7000
7000
7F80
7FC0
70C0
70C0
70C0
71C0
7F80
7F00
ENDCHAR
STARTCHAR 0463
ENCODING 1123
SWIDTH 565 0
DWIDTH 11 0
BBX 11 14 0 0
BITMAP
3000
3000
FE00
FE00
3000
3000
3000
3000
3FC0
31C0
30E0
30C0
3FC0
3F80
ENDCHAR
STARTCHAR 0464
ENCODING 1124
SWIDTH 565 0
DWIDTH 11 0
BBX 10 14 1 0
BITMAP
C700
CF80
CDC0
DCC0
D8C0
D800
FE00
FE00
D800
D800
D8C0
DDC0
CF80
C780
ENDCHAR
STARTCHAR 0465
ENCODING 1125
SWIDTH 565 0
DWIDTH 11 0
BBX 10 10 1 0
BITMAP
C780
CFC0
DCC0
DC00
FE00
FE00
DC00
DCC0
CFC0
C780
ENDCHAR
STARTCHAR 0466
ENCODING 1126
SWIDTH 565 0
DWIDTH 11 0
BBX 12 14 0 0
BITMAP
0600
0F00
0F00
0F00
1F80
1980
1980
39C0
3FC0
3FC0
76E0
66E0
6660
E670
ENDCHAR
STARTCHAR 0467
ENCODING 1127
SWIDTH 565 0
DWIDTH 11 0
BBX 10 10 1 0
BITMAP
0C00
1E00
1E00
3E00
3300
3300
7F80
6D80
ED80
CDC0
ENDCHAR
STARTCHAR 0468
ENCODING 1128
SWIDTH 565 0
DWIDTH 11 0
BBX 10 14 1 0
BITMAP
C600
C700
C700
C700
CF00
CD00
CD80
CD80
FF80
FF80
DAC0
DAC0
DAC0
F2C0
ENDCHAR
STARTCHAR 0469
ENCODING 1129
SWIDTH 565 0
DWIDTH 11 0
BBX 10 10 1 0
BITMAP
C600
C700
C700
CD00
CD80
CD80
FF80
FFC0
DAC0
F2C0
ENDCHAR
STARTCHAR 046A
ENCODING 1130
SWIDTH 565 0
DWIDTH 11 0
BBX 10 14 1 0
BITMAP
FFC0
FF80
6380
7300
3700
3E00
1E00
FF80
FFC0
CCC0
CCC0
CCC0
CCC0
CCC0
ENDCHAR
STARTCHAR 046B
ENCODING 1131
SWIDTH 565 0
DWIDTH 11 0
BBX 10 10 1 0
BITMAP
FF80
7F80
7300
3600
3E00
FF80
DD80
DDC0
DDC0
DDC0
ENDCHAR
STARTCHAR 046C
ENCODING 1132
SWIDTH 565 0
DWIDTH 11 0
BBX 10 14 1 0
BITMAP
DFC0
DFC0
DD80
CD80
CD80
CF00
C700
FFC0
DEC0
F6C0
F6C0
F6C0
F6C0
F6C0
ENDCHAR
STARTCHAR 046D
ENCODING 1133
SWIDTH 565 0
DWIDTH 11 0
BBX 10 10 1 0
BITMAP
DFC0
CD80
CD80
CD00
FF00
FFC0
DEC0
DEC0
D6C0
D6C0
ENDCHAR
STARTCHAR 046E
ENCODING 1134
SWIDTH 565 0
DWIDTH 11 0
BBX 9 22 1 -4
BITMAP
6600
3C00
1800
0000
7000
7E00
0F00
0380
0380
0300
3E00
3E00
0300
0380
0180
0380
3F00
7E00
E000
6000
7000
3000
ENDCHAR
STARTCHAR 046F
ENCODING 1135
SWIDTH 565 0
DWIDTH 11 0
BBX 8 18 2 -4
BITMAP
EE
38
00
00
FC
FE
06
06
3E
3E
07
07
3E
FC
C0
C0
E0
60
ENDCHAR
STARTCHAR 0470
ENCODING 1136
SWIDTH 565 0
DWIDTH 11 0
BBX 10 14 1 0
BITMAP
CCC0
CCC0
CCC0
CCC0
CCC0
CCC0
CCC0
CCC0
EDC0
7F80
3F00
0C00
0C00
0C00
ENDCHAR
STARTCHAR 0471
ENCODING 1137
SWIDTH 565 0
DWIDTH 11 0
BBX 10 14 1 -4
BITMAP
CDC0
CCC0
CCC0
CCC0
CCC0
CCC0
CCC0
EDC0
7F80
3F00
0C00
0C00
0C00
0C00
ENDCHAR
STARTCHAR 0472
ENCODING 1138
SWIDTH 565 0
DWIDTH 11 0
BBX 10 14 1 0
BITMAP
1C00
7F00
7780
E180
C180
C1C0
FFC0
FFC0
C1C0
C180
E180
E380
7F00
3E00
ENDCHAR
STARTCHAR 0473
ENCODING 1139
SWIDTH 565 0
DWIDTH 11 0
BBX 9 10 1 0
BITMAP
3E00
7F00
E380
C180
FF80
FF80
C180
E380
7F00
3E00
ENDCHAR
STARTCHAR 0474
ENCODING 1140
SWIDTH 565 0
DWIDTH 11 0
BBX 12 14 0 0
BITMAP
E030
E070
6060
70C0
30C0
30C0
39C0
1980
1980
1B80
0F00
0F00
0F00
0600
ENDCHAR
STARTCHAR 0475
ENCODING 1141
SWIDTH 565 0
DWIDTH 11 0
BBX 10 10 1 0
BITMAP
C1C0
E380
E300
6700
6600
3600
3E00
3C00
1C00
1C00
ENDCHAR
STARTCHAR 0476
ENCODING 1142
SWIDTH 565 0
DWIDTH 11 0
BBX 12 17 0 0
BITMAP
EE00
3700
0800
E030
E070
6060
70C0
30C0
30C0
39C0
1980
1980
1B80
0F00
0F00
0F00
0600
ENDCHAR
STARTCHAR 0477
ENCODING 1143
SWIDTH 565 0
DWIDTH 11 0
BBX 11 15 0 0
BITMAP
EE00
3700
0800
0000
0000
60E0
71C0
7180
3380
3300
1B00
1F00
1E00
0E00
0E00
ENDCHAR
STARTCHAR 0478
ENCODING 1144
SWIDTH 565 0
DWIDTH 11 0
BBX 10 18 1 -4
BITMAP
6000
F000
D800
9800
9A40
9AC0
9AC0
9BC0
9B80
9B80
9B80
9980
D980
7100
0100
0100
0700
0600
ENDCHAR
STARTCHAR 0479
ENCODING 1145
SWIDTH 565 0
DWIDTH 11 0
BBX 11 14 0 -4
BITMAP
3920
6D60
4560
47E0
C7C0
C7C0
47C0
44C0
6CC0
3880
0080
0080
0380
0300
ENDCHAR
STARTCHAR 047A
ENCODING 1146
SWIDTH 565 0
DWIDTH 11 0
BBX 10 16 1 -1
BITMAP
0C00
1C00
3F00
7F80
E180
C180
C1C0
C1C0
C1C0
C1C0
C180
E180
EF80
7F00
3E00
0C00
ENDCHAR
STARTCHAR 047B
ENCODING 1147
SWIDTH 565 0
DWIDTH 11 0
BBX 9 12 1 -1
BITMAP
0C00
3E00
7F00
EF80
E180
C180
C180
E180
EB80
7F00
3E00
0800
ENDCHAR
STARTCHAR 047C
ENCODING 1148
SWIDTH 565 0
DWIDTH 11 0
BBX 12 17 0 0
BITMAP
0E00
19C0
0200
0B00
34E0
70E0
6070
E070
E070
E670
E670
E670
E670
E670
6670
7FE0
3FC0
ENDCHAR
STARTCHAR 047D
ENCODING 1149
SWIDTH 565 0
DWIDTH 11 0
BBX 10 14 1 0
BITMAP
1C00
2700
0C00
0C00
6B80
E180
C0C0
C0C0
C0C0
CCC0
CCC0
CCC0
FFC0
7780
ENDCHAR
STARTCHAR 047E
ENCODING 1150
SWIDTH 565 0
DWIDTH 11 0
BBX 10 17 1 0
BITMAP
7F00
0C00
0C00
CCC0
CCC0
CCC0
CCC0
CCC0
CCC0
CCC0
CCC0
CCC0
CCC0
CCC0
CCC0
FFC0
7F80
ENDCHAR
STARTCHAR 047F
ENCODING 1151
SWIDTH 565 0
DWIDTH 11 0
BBX 10 14 1 0
BITMAP
7F00
7F00
0C00
0000
CCC0
CCC0
CCC0
CCC0
CCC0
CCC0
CCC0
CDC0
FF80
7780
ENDCHAR
STARTCHAR 0480
ENCODING 1152
SWIDTH 565 0
DWIDTH 11 0
BBX 9 17 1 -3
BITMAP
1C00
3F00
7380
6180
E180
E000
E000
E000
E000
E000
E000
7000
3E00
1E00
0E00
0E00
0E00
ENDCHAR
STARTCHAR 0481
ENCODING 1153
SWIDTH 565 0
DWIDTH 11 0
BBX 8 13 2 -3
BITMAP
3E
7F
E3
C3
C0
C0
C0
E0
7C
3C
1C
1C
1C
ENDCHAR
STARTCHAR 0482
ENCODING 1154
SWIDTH 565 0
DWIDTH 11 0
BBX 10 12 1 0
BITMAP
0180
1100
1F00
0600
0780
0CC0
C800
7800
1C00
3600
6200
6000
ENDCHAR
STARTCHAR 0483
ENCODING 1155
SWIDTH 565 0
DWIDTH 11 0
BBX 7 3 -5 11
BITMAP
06
FE
C0
ENDCHAR
STARTCHAR 0484
ENCODING 1156
SWIDTH 565 0
DWIDTH 11 0
BBX 7 2 -5 12
BITMAP
3E
C2
ENDCHAR
STARTCHAR 0485
ENCODING 1157
SWIDTH 565 0
DWIDTH 11 0
BBX 2 3 -3 12
BITMAP
C0
C0
40
ENDCHAR
STARTCHAR 0486
ENCODING 1158
SWIDTH 565 0
DWIDTH 11 0
BBX 2 3 -3 12
BITMAP
40
C0
80
ENDCHAR
STARTCHAR 0488
ENCODING 1160
SWIDTH 565 0
DWIDTH 11 0
BBX 18 17 -3 -3
BITMAP
008000
016000
000000
380600
480900
000000
000000
000000
E003C0
100000
000000
000000
100000
680F00
000000
00C000
012000
ENDCHAR
STARTCHAR 0489
ENCODING 1161
SWIDTH 565 0
DWIDTH 11 0
BBX 17 18 -3 -4
BITMAP
004000
00C000
108000
108300
180C00
080800
000000
000000
C00300
200380
000000
000000
000400
0C0C00
304400
008200
008000
008000
ENDCHAR
STARTCHAR 048A
ENCODING 1162
SWIDTH 565 0
DWIDTH 11 0
BBX 11 21 1 -4
BITMAP
3300
1E00
0000
E180
E380
E380
E780
E780
ED80
ED80
FD80
F980
F980
F180
F180
E1E0
E1E0
0060
0060
00E0
0040
ENDCHAR
STARTCHAR 048B
ENCODING 1163
SWIDTH 565 0
DWIDTH 11 0
BBX 11 18 1 -4
BITMAP
3300
1E00
0000
0000
E380
E380
E780
EF80
ED80
F980
F980
F180
F1E0
E1E0
0060
0060
00E0
0040
ENDCHAR
STARTCHAR 048C
ENCODING 1164
SWIDTH 565 0
DWIDTH 11 0
BBX 10 14 0 0
BITMAP
7000
7000
FC00
FC00
7000
7000
7F80
7FC0
70C0
70C0
70C0
71C0
7F80
7F00
ENDCHAR
STARTCHAR 048D
ENCODING 1165
SWIDTH 565 0
DWIDTH 11 0
BBX 11 10 0 0
BITMAP
7000
FE00
FE00
7E00
7FC0
71C0
70E0
70C0
7FC0
7F80
ENDCHAR
STARTCHAR 048E
ENCODING 1166
SWIDTH 565 0
DWIDTH 11 0
BBX 10 14 1 0
BITMAP
F800
FF00
E380
E1C0
E1C0
EDC0
E780
FF80
FF00
E180
E080
E000
E000
E000
ENDCHAR
STARTCHAR 048F
ENCODING 1167
SWIDTH 565 0
DWIDTH 11 0
BBX 9 14 1 -4
BITMAP
FF00
FF00
E380
E180
E180
E180
ED80
E780
FF00
FF80
E080
E000
E000
E000
ENDCHAR
STARTCHAR 0490
ENCODING 1168
SWIDTH 565 0
DWIDTH 11 0
BBX 9 17 1 0
BITMAP
0180
0180
0180
FF80
FF80
E000
E000
E000
E000
E000
E000
E000
E000
E000
E000
E000
E000
ENDCHAR
STARTCHAR 0491
ENCODING 1169
SWIDTH 565 0
DWIDTH 11 0
BBX 9 13 1 0
BITMAP
0180
0180
0180
FF80
FF80
E000
E000
E000
E000
E000
E000
E000
E000
ENDCHAR
STARTCHAR 0492
ENCODING 1170
SWIDTH 565 0
DWIDTH 11 0
BBX 10 14 0 0
BITMAP
7FC0
7FC0
7000
7000
7000
7000
FC00
FC00
7000
7000
7000
7000
7000
7000
ENDCHAR
STARTCHAR 0493
ENCODING 1171
SWIDTH 565 0
DWIDTH 11 0
BBX 10 10 0 0
BITMAP
7FC0
7FC0
7000
7000
FC00
FC00
7000
7000
7000
7000
ENDCHAR
STARTCHAR 0494
ENCODING 1172
SWIDTH 565 0
DWIDTH 11 0
BBX 10 17 1 -3
BITMAP
FF80
FF80
E000
E000
E000
E000
FC00
FF00
E380
E1C0
E1C0
E1C0
E0C0
E1C0
0180
0780
0700
ENDCHAR
STARTCHAR 0495
ENCODING 1173
SWIDTH 565 0
DWIDTH 11 0
BBX 10 13 1 -3
BITMAP
FF80
FF80
E000
E000
FE00
FF80
E380
E1C0
E1C0
E180
0380
0700
0200
ENDCHAR
STARTCHAR 0496
ENCODING 1174
SWIDTH 565 0
DWIDTH 11 0
BBX 12 17 0 -3
BITMAP
E6E0
66E0
66C0
66C0
36C0
3780
3F80
3F80
3780
76C0
76C0
66C0
E6F0
E670
0030
0030
0030
ENDCHAR
STARTCHAR 0497
ENCODING 1175
SWIDTH 565 0
DWIDTH 11 0
BBX 12 13 0 -3
BITMAP
E6E0
66C0
36C0
3780
3F80
3F80
37C0
76C0
66F0
E6F0
0030
0030
0030
ENDCHAR
STARTCHAR 0498
ENCODING 1176
SWIDTH 565 0
DWIDTH 11 0
BBX 10 18 1 -4
BITMAP
1C00
7F80
E380
C1C0
01C0
0180
1F00
1F00
0180
01C0
C1C0
E1C0
FF80
3F00
0C00
0C00
0C00
0C00
ENDCHAR
STARTCHAR 0499
ENCODING 1177
SWIDTH 565 0
DWIDTH 11 0
BBX 9 14 1 -4
BITMAP
3F00
7F80
E180
0180
1F00
1F80
0180
E180
7F80
3F00
0C00
0C00
0C00
0C00
ENDCHAR
STARTCHAR 049A
ENCODING 1178
SWIDTH 565 0
DWIDTH 11 0
BBX 11 17 1 -3
BITMAP
E1C0
E180
E380
E700
E700
EE00
FC00
FC00
EE00
E700
E700
E380
E1E0
E1E0
0060
0060
0060
ENDCHAR
STARTCHAR 049B
ENCODING 1179
SWIDTH 565 0
DWIDTH 11 0
BBX 11 13 1 -3
BITMAP
E1C0
E380
E700
EE00
FC00
FE00
E700
E700
E3E0
E1E0
0060
0060
0060
ENDCHAR
STARTCHAR 049C
ENCODING 1180
SWIDTH 565 0
DWIDTH 11 0
BBX 11 14 1 0
BITMAP
E0E0
E1C0
E1C0
E380
EB80
EB00
FF00
FF00
EF00
EB80
E380
E1C0
E1C0
E0E0
ENDCHAR
STARTCHAR 049D
ENCODING 1181
SWIDTH 565 0
DWIDTH 11 0
BBX 10 10 1 0
BITMAP
E1C0
E380
FB00
FF00
FE00
FF00
FF00
FB80
E380
E1C0
ENDCHAR
STARTCHAR 049E
ENCODING 1182
SWIDTH 565 0
DWIDTH 11 0
BBX 11 14 0 0
BITMAP
30E0
30E0
FDC0
3180
3380
3700
3E00
3E00
3700
3380
3380
31C0
30C0
30E0
ENDCHAR
STARTCHAR 049F
ENCODING 1183
SWIDTH 565 0
DWIDTH 11 0
BBX 11 14 0 0
BITMAP
7000
FC00
FC00
7020
71C0
7380
7700
7E00
7E00
7F00
7300
7380
71C0
70E0
ENDCHAR
STARTCHAR 04A0
ENCODING 1184
SWIDTH 565 0
DWIDTH 11 0
BBX 11 14 0 0
BITMAP
FCE0
FCE0
FDC0
1DC0
1D80
1F80
1F00
1F00
1F80
1D80
1DC0
1DC0
1CE0
1CE0
ENDCHAR
STARTCHAR 04A1
ENCODING 1185
SWIDTH 565 0
DWIDTH 11 0
BBX 11 10 0 0
BITMAP
FCE0
FDC0
1DC0
1D80
1F00
1F80
1D80
1DC0
1DC0
1CE0
ENDCHAR
STARTCHAR 04A2
ENCODING 1186
SWIDTH 565 0
DWIDTH 11 0
BBX 11 17 1 -3
BITMAP
E180
E180
E180
E180
E180
E180
FF80
FF80
E180
E180
E180
E180
E1E0
E1E0
0060
0060
0060
ENDCHAR
STARTCHAR 04A3
ENCODING 1187
SWIDTH 565 0
DWIDTH 11 0
BBX 11 13 1 -3
BITMAP
E180
E180
E180
E180
FF80
FF80
E180
E180
E1E0
E1E0
0060
0060
0060
ENDCHAR
STARTCHAR 04A4
ENCODING 1188
SWIDTH 565 0
DWIDTH 11 0
BBX 10 14 1 0
BITMAP
C7C0
C7C0
C7C0
C600
C600
C600
FE00
FE00
C600
C600
C600
C600
C600
C600
ENDCHAR
STARTCHAR 04A5
ENCODING 1189
SWIDTH 565 0
DWIDTH 11 0
BBX 10 10 1 0
BITMAP
C7C0
C7C0
C600
C600
FE00
FE00
C600
C600
C600
C600
ENDCHAR
STARTCHAR 04A6
ENCODING 1190
SWIDTH 565 0
DWIDTH 11 0
BBX 10 17 1 -3
BITMAP
FC00
FC00
FC00
CC00
CC00
CC00
CE00
CF80
CD80
CDC0
CDC0
CCC0
CCC0
CDC0
01C0
0380
0300
ENDCHAR
STARTCHAR 04A7
ENCODING 1191
SWIDTH 565 0
DWIDTH 11 0
BBX 10 13 1 -3
BITMAP
FC00
FC00
CC00
CC00
CF00
CF80
CDC0
CDC0
CDC0
CDC0
0180
0380
0100
ENDCHAR
STARTCHAR 04A8
ENCODING 1192
SWIDTH 565 0
DWIDTH 11 0
BBX 10 14 1 0
BITMAP
2300
6780
ED80
EDC0
CDC0
CDC0
CDC0
CDC0
CDC0
CDC0
EF80
6780
7FC0
3FC0
ENDCHAR
STARTCHAR 04A9
ENCODING 1193
SWIDTH 565 0
DWIDTH 11 0
BBX 10 10 1 0
BITMAP
6780
EF80
EDC0
CCC0
CCC0
CCC0
CDC0
EFC0
7F80
3FC0
ENDCHAR
STARTCHAR 04AA
ENCODING 1194
SWIDTH 565 0
DWIDTH 11 0
BBX 10 18 1 -4
BITMAP
1C00
3F00
7380
E180
C1C0
C000
C000
C000
C000
C000
E1C0
E180
7F80
3E00
0C00
0C00
0C00
0C00
ENDCHAR
STARTCHAR 04AB
ENCODING 1195
SWIDTH 565 0
DWIDTH 11 0
BBX 9 14 1 -4
BITMAP
3E00
7F00
6380
E180
E000
E000
E000
6380
7F00
3E00
0C00
0C00
0C00
0C00
ENDCHAR
STARTCHAR 04AC
ENCODING 1196
SWIDTH 565 0
DWIDTH 11 0
BBX 11 17 0 -3
BITMAP
FFE0
FFE0
0E00
0E00
0E00
0E00
0E00
0E00
0E00
0E00
0E00
0E00
0F00
0F00
0300
0300
0300
ENDCHAR
STARTCHAR 04AD
ENCODING 1197
SWIDTH 565 0
DWIDTH 11 0
BBX 10 13 1 -3
BITMAP
FFC0
FFC0
0C00
0C00
0C00
0C00
0C00
0C00
0F00
0F00
0300
0300
0300
ENDCHAR
STARTCHAR 04AE
ENCODING 1198
SWIDTH 565 0
DWIDTH 11 0
BBX 11 14 0 0
BITMAP
E060
60E0
70C0
31C0
3980
1B80
1F00
0F00
0E00
0600
0600
0600
0600
0600
ENDCHAR
STARTCHAR 04AF
ENCODING 1199
SWIDTH 565 0
DWIDTH 11 0
BBX 11 14 0 -4
BITMAP
E0E0
70C0
30C0
31C0
3980
1980
1B00
0F00
0F00
0E00
0600
0600
0600
0600
ENDCHAR
STARTCHAR 04B0
ENCODING 1200
SWIDTH 565 0
DWIDTH 11 0
BBX 11 14 0 0
BITMAP
E060
60E0
70C0
31C0
3980
1B80
1F00
0F00
1F80
0600
0600
0600
0600
0600
ENDCHAR
STARTCHAR 04B1
ENCODING 1201
SWIDTH 565 0
DWIDTH 11 0
BBX 11 14 0 -4
BITMAP
E0E0
70C0
30C0
31C0
3980
1980
1B00
0F00
1F80
1F80
0600
0600
0600
0600
ENDCHAR
STARTCHAR 04B2
ENCODING 1202
SWIDTH 565 0
DWIDTH 11 0
BBX 12 17 0 -3
BITMAP
E0E0
70E0
31C0
3980
1B80
1F00
0F00
0E00
0F00
1F80
3980
39C0
70F0
F0F0
0030
0030
0030
ENDCHAR
STARTCHAR 04B3
ENCODING 1203
SWIDTH 565 0
DWIDTH 11 0
BBX 10 13 1 -3
BITMAP
E1C0
7380
3700
3E00
1E00
1E00
3E00
3300
73C0
E1C0
00C0
00C0
00C0
ENDCHAR
STARTCHAR 04B4
ENCODING 1204
SWIDTH 565 0
DWIDTH 11 0
BBX 12 17 0 -3
BITMAP
FEC0
FEC0
FEC0
38C0
38C0
38C0
38C0
38C0
38C0
38C0
38C0
38C0
3FF0
3FF0
0070
0070
0060
ENDCHAR
STARTCHAR 04B5
ENCODING 1205
SWIDTH 565 0
DWIDTH 11 0
BBX 11 13 0 -3
BITMAP
FDC0
FDC0
39C0
39C0
39C0
39C0
39C0
39C0
3FE0
3FE0
0060
0060
0060
ENDCHAR
STARTCHAR 04B6
ENCODING 1206
SWIDTH 565 0
DWIDTH 11 0
BBX 11 17 1 -3
BITMAP
E180
E180
E180
E180
E180
6180
6180
7F80
3F80
0180
0180
0180
01E0
01E0
0060
0060
0060
ENDCHAR
STARTCHAR 04B7
ENCODING 1207
SWIDTH 565 0
DWIDTH 11 0
BBX 11 13 1 -3
BITMAP
E180
E180
E180
E180
E180
7F80
3F80
0180
01E0
01E0
0060
0060
0060
ENDCHAR
STARTCHAR 04B8
ENCODING 1208
SWIDTH 565 0
DWIDTH 11 0
BBX 9 14 1 0
BITMAP
E180
E180
E180
E180
E980
E980
6980
7F80
3F80
0980
0980
0180
0180
0180
ENDCHAR
STARTCHAR 04B9
ENCODING 1209
SWIDTH 565 0
DWIDTH 11 0
BBX 9 10 1 0
BITMAP
E180
E180
E180
E980
E980
7F80
3F80
0980
0180
0180
ENDCHAR
STARTCHAR 04BA
ENCODING 1210
SWIDTH 565 0
DWIDTH 11 0
BBX 9 14 1 0
BITMAP
E000
E000
E000
E000
E000
EC00
FF00
FF80
E180
E180
E180
E180
E180
E180
ENDCHAR
STARTCHAR 04BB
ENCODING 1211
SWIDTH 565 0
DWIDTH 11 0
BBX 9 14 1 0
BITMAP
E000
E000
E000
E000
EF00
FF80
E380
E180
E180
E180
E180
E180
E180
E180
ENDCHAR
STARTCHAR 04BC
ENCODING 1212
SWIDTH 565 0
DWIDTH 11 0
BBX 11 14 0 0
BITMAP
0700
0F80
1FC0
18C0
F8E0
F8E0
FFE0
7FE0
3800
3800
3800
1C40
1FC0
0FC0
ENDCHAR
STARTCHAR 04BD
ENCODING 1213
SWIDTH 565 0
DWIDTH 11 0
BBX 11 10 0 0
BITMAP
0780
0FC0
DCE0
D8E0
7FE0
3FE0
1800
1C40
0FE0
07C0
ENDCHAR
STARTCHAR 04BE
ENCODING 1214
SWIDTH 565 0
DWIDTH 11 0
BBX 11 18 0 -4
BITMAP
0700
0F80
1FC0
18C0
F8E0
F8E0
FFE0
7FE0
3800
3800
3800
1C40
1FC0
0FC0
0300
0300
0300
0300
ENDCHAR
STARTCHAR 04BF
ENCODING 1215
SWIDTH 565 0
DWIDTH 11 0
BBX 11 14 0 -4
BITMAP
0780
0FC0
DCE0
D8E0
7FE0
3FE0
1800
1C40
0FE0
07C0
0300
0300
0300
0300
ENDCHAR
STARTCHAR 04C0
ENCODING 1216
SWIDTH 565 0
DWIDTH 11 0
BBX 8 14 2 0
BITMAP
FF
FF
38
38
38
38
38
38
38
38
38
38
FF
FF
ENDCHAR
STARTCHAR 04C1
ENCODING 1217
SWIDTH 565 0
DWIDTH 11 0
BBX 11 17 0 0
BITMAP
1980
0F00
0000
E6E0
66E0
66C0
66C0
36C0
3780
3F80
3F80
3780
76C0
76C0
66C0
E6E0
E660
ENDCHAR
STARTCHAR 04C2
ENCODING 1218
SWIDTH 565 0
DWIDTH 11 0
BBX 11 14 0 0
BITMAP
1980
0F00
0000
0000
E6E0
66C0
36C0
3780
3F80
3F80
37C0
76C0
66C0
E6E0
ENDCHAR
STARTCHAR 04C3
ENCODING 1219
SWIDTH 565 0
DWIDTH 11 0
BBX 9 17 2 -3
BITMAP
C380
C700
C700
CE00
CC00
DC00
FC00
FF00
C700
C380
C180
C180
C180
C180
0380
0F00
0E00
ENDCHAR
STARTCHAR 04C4
ENCODING 1220
SWIDTH 565 0
DWIDTH 11 0
BBX 10 13 1 -3
BITMAP
E3C0
E300
E700
EE00
FE00
FF00
E380
E180
E180
E180
0380
0700
0200
ENDCHAR
STARTCHAR 04C5
ENCODING 1221
SWIDTH 565 0
DWIDTH 11 0
BBX 12 18 0 -4
BITMAP
3FC0
3FC0
38C0
38C0
38C0
38C0
38C0
38C0
38C0
38C0
30C0
30C0
F0F0
E0F0
0030
0030
0070
0020
ENDCHAR
STARTCHAR 04C6
ENCODING 1222
SWIDTH 565 0
DWIDTH 11 0
BBX 12 14 0 -4
BITMAP
3FC0
3FC0
38C0
38C0
38C0
38C0
38C0
30C0
F0F0
E0F0
0030
0030
0070
0020
ENDCHAR
STARTCHAR 04C7
ENCODING 1223
SWIDTH 565 0
DWIDTH 11 0
BBX 9 18 1 -4
BITMAP
E180
E180
E180
E180
E180
E180
FF80
FF80
E180
E180
E180
E180
E180
E180
0180
0380
0F80
0F00
ENDCHAR
STARTCHAR 04C8
ENCODING 1224
SWIDTH 565 0
DWIDTH 11 0
BBX 9 14 1 -4
BITMAP
E380
E380
E380
E380
FF80
FF80
E380
E380
E380
E380
0380
0380
0F00
0F00
ENDCHAR
STARTCHAR 04C9
ENCODING 1225
SWIDTH 565 0
DWIDTH 11 0
BBX 11 18 1 -4
BITMAP
E180
E180
E180
E180
E180
E180
FF80
FF80
E180
E180
E180
E180
E1E0
E1E0
0060
0060
00E0
0040
ENDCHAR
STARTCHAR 04CA
ENCODING 1226
SWIDTH 565 0
DWIDTH 11 0
BBX 11 14 1 -4
BITMAP
E180
E180
E180
E180
FF80
FF80
E180
E180
E1E0
E1E0
0060
0060
00E0
0040
ENDCHAR
STARTCHAR 04CB
ENCODING 1227
SWIDTH 565 0
DWIDTH 11 0
BBX 9 17 1 -3
BITMAP
E180
E180
E180
E180
E180
6180
6180
7F80
3F80
0180
0180
0180
0780
0780
0600
0600
0600
ENDCHAR
STARTCHAR 04CC
ENCODING 1228
SWIDTH 565 0
DWIDTH 11 0
BBX 9 13 1 -3
BITMAP
E180
E180
E180
E180
E180
7F80
3F80
0180
0780
0780
0600
0600
0600
ENDCHAR
STARTCHAR 04CD
ENCODING 1229
SWIDTH 565 0
DWIDTH 11 0
BBX 11 18 1 -4
BITMAP
E380
E380
F380
F780
D780
DF80
DD80
DD80
CD80
C980
C180
C180
C1E0
C1E0
0060
0060
00E0
0040
ENDCHAR
STARTCHAR 04CE
ENCODING 1230
SWIDTH 565 0
DWIDTH 11 0
BBX 11 14 1 -4
BITMAP
E380
E380
F380
F780
F780
D780
DD80
DD80
DDE0
CDE0
0060
0060
00E0
0040
ENDCHAR
STARTCHAR 04CF
ENCODING 1231
SWIDTH 565 0
DWIDTH 11 0
BBX 8 14 2 0
BITMAP
FF
FF
38
38
38
38
38
38
38
38
38
38
FF
FF
ENDCHAR
STARTCHAR 04D0
ENCODING 1232
SWIDTH 565 0
DWIDTH 11 0
BBX 11 17 0 0
BITMAP
1980
0F00
0000
0600
0E00
0F00
0F00
1F00
1B80
1980
3980
31C0
3FC0
3FC0
70C0
60E0
E060
ENDCHAR
STARTCHAR 04D1
ENCODING 1233
SWIDTH 565 0
DWIDTH 11 0
BBX 9 14 1 0
BITMAP
3300
1E00
0000
0000
3E00
7F00
E380
0380
3F80
7380
E380
E380
FF80
7D80
ENDCHAR
STARTCHAR 04D2
ENCODING 1234
SWIDTH 565 0
DWIDTH 11 0
BBX 11 17 0 0
BITMAP
1980
3980
0000
0600
0E00
0F00
0F00
1F00
1B80
1980
3980
31C0
3FC0
3FC0
70C0
60E0
E060
ENDCHAR
STARTCHAR 04D3
ENCODING 1235
SWIDTH 565 0
DWIDTH 11 0
BBX 9 14 1 0
BITMAP
3300
7300
0000
0000
3E00
7F00
E380
0380
3F80
7380
E380
E380
FF80
7D80
ENDCHAR
STARTCHAR 04D4
ENCODING 1236
SWIDTH 565 0
DWIDTH 11 0
BBX 11 14 0 0
BITMAP
07E0
07E0
0F00
0F00
0F00
1B00
1BC0
1BC0
3300
3F00
3F00
7300
63E0
E3E0
ENDCHAR
STARTCHAR 04D5
ENCODING 1237
SWIDTH 565 0
DWIDTH 11 0
BBX 11 10 0 0
BITMAP
3FC0
7FE0
6660
0660
3FE0
7FE0
E600
E600
7FE0
7BE0
ENDCHAR
STARTCHAR 04D6
ENCODING 1238
SWIDTH 565 0
DWIDTH 11 0
BBX 9 17 1 0
BITMAP
3300
1E00
0000
FF80
FF80
E000
E000
E000
E000
FF00
FF00
E000
E000
E000
E000
FF80
FF80
ENDCHAR
STARTCHAR 04D7
ENCODING 1239
SWIDTH 565 0
DWIDTH 11 0
BBX 9 14 1 0
BITMAP
3300
1E00
0000
0000
3E00
7F80
6180
E180
FF80
FF80
E000
6100
7F80
3F00
ENDCHAR
STARTCHAR 04D8
ENCODING 1240
SWIDTH 565 0
DWIDTH 11 0
BBX 10 14 1 0
BITMAP
3C00
7F00
6780
0180
0180
01C0
01C0
FFC0
C1C0
C180
C180
E380
7F00
3E00
ENDCHAR
STARTCHAR 04D9
ENCODING 1241
SWIDTH 565 0
DWIDTH 11 0
BBX 10 10 1 0
BITMAP
7E00
7F00
4380
0180
FFC0
FFC0
6180
6380
7F00
3E00
ENDCHAR
STARTCHAR 04DA
ENCODING 1242
SWIDTH 565 0
DWIDTH 11 0
BBX 10 17 1 0
BITMAP
3300
7300
0000
3C00
7F00
6780
0180
0180
01C0
01C0
FFC0
C1C0
C180
C180
E380
7F00
3E00
ENDCHAR
STARTCHAR 04DB
ENCODING 1243
SWIDTH 565 0
DWIDTH 11 0
BBX 10 14 1 0
BITMAP
3300
7300
0000
0000
7E00
7F00
4380
0180
FFC0
FFC0
6180
6380
7F00
3E00
ENDCHAR
STARTCHAR 04DC
ENCODING 1244
SWIDTH 565 0
DWIDTH 11 0
BBX 11 17 0 0
BITMAP
1980
3980
0000
E6E0
66E0
66C0
66C0
36C0
3780
3F80
3F80
3780
76C0
76C0
66C0
E6E0
E660
ENDCHAR
STARTCHAR 04DD
ENCODING 1245
SWIDTH 565 0
DWIDTH 11 0
BBX 11 14 0 0
BITMAP
1980
3980
0000
0000
E6E0
66C0
36C0
3780
3F80
3F80
37C0
76C0
66C0
E6E0
ENDCHAR
STARTCHAR 04DE
ENCODING 1246
SWIDTH 565 0
DWIDTH 11 0
BBX 10 17 1 0
BITMAP
3300
7300
0000
1C00
7F80
E380
C1C0
01C0
0180
1F00
1F00
0180
01C0
C1C0
E1C0
FF80
3F00
ENDCHAR
STARTCHAR 04DF
ENCODING 1247
SWIDTH 565 0
DWIDTH 11 0
BBX 9 14 1 0
BITMAP
3300
7300
0000
0000
3F00
7F80
E180
0180
1F00
1F80
0180
E180
7F80
3F00
ENDCHAR
STARTCHAR 04E0
ENCODING 1248
SWIDTH 565 0
DWIDTH 11 0
BBX 10 14 1 0
BITMAP
7F80
7F80
0380
0300
0600
0C00
1E00
1F80
0180
01C0
E1C0
E180
7F80
3F00
ENDCHAR
STARTCHAR 04E1
ENCODING 1249
SWIDTH 565 0
DWIDTH 11 0
BBX 10 14 1 -4
BITMAP
7F80
7F80
0300
0600
0E00
1C00
1F00
0380
0180
01C0
E180
7380
7F00
1C00
ENDCHAR
STARTCHAR 04E2
ENCODING 1250
SWIDTH 565 0
DWIDTH 11 0
BBX 9 17 1 0
BITMAP
7F00
7F00
0000
E180
E380
E380
E780
E780
ED80
ED80
FD80
F980
F980
F180
F180
E180
E180
ENDCHAR
STARTCHAR 04E3
ENCODING 1251
SWIDTH 565 0
DWIDTH 11 0
BBX 9 14 1 0
BITMAP
7F00
7F00
0000
0000
E380
E380
E780
EF80
ED80
F980
F980
F180
F180
E180
ENDCHAR
STARTCHAR 04E4
ENCODING 1252
SWIDTH 565 0
DWIDTH 11 0
BBX 9 17 1 0
BITMAP
3300
7300
0000
E180
E380
E380
E780
E780
ED80
ED80
FD80
F980
F980
F180
F180
E180
E180
ENDCHAR
STARTCHAR 04E5
ENCODING 1253
SWIDTH 565 0
DWIDTH 11 0
BBX 9 14 1 0
BITMAP
3300
7300
0000
0000
E380
E380
E780
EF80
ED80
F980
F980
F180
F180
E180
ENDCHAR
STARTCHAR 04E6
ENCODING 1254
SWIDTH 565 0
DWIDTH 11 0
BBX 10 17 1 0
BITMAP
3300
7300
0000
1C00
3F00
7780
E180
C180
C1C0
C1C0
C1C0
C1C0
C180
E180
E380
7F00
3E00
ENDCHAR
STARTCHAR 04E7
ENCODING 1255
SWIDTH 565 0
DWIDTH 11 0
BBX 9 14 1 0
BITMAP
3300
7300
0000
0000
3E00
7F00
E380
E180
C180
C180
E180
E380
7F00
3E00
ENDCHAR
STARTCHAR 04E8
ENCODING 1256
SWIDTH 565 0
DWIDTH 11 0
BBX 10 14 1 0
BITMAP
1C00
7F00
7780
E180
C180
C1C0
FFC0
FFC0
C1C0
C180
E180
E380
7F00
3E00
ENDCHAR
STARTCHAR 04E9
ENCODING 1257
SWIDTH 565 0
DWIDTH 11 0
BBX 9 10 1 0
BITMAP
3E00
7F00
E380
C180
FF80
FF80
C180
E380
7F00
3E00
ENDCHAR
STARTCHAR 04EA
ENCODING 1258
SWIDTH 565 0
DWIDTH 11 0
BBX 10 17 1 0
BITMAP
3300
7300
0000
1C00
7F00
7780
E180
C180
C1C0
FFC0
FFC0
C1C0
C180
E180
E380
7F00
3E00
ENDCHAR
STARTCHAR 04EB
ENCODING 1259
SWIDTH 565 0
DWIDTH 11 0
BBX 9 14 1 0
BITMAP
3300
7300
0000
0000
3E00
7F00
E380
C180
FF80
FF80
C180
E380
7F00
3E00
ENDCHAR
STARTCHAR 04EC
ENCODING 1260
SWIDTH 565 0
DWIDTH 11 0
BBX 10 17 0 0
BITMAP
3300
7300
0000
0E00
3F80
7380
61C0
E0C0
00C0
0FC0
0FC0
00C0
80C0
61C0
61C0
7F80
3F00
ENDCHAR
STARTCHAR 04ED
ENCODING 1261
SWIDTH 565 0
DWIDTH 11 0
BBX 9 14 1 0
BITMAP
3300
7300
0000
0000
3E00
7F00
E380
0180
0F80
0F80
C180
E380
7F00
3E00
ENDCHAR
STARTCHAR 04EE
ENCODING 1262
SWIDTH 565 0
DWIDTH 11 0
BBX 11 17 0 0
BITMAP
3F80
3F80
0000
E060
60E0
70E0
30C0
39C0
1980
1B80
1F00
0F00
0E00
0600
0E00
7C00
7800
ENDCHAR
STARTCHAR 04EF
ENCODING 1263
SWIDTH 565 0
DWIDTH 11 0
BBX 10 18 1 -4
BITMAP
7F00
7F00
0000
0000
C1C0
E1C0
6180
7380
3300
3700
3E00
1E00
1E00
0C00
1C00
1800
7800
7000
ENDCHAR
STARTCHAR 04F0
ENCODING 1264
SWIDTH 565 0
DWIDTH 11 0
BBX 11 17 0 0
BITMAP
1980
3980
0000
E060
60E0
70E0
30C0
39C0
1980
1B80
1F00
0F00
0E00
0600
0E00
7C00
7800
ENDCHAR
STARTCHAR 04F1
ENCODING 1265
SWIDTH 565 0
DWIDTH 11 0
BBX 10 18 1 -4
BITMAP
3300
7300
0000
0000
C1C0
E1C0
6180
7380
3300
3700
3E00
1E00
1E00
0C00
1C00
1800
7800
7000
ENDCHAR
STARTCHAR 04F2
ENCODING 1266
SWIDTH 565 0
DWIDTH 11 0
BBX 12 17 0 0
BITMAP
0770
06C0
0900
E060
60E0
70E0
30C0
39C0
1980
1B80
1F00
0F00
0E00
0600
0E00
7C00
7800
ENDCHAR
STARTCHAR 04F3
ENCODING 1267
SWIDTH 565 0
DWIDTH 11 0
BBX 10 18 1 -4
BITMAP
1DC0
1B00
2400
0000
C1C0
E1C0
6180
7380
3300
3700
3E00
1E00
1E00
0C00
1C00
1800
7800
7000
ENDCHAR
STARTCHAR 04F4
ENCODING 1268
SWIDTH 565 0
DWIDTH 11 0
BBX 9 17 1 0
BITMAP
6600
E600
0000
E180
E180
E180
E180
E180
6180
6180
7F80
3F80
0180
0180
0180
0180
0180
ENDCHAR
STARTCHAR 04F5
ENCODING 1269
SWIDTH 565 0
DWIDTH 11 0
BBX 9 14 1 0
BITMAP
3300
7300
0000
0000
E180
E180
E180
E180
E180
7F80
3F80
0180
0180
0180
ENDCHAR
STARTCHAR 04F6
ENCODING 1270
SWIDTH 565 0
DWIDTH 11 0
BBX 9 17 1 -3
BITMAP
FF80
FF80
E000
E000
E000
E000
E000
E000
E000
E000
E000
E000
F000
F000
3000
3000
3000
ENDCHAR
STARTCHAR 04F7
ENCODING 1271
SWIDTH 565 0
DWIDTH 11 0
BBX 9 13 1 -3
BITMAP
FF80
FF80
E000
E000
E000
E000
E000
E000
F000
F000
3000
3000
3000
ENDCHAR
STARTCHAR 04F8
ENCODING 1272
SWIDTH 565 0
DWIDTH 11 0
BBX 10 17 1 0
BITMAP
6600
E600
0000
C1C0
C1C0
C1C0
C1C0
C1C0
C1C0
F9C0
FDC0
CDC0
CDC0
CDC0
CDC0
FDC0
F9C0
ENDCHAR
STARTCHAR 04F9
ENCODING 1273
SWIDTH 565 0
DWIDTH 11 0
BBX 10 14 1 0
BITMAP
3300
7300
0000
0000
C1C0
C1C0
C1C0
C1C0
F9C0
CDC0
CDC0
CDC0
FDC0
F9C0
ENDCHAR
STARTCHAR 04FA
ENCODING 1274
SWIDTH 565 0
DWIDTH 11 0
BBX 10 18 1 -4
BITMAP
7FC0
7FC0
7000
7000
7000
7000
FC00
FC00
7000
7000
7000
7000
7C00
7C00
1C00
1C00
7800
7000
ENDCHAR
STARTCHAR 04FB
ENCODING 1275
SWIDTH 565 0
DWIDTH 11 0
BBX 10 14 1 -4
BITMAP
7FC0
7FC0
7000
7000
FC00
FC00
7000
7000
7C00
7C00
1C00
1C00
7800
7000
ENDCHAR
STARTCHAR 04FC
ENCODING 1276
SWIDTH 565 0
DWIDTH 11 0
BBX 13 18 0 -4
BITMAP
E0E0
70E0
31C0
3980
1B80
1F00
0F00
0E00
0F00
1F80
3980
39C0
70F8
F0F8
0038
0038
00F0
00E0
ENDCHAR
STARTCHAR 04FD
ENCODING 1277
SWIDTH 565 0
DWIDTH 11 0
BBX 11 14 1 -4
BITMAP
E1C0
7380
3700
3E00
1E00
1E00
3E00
3300
73E0
E1E0
00E0
00E0
03C0
0380
ENDCHAR
STARTCHAR 04FE
ENCODING 1278
SWIDTH 565 0
DWIDTH 11 0
BBX 11 14 0 0
BITMAP
E0E0
70E0
31C0
3980
1B80
1F00
1F80
1F80
0F00
1F80
3980
39C0
70C0
F0E0
ENDCHAR
STARTCHAR 04FF
ENCODING 1279
SWIDTH 565 0
DWIDTH 11 0
BBX 10 10 1 0
BITMAP
E1C0
7380
3700
3E00
3F00
3F00
3E00
3300
7380
E1C0
ENDCHAR
STARTCHAR 0500
ENCODING 1280
SWIDTH 565 0
DWIDTH 11 0
BBX 9 14 1 0
BITMAP
0180
0180
0180
0180
0180
1F80
7F80
F180
C180
C180
C180
E180
7F80
3F80
ENDCHAR
STARTCHAR 0501
ENCODING 1281
SWIDTH 565 0
DWIDTH 11 0
BBX 9 14 1 0
BITMAP
0180
0180
0180
0180
3D80
7F80
E380
E180
C180
C180
E180
E380
7F80
3D80
ENDCHAR
STARTCHAR 0502
ENCODING 1282
SWIDTH 565 0
DWIDTH 11 0
BBX 11 14 1 0
BITMAP
0C00
0C00
0C00
0C00
0C00
1CC0
7CC0
ECC0
CCE0
CCE0
CCC0
ECC0
7FC0
3F80
ENDCHAR
STARTCHAR 0503
ENCODING 1283
SWIDTH 565 0
DWIDTH 11 0
BBX 10 14 1 0
BITMAP
0C00
0C00
0C00
0C00
7C00
FD80
EDC0
CDC0
CCC0
CCC0
CDC0
CDC0
FF80
7780
ENDCHAR
STARTCHAR 0504
ENCODING 1284
SWIDTH 565 0
DWIDTH 11 0
BBX 10 14 1 0
BITMAP
C000
F800
3800
1C00
1C00
1D80
F9C0
F1C0
38C0
1DC0
1DC0
1DC0
1F80
0F00
ENDCHAR
STARTCHAR 0505
ENCODING 1285
SWIDTH 565 0
DWIDTH 11 0
BBX 10 10 1 0
BITMAP
F000
FC00
1C00
1D80
F9C0
79C0
1DC0
0DC0
0D80
0F80
ENDCHAR
STARTCHAR 0506
ENCODING 1286
SWIDTH 565 0
DWIDTH 11 0
BBX 9 18 2 -4
BITMAP
E000
FC00
1E00
0600
0600
0600
1C00
F800
1E00
0600
0600
0600
0780
0780
0180
0180
0300
0100
ENDCHAR
STARTCHAR 0507
ENCODING 1287
SWIDTH 565 0
DWIDTH 11 0
BBX 9 14 2 -4
BITMAP
F800
FC00
0E00
0E00
1C00
FC00
0E00
0E00
0F80
0780
0380
0300
0300
0200
ENDCHAR
STARTCHAR 0508
ENCODING 1288
SWIDTH 565 0
DWIDTH 11 0
BBX 11 14 0 0
BITMAP
3F00
3F00
3700
3700
3700
3760
3760
3760
3760
3760
7760
7760
E7C0
C3C0
ENDCHAR
STARTCHAR 0509
ENCODING 1289
SWIDTH 565 0
DWIDTH 11 0
BBX 11 10 0 0
BITMAP
3E00
3E00
36E0
36E0
3660
7660
7660
76E0
E7C0
C3C0
ENDCHAR
STARTCHAR 050A
ENCODING 1290
SWIDTH 565 0
DWIDTH 11 0
BBX 10 14 1 0
BITMAP
CE00
CE00
CE00
CE00
CE00
CF80
FFC0
FEC0
CEC0
CEC0
CEC0
CFC0
CF80
C780
ENDCHAR
STARTCHAR 050B
ENCODING 1291
SWIDTH 565 0
DWIDTH 11 0
BBX 10 10 1 0
BITMAP
CC00
CC00
CD80
CDC0
FDC0
FDC0
CDC0
CD80
CF80
C700
ENDCHAR
STARTCHAR 050C
ENCODING 1292
SWIDTH 565 0
DWIDTH 11 0
BBX 10 14 1 0
BITMAP
0E00
3F00
7100
E000
E000
C000
C000
C1C0
C1C0
E1C0
E1C0
61C0
7F80
1F00
ENDCHAR
STARTCHAR 050D
ENCODING 1293
SWIDTH 565 0
DWIDTH 11 0
BBX 10 10 1 0
BITMAP
1F00
7F00
7000
E000
E000
E1C0
E1C0
71C0
7F80
1F00
ENDCHAR
STARTCHAR 050E
ENCODING 1294
SWIDTH 565 0
DWIDTH 11 0
BBX 10 14 1 0
BITMAP
FF00
FF00
1800
1800
1800
1980
19C0
19C0
18C0
18C0
19C0
19C0
1F80
0F00
ENDCHAR
STARTCHAR 050F
ENCODING 1295
SWIDTH 565 0
DWIDTH 11 0
BBX 10 10 1 0
BITMAP
FF00
FF00
3800
3980
3980
39C0
39C0
3980
1F80
0F00
ENDCHAR
STARTCHAR 0510
ENCODING 1296
SWIDTH 565 0
DWIDTH 11 0
BBX 9 14 1 0
BITMAP
1C00
7F00
E380
C180
C000
E000
7C00
7C00
E000
C000
C180
E180
FF80
3F00
ENDCHAR
STARTCHAR 0511
ENCODING 1297
SWIDTH 565 0
DWIDTH 11 0
BBX 10 10 1 0
BITMAP
3F00
7F80
E1C0
6000
3E00
7E00
E000
E1C0
7F80
3F00
ENDCHAR
STARTCHAR 0512
ENCODING 1298
SWIDTH 565 0
DWIDTH 11 0
BBX 13 18 0 -4
BITMAP
3FC0
3FC0
38C0
38C0
38C0
38C0
38C0
38C0
38C0
38C0
30C0
30C0
F0F8
E0F8
0038
0038
00F0
00E0
ENDCHAR
STARTCHAR 0513
ENCODING 1299
SWIDTH 565 0
DWIDTH 11 0
BBX 13 14 0 -4
BITMAP
3FC0
3FC0
38C0
38C0
38C0
38C0
38C0
30C0
F0F8
E0F8
0038
0038
00F0
00E0
ENDCHAR
STARTCHAR 1E00
ENCODING 7680
SWIDTH 565 0
DWIDTH 11 0
BBX 11 17 0 -3
BITMAP
0600
0E00
0F00
0F00
1F00
1B80
1980
3980
31C0
3FC0
3FC0
70C0
60E0
E060
0000
0E00
0E00
ENDCHAR
STARTCHAR 1E01
ENCODING 7681
SWIDTH 565 0
DWIDTH 11 0
BBX 9 13 1 -3
BITMAP
3E00
7F00
E380
0380
3F80
7380
E380
E380
FF80
7D80
0000
3800
3800
ENDCHAR
STARTCHAR 1E3E
ENCODING 7742
SWIDTH 565 0
DWIDTH 11 0
BBX 9 17 1 0
BITMAP
0700
0600
0C00
E380
E380
F380
F780
D780
DF80
DD80
DD80
CD80
C980
C180
C180
C180
C180
ENDCHAR
STARTCHAR 1E3F
ENCODING 7743
SWIDTH 565 0
DWIDTH 11 0
BBX 10 14 1 0
BITMAP
0700
0600
0C00
0000
FB80
FF80
CDC0
CDC0
CDC0
CDC0
CDC0
CDC0
CDC0
CDC0
ENDCHAR
STARTCHAR 1E80
ENCODING 7808
SWIDTH 565 0
DWIDTH 11 0
BBX 11 17 0 0
BITMAP
1C00
0C00
0600
E660
E660
6660
6E60
6EE0
6EC0
6FC0
6BC0
6BC0
3BC0
39C0
39C0
39C0
3180
ENDCHAR
STARTCHAR 1E81
ENCODING 7809
SWIDTH 565 0
DWIDTH 11 0
BBX 11 14 0 0
BITMAP
3800
1800
0C00
0000
E660
6660
6EE0
6EC0
6AC0
6BC0
2BC0
3BC0
3980
3180
ENDCHAR
STARTCHAR 1E82
ENCODING 7810
SWIDTH 565 0
DWIDTH 11 0
BBX 11 17 0 0
BITMAP
0380
0300
0600
E660
E660
6660
6E60
6EE0
6EC0
6FC0
6BC0
6BC0
3BC0
39C0
39C0
39C0
3180
ENDCHAR
STARTCHAR 1E83
ENCODING 7811
SWIDTH 565 0
DWIDTH 11 0
BBX 11 14 0 0
BITMAP
0380
0300
0600
0000
E660
6660
6EE0
6EC0
6AC0
6BC0
2BC0
3BC0
3980
3180
ENDCHAR
STARTCHAR 1E84
ENCODING 7812
SWIDTH 565 0
DWIDTH 11 0
BBX 11 17 0 0
BITMAP
1980
3980
0000
E660
E660
6660
6E60
6EE0
6EC0
6FC0
6BC0
6BC0
3BC0
39C0
39C0
39C0
3180
ENDCHAR
STARTCHAR 1E85
ENCODING 7813
SWIDTH 565 0
DWIDTH 11 0
BBX 11 14 0 0
BITMAP
1980
3980
0000
0000
E660
6660
6EE0
6EC0
6AC0
6BC0
2BC0
3BC0
3980
3180
ENDCHAR
STARTCHAR 1EA0
ENCODING 7840
SWIDTH 565 0
DWIDTH 11 0
BBX 11 17 0 -3
BITMAP
0600
0E00
0F00
0F00
1F00
1B80
1980
3980
31C0
3FC0
3FC0
70C0
60E0
E060
0000
0E00
0E00
ENDCHAR
STARTCHAR 1EA1
ENCODING 7841
SWIDTH 565 0
DWIDTH 11 0
BBX 9 13 1 -3
BITMAP
3E00
7F00
E380
0380
3F80
7380
E380
E380
FF80
7D80
0000
1C00
1C00
ENDCHAR
STARTCHAR 1EA2
ENCODING 7842
SWIDTH 565 0
DWIDTH 11 0
BBX 11 18 0 0
BITMAP
0E00
0300
0E00
0000
0600
0E00
0F00
0F00
1F00
1B80
1980
3980
31C0
3FC0
3FC0
70C0
60E0
E060
ENDCHAR
STARTCHAR 1EA3
ENCODING 7843
SWIDTH 565 0
DWIDTH 11 0
BBX 9 15 1 0
BITMAP
1C00
0600
1C00
0000
0000
3E00
7F00
E380
0380
3F80
7380
E380
E380
FF80
7D80
ENDCHAR
STARTCHAR 1EA4
ENCODING 7844
SWIDTH 565 0
DWIDTH 11 0
BBX 12 19 0 0
BITMAP
0030
0020
0660
1B80
0000
0600
0E00
0F00
0F00
1F00
1B80
1980
3980
31C0
3FC0
3FC0
70C0
60E0
E060
ENDCHAR
STARTCHAR 1EA5
ENCODING 7845
SWIDTH 565 0
DWIDTH 11 0
BBX 11 16 1 0
BITMAP
0060
0040
0CC0
3700
0000
0000
3E00
7F00
E380
0380
3F80
7380
E380
E380
FF80
7D80
ENDCHAR
STARTCHAR 1EA6
ENCODING 7846
SWIDTH 565 0
DWIDTH 11 0
BBX 11 19 0 0
BITMAP
C000
6000
2700
1D80
0040
0600
0E00
0F00
0F00
1F00
1B80
1980
3980
31C0
3FC0
3FC0
70C0
60E0
E060
ENDCHAR
STARTCHAR 1EA7
ENCODING 7847
SWIDTH 565 0
DWIDTH 11 0
BBX 11 16 -1 0
BITMAP
C000
6000
2700
1D80
0040
0000
0F80
1FC0
38E0
00E0
0FE0
1CE0
38E0
38E0
3FE0
1F60
ENDCHAR
STARTCHAR 1EA8
ENCODING 7848
SWIDTH 565 0
DWIDTH 11 0
BBX 11 19 0 0
BITMAP
0060
0020
0640
1980
2000
0600
0E00
0F00
0F00
1F00
1B80
1980
3980
31C0
3FC0
3FC0
70C0
60E0
E060
ENDCHAR
STARTCHAR 1EA9
ENCODING 7849
SWIDTH 565 0
DWIDTH 11 0
BBX 10 16 1 0
BITMAP
00C0
0040
0C80
3300
4000
0000
3E00
7F00
E380
0380
3F80
7380
E380
E380
FF80
7D80
ENDCHAR
STARTCHAR 1EAA
ENCODING 7850
SWIDTH 565 0
DWIDTH 11 0
BBX 11 20 0 0
BITMAP
0100
0F00
0800
0600
1980
0000
0600
0E00
0F00
0F00
1F00
1B80
1980
3980
31C0
3FC0
3FC0
70C0
60E0
E060
ENDCHAR
STARTCHAR 1EAB
ENCODING 7851
SWIDTH 565 0
DWIDTH 11 0
BBX 9 17 1 0
BITMAP
0200
1E00
1000
0C00
3300
0000
0000
3E00
7F00
E380
0380
3F80
7380
E380
E380
FF80
7D80
ENDCHAR
STARTCHAR 1EAC
ENCODING 7852
SWIDTH 565 0
DWIDTH 11 0
BBX 11 20 0 -3
BITMAP
0E00
1B00
2080
0600
0E00
0F00
0F00
1F00
1B80
1980
3980
31C0
3FC0
3FC0
70C0
60E0
E060
0000
0E00
0E00
ENDCHAR
STARTCHAR 1EAD
ENCODING 7853
SWIDTH 565 0
DWIDTH 11 0
BBX 9 17 1 -3
BITMAP
1C00
3600
4100
0000
3E00
7F00
E380
0380
3F80
7380
E380
E380
FF80
7D80
0000
1C00
1C00
ENDCHAR
STARTCHAR 1EAE
ENCODING 7854
SWIDTH 565 0
DWIDTH 11 0
BBX 11 18 0 0
BITMAP
0300
1D80
1B80
0600
0600
0E00
0F00
0F00
1F00
1B80
1980
3980
31C0
3FC0
3FC0
70C0
60E0
E060
ENDCHAR
STARTCHAR 1EAF
ENCODING 7855
SWIDTH 565 0
DWIDTH 11 0
BBX 9 15 1 0
BITMAP
0600
3B00
3700
0C00
0000
3E00
7F00
E380
0380
3F80
7380
E380
E380
FF80
7D80
ENDCHAR
STARTCHAR 1EB0
ENCODING 7856
SWIDTH 565 0
DWIDTH 11 0
BBX 11 19 0 0
BITMAP
0C00
1380
1B80
0600
0000
0600
0E00
0F00
0F00
1F00
1B80
1980
3980
31C0
3FC0
3FC0
70C0
60E0
E060
ENDCHAR
STARTCHAR 1EB1
ENCODING 7857
SWIDTH 565 0
DWIDTH 11 0
BBX 9 16 1 0
BITMAP
1800
2700
3700
0C00
0000
0000
3E00
7F00
E380
0380
3F80
7380
E380
E380
FF80
7D80
ENDCHAR
STARTCHAR 1EB2
ENCODING 7858
SWIDTH 565 0
DWIDTH 11 0
BBX 11 20 0 0
BITMAP
0600
0100
0600
1980
1F80
0600
0600
0E00
0F00
0F00
1F00
1B80
1980
3980
31C0
3FC0
3FC0
70C0
60E0
E060
ENDCHAR
STARTCHAR 1EB3
ENCODING 7859
SWIDTH 565 0
DWIDTH 11 0
BBX 9 17 1 0
BITMAP
1800
0400
1800
6600
7E00
1800
0000
3E00
7F00
E380
0380
3F80
7380
E380
E380
FF80
7D80
ENDCHAR
STARTCHAR 1EB4
ENCODING 7860
SWIDTH 565 0
DWIDTH 11 0
BBX 11 19 0 0
BITMAP
1F00
1200
3100
1B00
0C00
0600
0E00
0F00
0F00
1F00
1B80
1980
3980
31C0
3FC0
3FC0
70C0
60E0
E060
ENDCHAR
STARTCHAR 1EB5
ENCODING 7861
SWIDTH 565 0
DWIDTH 11 0
BBX 9 16 1 0
BITMAP
3E00
2400
6200
3600
1800
0000
3E00
7F00
E380
0380
3F80
7380
E380
E380
FF80
7D80
ENDCHAR
STARTCHAR 1EB6
ENCODING 7862
SWIDTH 565 0
DWIDTH 11 0
BBX 11 20 0 -3
BITMAP
1980
0F00
0000
0600
0E00
0F00
0F00
1F00
1B80
1980
3980
31C0
3FC0
3FC0
70C0
60E0
E060
0000
0E00
0E00
ENDCHAR
STARTCHAR 1EB7
ENCODING 7863
SWIDTH 565 0
DWIDTH 11 0
BBX 9 17 1 -3
BITMAP
3300
1E00
0000
0000
3E00
7F00
E380
0380
3F80
7380
E380
E380
FF80
7D80
0000
1C00
1C00
ENDCHAR
STARTCHAR 1EB8
ENCODING 7864
SWIDTH 565 0
DWIDTH 11 0
BBX 9 17 1 -3
BITMAP
FF80
FF80
E000
E000
E000
E000
FF00
FF00
E000
E000
E000
E000
FF80
FF80
0000
0E00
0E00
ENDCHAR
STARTCHAR 1EB9
ENCODING 7865
SWIDTH 565 0
DWIDTH 11 0
BBX 9 13 1 -3
BITMAP
3E00
7F80
6180
E180
FF80
FF80
E000
6100
7F80
3F00
0000
1C00
1C00
ENDCHAR
STARTCHAR 1EBA
ENCODING 7866
SWIDTH 565 0
DWIDTH 11 0
BBX 9 18 1 0
BITMAP
0E00
0300
0E00
0000
FF80
FF80
E000
E000
E000
E000
FF00
FF00
E000
E000
E000
E000
FF80
FF80
ENDCHAR
STARTCHAR 1EBB
ENCODING 7867
SWIDTH 565 0
DWIDTH 11 0
BBX 9 15 1 0
BITMAP
1C00
0600
1C00
0000
0000
3E00
7F80
6180
E180
FF80
FF80
E000
6100
7F80
3F00
ENDCHAR
STARTCHAR 1EBC
ENCODING 7868
SWIDTH 565 0
DWIDTH 11 0
BBX 9 17 1 0
BITMAP
3B00
6E00
0000
FF80
FF80
E000
E000
E000
E000
FF00
FF00
E000
E000
E000
E000
FF80
FF80
ENDCHAR
STARTCHAR 1EBD
ENCODING 7869
SWIDTH 565 0
DWIDTH 11 0
BBX 9 14 1 0
BITMAP
3B00
6E00
0000
0000
3E00
7F80
6180
E180
FF80
FF80
E000
6100
7F80
3F00
ENDCHAR
STARTCHAR 1EBE
ENCODING 7870
SWIDTH 565 0
DWIDTH 11 0
BBX 11 19 1 0
BITMAP
0060
0040
0CC0
3700
0000
FF80
FF80
E000
E000
E000
E000
FF00
FF00
E000
E000
E000
E000
FF80
FF80
ENDCHAR
STARTCHAR 1EBF
ENCODING 7871
SWIDTH 565 0
DWIDTH 11 0
BBX 11 16 1 0
BITMAP
0060
0040
0CC0
3700
0000
0000
3E00
7F80
6180
E180
FF80
FF80
E000
6100
7F80
3F00
ENDCHAR
STARTCHAR 1EC0
ENCODING 7872
SWIDTH 565 0
DWIDTH 11 0
BBX 10 19 0 0
BITMAP
C000
6000
2700
1D80
0040
7FC0
7FC0
7000
7000
7000
7000
7F80
7F80
7000
7000
7000
7000
7FC0
7FC0
ENDCHAR
STARTCHAR 1EC1
ENCODING 7873
SWIDTH 565 0
DWIDTH 11 0
BBX 11 16 -1 0
BITMAP
C000
6000
2700
1D80
0040
0000
0F80
1FE0
1860
3860
3FE0
3FE0
3800
1840
1FE0
0FC0
ENDCHAR
STARTCHAR 1EC2
ENCODING 7874
SWIDTH 565 0
DWIDTH 11 0
BBX 10 19 1 0
BITMAP
00C0
0040
0C80
3300
4000
FF80
FF80
E000
E000
E000
E000
FF00
FF00
E000
E000
E000
E000
FF80
FF80
ENDCHAR
STARTCHAR 1EC3
ENCODING 7875
SWIDTH 565 0
DWIDTH 11 0
BBX 10 16 1 0
BITMAP
00C0
0040
0C80
3300
4000
0000
3E00
7F80
6180
E180
FF80
FF80
E000
6100
7F80
3F00
ENDCHAR
STARTCHAR 1EC4
ENCODING 7876
SWIDTH 565 0
DWIDTH 11 0
BBX 9 20 1 0
BITMAP
0200
1E00
1000
0C00
3300
0000
FF80
FF80
E000
E000
E000
E000
FF00
FF00
E000
E000
E000
E000
FF80
FF80
ENDCHAR
STARTCHAR 1EC5
ENCODING 7877
SWIDTH 565 0
DWIDTH 11 0
BBX 9 17 1 0
BITMAP
0200
1E00
1000
0C00
3300
0000
0000
3E00
7F80
6180
E180
FF80
FF80
E000
6100
7F80
3F00
ENDCHAR
STARTCHAR 1EC6
ENCODING 7878
SWIDTH 565 0
DWIDTH 11 0
BBX 9 20 1 -3
BITMAP
1C00
3600
4100
FF80
FF80
E000
E000
E000
E000
FF00
FF00
E000
E000
E000
E000
FF80
FF80
0000
0E00
0E00
ENDCHAR
STARTCHAR 1EC7
ENCODING 7879
SWIDTH 565 0
DWIDTH 11 0
BBX 9 17 1 -3
BITMAP
1C00
3600
4100
0000
3E00
7F80
6180
E180
FF80
FF80
E000
6100
7F80
3F00
0000
1C00
1C00
ENDCHAR
STARTCHAR 1EC8
ENCODING 7880
SWIDTH 565 0
DWIDTH 11 0
BBX 8 18 2 0
BITMAP
38
0C
38
00
FF
FF
38
38
38
38
38
38
38
38
38
38
FF
FF
ENDCHAR
STARTCHAR 1EC9
ENCODING 7881
SWIDTH 565 0
DWIDTH 11 0
BBX 8 15 2 0
BITMAP
1C
06
1C
00
00
F8
F8
18
18
18
18
18
18
FF
FF
ENDCHAR
STARTCHAR 1ECA
ENCODING 7882
SWIDTH 565 0
DWIDTH 11 0
BBX 8 17 2 -3
BITMAP
FF
FF
38
38
38
38
38
38
38
38
38
38
FF
FF
00
38
38
ENDCHAR
STARTCHAR 1ECB
ENCODING 7883
SWIDTH 565 0
DWIDTH 11 0
BBX 8 17 2 -3
BITMAP
18
18
10
00
F8
F8
18
18
18
18
18
18
FF
FF
00
1C
1C
ENDCHAR
STARTCHAR 1ECC
ENCODING 7884
SWIDTH 565 0
DWIDTH 11 0
BBX 10 17 1 -3
BITMAP
1C00
3F00
7780
E180
C180
C1C0
C1C0
C1C0
C1C0
C180
E180
E380
7F00
3E00
0000
1C00
1C00
ENDCHAR
STARTCHAR 1ECD
ENCODING 7885
SWIDTH 565 0
DWIDTH 11 0
BBX 9 13 1 -3
BITMAP
3E00
7F00
E380
E180
C180
C180
E180
E380
7F00
3E00
0000
1C00
1C00
ENDCHAR
STARTCHAR 1ECE
ENCODING 7886
SWIDTH 565 0
DWIDTH 11 0
BBX 10 18 1 0
BITMAP
1C00
0600
1C00
0000
1C00
3F00
7780
E180
C180
C1C0
C1C0
C1C0
C1C0
C180
E180
E380
7F00
3E00
ENDCHAR
STARTCHAR 1ECF
ENCODING 7887
SWIDTH 565 0
DWIDTH 11 0
BBX 9 15 1 0
BITMAP
1C00
0600
1C00
0000
0000
3E00
7F00
E380
E180
C180
C180
E180
E380
7F00
3E00
ENDCHAR
STARTCHAR 1ED0
ENCODING 7888
SWIDTH 565 0
DWIDTH 11 0
BBX 11 19 1 0
BITMAP
0060
0040
0CC0
3700
0000
1C00
3F00
7780
E180
C180
C1C0
C1C0
C1C0
C1C0
C180
E180
E380
7F00
3E00
ENDCHAR
STARTCHAR 1ED1
ENCODING 7889
SWIDTH 565 0
DWIDTH 11 0
BBX 11 16 1 0
BITMAP
0060
0040
0CC0
3700
0000
0000
3E00
7F00
E380
E180
C180
C180
E180
E380
7F00
3E00
ENDCHAR
STARTCHAR 1ED2
ENCODING 7890
SWIDTH 565 0
DWIDTH 11 0
BBX 11 19 0 0
BITMAP
C000
6000
2700
1D80
0040
0E00
1F80
3BC0
70C0
60C0
60E0
60E0
60E0
60E0
60C0
70C0
71C0
3F80
1F00
ENDCHAR
STARTCHAR 1ED3
ENCODING 7891
SWIDTH 565 0
DWIDTH 11 0
BBX 10 16 0 0
BITMAP
C000
6000
2700
1D80
0040
0000
1F00
3F80
71C0
70C0
60C0
60C0
70C0
71C0
3F80
1F00
ENDCHAR
STARTCHAR 1ED4
ENCODING 7892
SWIDTH 565 0
DWIDTH 11 0
BBX 10 19 1 0
BITMAP
00C0
0040
0C80
3300
4000
1C00
3F00
7780
E180
C180
C1C0
C1C0
C1C0
C1C0
C180
E180
E380
7F00
3E00
ENDCHAR
STARTCHAR 1ED5
ENCODING 7893
SWIDTH 565 0
DWIDTH 11 0
BBX 10 16 1 0
BITMAP
00C0
0040
0C80
3300
4000
0000
3E00
7F00
E380
E180
C180
C180
E180
E380
7F00
3E00
ENDCHAR
STARTCHAR 1ED6
ENCODING 7894
SWIDTH 565 0
DWIDTH 11 0
BBX 10 20 1 0
BITMAP
0200
1E00
1000
0C00
3300
0000
1C00
3F00
7780
E180
C180
C1C0
C1C0
C1C0
C1C0
C180
E180
E380
7F00
3E00
ENDCHAR
STARTCHAR 1ED7
ENCODING 7895
SWIDTH 565 0
DWIDTH 11 0
BBX 9 17 1 0
BITMAP
0200
1E00
1000
0C00
3300
0000
0000
3E00
7F00
E380
E180
C180
C180
E180
E380
7F00
3E00
ENDCHAR
STARTCHAR 1ED8
ENCODING 7896
SWIDTH 565 0
DWIDTH 11 0
BBX 10 20 1 -3
BITMAP
1C00
3600
4100
1C00
3F00
7780
E180
C180
C1C0
C1C0
C1C0
C1C0
C180
E180
E380
7F00
3E00
0000
1C00
1C00
ENDCHAR
STARTCHAR 1ED9
ENCODING 7897
SWIDTH 565 0
DWIDTH 11 0
BBX 9 17 1 -3
BITMAP
1C00
3600
4100
0000
3E00
7F00
E380
E180
C180
C180
E180
E380
7F00
3E00
0000
1C00
1C00
ENDCHAR
STARTCHAR 1EDA
ENCODING 7898
SWIDTH 565 0
DWIDTH 11 0
BBX 11 17 1 0
BITMAP
0700
0600
0C00
1C60
3FC0
73C0
E180
C180
C1C0
C1C0
C1C0
C1C0
C1C0
E180
6380
7F00
3E00
ENDCHAR
STARTCHAR 1EDB
ENCODING 7899
SWIDTH 565 0
DWIDTH 11 0
BBX 10 14 1 0
BITMAP
0700
0600
0C00
00C0
3EC0
7F80
E380
E180
C180
C180
E180
E380
7F00
3E00
ENDCHAR
STARTCHAR 1EDC
ENCODING 7900
SWIDTH 565 0
DWIDTH 11 0
BBX 11 17 1 0
BITMAP
3800
1800
0C00
1C60
3FC0
73C0
E180
C180
C1C0
C1C0
C1C0
C1C0
C1C0
E180
6380
7F00
3E00
ENDCHAR
STARTCHAR 1EDD
ENCODING 7901
SWIDTH 565 0
DWIDTH 11 0
BBX 10 14 1 0
BITMAP
3800
1800
0C00
00C0
3EC0
7F80
E380
E180
C180
C180
E180
E380
7F00
3E00
ENDCHAR
STARTCHAR 1EDE
ENCODING 7902
SWIDTH 565 0
DWIDTH 11 0
BBX 11 18 1 0
BITMAP
1C00
0600
1C00
0000
1C60
3FC0
73C0
E180
C180
C1C0
C1C0
C1C0
C1C0
C1C0
E180
6380
7F00
3E00
ENDCHAR
STARTCHAR 1EDF
ENCODING 7903
SWIDTH 565 0
DWIDTH 11 0
BBX 10 15 1 0
BITMAP
1C00
0600
1C00
0000
00C0
3EC0
7F80
E380
E180
C180
C180
E180
E380
7F00
3E00
ENDCHAR
STARTCHAR 1EE0
ENCODING 7904
SWIDTH 565 0
DWIDTH 11 0
BBX 11 17 1 0
BITMAP
3B00
6E00
0000
1C60
3FC0
73C0
E180
C180
C1C0
C1C0
C1C0
C1C0
C1C0
E180
6380
7F00
3E00
ENDCHAR
STARTCHAR 1EE1
ENCODING 7905
SWIDTH 565 0
DWIDTH 11 0
BBX 10 14 1 0
BITMAP
3B00
6E00
0000
00C0
3EC0
7F80
E380
E180
C180
C180
E180
E380
7F00
3E00
ENDCHAR
STARTCHAR 1EE2
ENCODING 7906
SWIDTH 565 0
DWIDTH 11 0
BBX 11 17 1 -3
BITMAP
1C60
3FC0
73C0
E180
C180
C1C0
C1C0
C1C0
C1C0
C1C0
E180
6380
7F00
3E00
0000
1C00
1C00
ENDCHAR
STARTCHAR 1EE3
ENCODING 7907
SWIDTH 565 0
DWIDTH 11 0
BBX 10 14 1 -3
BITMAP
00C0
3EC0
7F80
E380
E180
C180
C180
E180
E380
7F00
3E00
0000
1C00
1C00
ENDCHAR
STARTCHAR 1EE4
ENCODING 7908
SWIDTH 565 0
DWIDTH 11 0
BBX 9 17 1 -3
BITMAP
E180
E180
E180
E180
E180
E180
E180
E180
E180
E180
E180
6380
7F00
3E00
0000
1C00
1C00
ENDCHAR
STARTCHAR 1EE5
ENCODING 7909
SWIDTH 565 0
DWIDTH 11 0
BBX 9 13 1 -3
BITMAP
E180
E180
E180
E180
E180
E180
E180
6380
7F80
3D80
0000
1C00
1C00
ENDCHAR
STARTCHAR 1EE6
ENCODING 7910
SWIDTH 565 0
DWIDTH 11 0
BBX 9 18 1 0
BITMAP
1C00
0600
1C00
0000
E180
E180
E180
E180
E180
E180
E180
E180
E180
E180
E180
6380
7F00
3E00
ENDCHAR
STARTCHAR 1EE7
ENCODING 7911
SWIDTH 565 0
DWIDTH 11 0
BBX 9 15 1 0
BITMAP
1C00
0600
1C00
0000
0000
E180
E180
E180
E180
E180
E180
E180
6380
7F80
3D80
ENDCHAR
STARTCHAR 1EE8
ENCODING 7912
SWIDTH 565 0
DWIDTH 11 0
BBX 12 17 1 0
BITMAP
0700
0600
0C00
E190
E190
E1F0
E1E0
E180
E180
E180
E180
E180
E180
E180
6380
7F00
3E00
ENDCHAR
STARTCHAR 1EE9
ENCODING 7913
SWIDTH 565 0
DWIDTH 11 0
BBX 12 14 1 0
BITMAP
0700
0600
0C00
0030
E3B0
E3E0
E3C0
E380
E380
E380
E380
E380
7F80
3D80
ENDCHAR
STARTCHAR 1EEA
ENCODING 7914
SWIDTH 565 0
DWIDTH 11 0
BBX 12 17 1 0
BITMAP
3800
1800
0C00
E190
E190
E1F0
E1E0
E180
E180
E180
E180
E180
E180
E180
6380
7F00
3E00
ENDCHAR
STARTCHAR 1EEB
ENCODING 7915
SWIDTH 565 0
DWIDTH 11 0
BBX 12 14 1 0
BITMAP
3800
1800
0C00
0030
E3B0
E3E0
E3C0
E380
E380
E380
E380
E380
7F80
3D80
ENDCHAR
STARTCHAR 1EEC
ENCODING 7916
SWIDTH 565 0
DWIDTH 11 0
BBX 12 18 1 0
BITMAP
1C00
0600
1C00
0000
E190
E190
E1F0
E1E0
E180
E180
E180
E180
E180
E180
E180
6380
7F00
3E00
ENDCHAR
STARTCHAR 1EED
ENCODING 7917
SWIDTH 565 0
DWIDTH 11 0
BBX 12 15 1 0
BITMAP
1C00
0600
1C00
0000
0030
E3B0
E3E0
E3C0
E380
E380
E380
E380
E380
7F80
3D80
ENDCHAR
STARTCHAR 1EEE
ENCODING 7918
SWIDTH 565 0
DWIDTH 11 0
BBX 12 17 1 0
BITMAP
3B00
6E00
0000
E190
E190
E1F0
E1E0
E180
E180
E180
E180
E180
E180
E180
6380
7F00
3E00
ENDCHAR
STARTCHAR 1EEF
ENCODING 7919
SWIDTH 565 0
DWIDTH 11 0
BBX 12 14 1 0
BITMAP
3B00
6E00
0000
0030
E3B0
E3E0
E3C0
E380
E380
E380
E380
E380
7F80
3D80
ENDCHAR
STARTCHAR 1EF0
ENCODING 7920
SWIDTH 565 0
DWIDTH 11 0
BBX 12 17 1 -3
BITMAP
E190
E190
E1F0
E1E0
E180
E180
E180
E180
E180
E180
E180
6380
7F00
3E00
0000
1C00
1C00
ENDCHAR
STARTCHAR 1EF1
ENCODING 7921
SWIDTH 565 0
DWIDTH 11 0
BBX 12 14 1 -3
BITMAP
0030
E3B0
E3E0
E3C0
E380
E380
E380
E380
E380
7F80
3D80
0000
3800
3800
ENDCHAR
STARTCHAR 1EF2
ENCODING 7922
SWIDTH 565 0
DWIDTH 11 0
BBX 11 17 0 0
BITMAP
1C00
0C00
0600
E060
60E0
70C0
31C0
3980
1B80
1F00
0F00
0E00
0600
0600
0600
0600
0600
ENDCHAR
STARTCHAR 1EF3
ENCODING 7923
SWIDTH 565 0
DWIDTH 11 0
BBX 10 18 1 -4
BITMAP
3800
1800
0C00
0000
C1C0
E1C0
6180
7380
3300
3700
3E00
1E00
1E00
0C00
1C00
1800
7800
7000
ENDCHAR
STARTCHAR 1EF4
ENCODING 7924
SWIDTH 565 0
DWIDTH 11 0
BBX 11 17 0 -3
BITMAP
E060
60E0
70C0
31C0
3980
1B80
1F00
0F00
0E00
0600
0600
0600
0600
0600
0000
0E00
0E00
ENDCHAR
STARTCHAR 1EF5
ENCODING 7925
SWIDTH 565 0
DWIDTH 11 0
BBX 10 14 1 -4
BITMAP
C1C0
E1C0
6180
7380
3300
3700
3E00
1E00
1E00
0C00
1C00
1800
7B80
7380
ENDCHAR
STARTCHAR 1EF6
ENCODING 7926
SWIDTH 565 0
DWIDTH 11 0
BBX 11 18 0 0
BITMAP
0E00
0300
0E00
0000
E060
60E0
70C0
31C0
3980
1B80
1F00
0F00
0E00
0600
0600
0600
0600
0600
ENDCHAR
STARTCHAR 1EF7
ENCODING 7927
SWIDTH 565 0
DWIDTH 11 0
BBX 10 19 1 -4
BITMAP
0E00
0300
0E00
0000
0000
C1C0
E1C0
6180
7380
3300
3700
3E00
1E00
1E00
0C00
1C00
1800
7800
7000
ENDCHAR
STARTCHAR 1EF8
ENCODING 7928
SWIDTH 565 0
DWIDTH 11 0
BBX 11 17 0 0
BITMAP
1D80
3700
0000
E060
60E0
70C0
31C0
3980
1B80
1F00
0F00
0E00
0600
0600
0600
0600
0600
ENDCHAR
STARTCHAR 1EF9
ENCODING 7929
SWIDTH 565 0
DWIDTH 11 0
BBX 10 18 1 -4
BITMAP
3B00
6E00
0000
0000
C1C0
E1C0
6180
7380
3300
3700
3E00
1E00
1E00
0C00
1C00
1800
7800
7000
ENDCHAR
STARTCHAR 1F4D
ENCODING 8013
SWIDTH 565 0
DWIDTH 11 0
BBX 12 15 -1 0
BITMAP
B000
A700
EFC0
1DE0
3860
3060
3070
3070
3070
3070
3060
3860
38E0
1FC0
0F80
ENDCHAR
STARTCHAR 2000
ENCODING 8192
SWIDTH 565 0
DWIDTH 11 0
BBX 0 0 0 0
BITMAP
ENDCHAR
STARTCHAR 2001
ENCODING 8193
SWIDTH 565 0
DWIDTH 11 0
BBX 0 0 0 0
BITMAP
ENDCHAR
STARTCHAR 2002
ENCODING 8194
SWIDTH 565 0
DWIDTH 11 0
BBX 0 0 0 0
BITMAP
ENDCHAR
STARTCHAR 2003
ENCODING 8195
SWIDTH 565 0
DWIDTH 11 0
BBX 0 0 0 0
BITMAP
ENDCHAR
STARTCHAR 2004
ENCODING 8196
SWIDTH 565 0
DWIDTH 11 0
BBX 0 0 0 0
BITMAP
ENDCHAR
STARTCHAR 2005
ENCODING 8197
SWIDTH 565 0
DWIDTH 11 0
BBX 0 0 0 0
BITMAP
ENDCHAR
STARTCHAR 2006
ENCODING 8198
SWIDTH 565 0
DWIDTH 11 0
BBX 0 0 0 0
BITMAP
ENDCHAR
STARTCHAR 2007
ENCODING 8199
SWIDTH 565 0
DWIDTH 11 0
BBX 0 0 0 0
BITMAP
ENDCHAR
STARTCHAR 2008
ENCODING 8200
SWIDTH 565 0
DWIDTH 11 0
BBX 0 0 0 0
BITMAP
ENDCHAR
STARTCHAR 2009
ENCODING 8201
SWIDTH 565 0
DWIDTH 11 0
BBX 0 0 0 0
BITMAP
ENDCHAR
STARTCHAR 200A
ENCODING 8202
SWIDTH 565 0
DWIDTH 11 0
BBX 0 0 0 0
BITMAP
ENDCHAR
STARTCHAR 200B
ENCODING 8203
SWIDTH 565 0
DWIDTH 11 0
BBX 0 0 0 0
BITMAP
ENDCHAR
STARTCHAR 2013
ENCODING 8211
SWIDTH 565 0
DWIDTH 11 0
BBX 10 2 1 6
BITMAP
FFC0
FFC0
ENDCHAR
STARTCHAR 2014
ENCODING 8212
SWIDTH 565 0
DWIDTH 11 0
BBX 10 2 1 6
BITMAP
FFC0
FFC0
ENDCHAR
STARTCHAR 2015
ENCODING 8213
SWIDTH 565 0
DWIDTH 11 0
BBX 10 2 1 6
BITMAP
FFC0
FFC0
ENDCHAR
STARTCHAR 2017
ENCODING 8215
SWIDTH 565 0
DWIDTH 11 0
BBX 9 4 1 -4
BITMAP
FF80
FF80
FF80
FF80
ENDCHAR
STARTCHAR 2018
ENCODING 8216
SWIDTH 565 0
DWIDTH 11 0
BBX 2 6 5 9
BITMAP
40
C0
C0
C0
C0
C0
ENDCHAR
STARTCHAR 2019
ENCODING 8217
SWIDTH 565 0
DWIDTH 11 0
BBX 3 5 4 9
BITMAP
60
60
60
C0
40
ENDCHAR
STARTCHAR 201A
ENCODING 8218
SWIDTH 565 0
DWIDTH 11 0
BBX 3 5 4 -3
BITMAP
60
60
60
60
C0
ENDCHAR
STARTCHAR 201B
ENCODING 8219
SWIDTH 565 0
DWIDTH 11 0
BBX 3 5 4 9
BITMAP
C0
C0
C0
60
40
ENDCHAR
STARTCHAR 201C
ENCODING 8220
SWIDTH 565 0
DWIDTH 11 0
BBX 6 6 3 9
BITMAP
44
CC
CC
CC
CC
CC
ENDCHAR
STARTCHAR 201D
ENCODING 8221
SWIDTH 565 0
DWIDTH 11 0
BBX 7 5 2 9
BITMAP
66
66
66
CC
44
ENDCHAR
STARTCHAR 201E
ENCODING 8222
SWIDTH 565 0
DWIDTH 11 0
BBX 6 5 3 -3
BITMAP
6C
6C
6C
D8
D8
ENDCHAR
STARTCHAR 2020
ENCODING 8224
SWIDTH 565 0
DWIDTH 11 0
BBX 9 14 1 0
BITMAP
1C00
1C00
1C00
1C00
FF80
FF80
1C00
1C00
1C00
1C00
1C00
1C00
1C00
1C00
ENDCHAR
STARTCHAR 2021
ENCODING 8225
SWIDTH 565 0
DWIDTH 11 0
BBX 9 18 1 -4
BITMAP
0C00
0C00
0C00
0C00
FF80
FF80
0C00
0C00
0C00
0C00
0C00
0C00
FF80
FF80
0C00
0C00
0C00
0C00
ENDCHAR
STARTCHAR 2022
ENCODING 8226
SWIDTH 565 0
DWIDTH 11 0
BBX 4 4 4 5
BITMAP
F0
F0
F0
F0
ENDCHAR
STARTCHAR 2025
ENCODING 8229
SWIDTH 565 0
DWIDTH 11 0
BBX 8 3 2 0
BITMAP
E7
E7
E7
ENDCHAR
STARTCHAR 2026
ENCODING 8230
SWIDTH 565 0
DWIDTH 11 0
BBX 11 3 1 0
BITMAP
EEE0
EEE0
EEE0
ENDCHAR
STARTCHAR 2030
ENCODING 8240
SWIDTH 565 0
DWIDTH 11 0
BBX 10 14 1 0
BITMAP
6000
F000
9000
9100
F300
6C00
1800
3000
C000
9FC0
36C0
36C0
36C0
1F80
ENDCHAR
STARTCHAR 2032
ENCODING 8242
SWIDTH 565 0
DWIDTH 11 0
BBX 2 5 4 9
BITMAP
C0
C0
C0
C0
C0
ENDCHAR
STARTCHAR 2033
ENCODING 8243
SWIDTH 565 0
DWIDTH 11 0
BBX 5 5 3 9
BITMAP
D8
D8
98
98
98
ENDCHAR
STARTCHAR 2039
ENCODING 8249
SWIDTH 565 0
DWIDTH 11 0
BBX 4 8 4 1
BITMAP
30
60
60
C0
C0
40
60
30
ENDCHAR
STARTCHAR 203A
ENCODING 8250
SWIDTH 565 0
DWIDTH 11 0
BBX 4 8 4 1
BITMAP
80
C0
60
20
30
60
C0
80
ENDCHAR
STARTCHAR 203C
ENCODING 8252
SWIDTH 565 0
DWIDTH 11 0
BBX 11 14 0 0
BITMAP
E0E0
E0E0
E0E0
E0E0
E0E0
6060
6060
6060
6060
0000
0000
4040
E0E0
E0E0
ENDCHAR
STARTCHAR 2044
ENCODING 8260
SWIDTH 565 0
DWIDTH 11 0
BBX 6 9 3 2
BITMAP
0C
18
10
30
20
60
40
C0
80
ENDCHAR
STARTCHAR 2074
ENCODING 8308
SWIDTH 565 0
DWIDTH 11 0
BBX 7 9 3 5
BITMAP
08
18
38
68
48
C8
FE
08
08
ENDCHAR
STARTCHAR 207F
ENCODING 8319
SWIDTH 565 0
DWIDTH 11 0
BBX 6 8 3 6
BITMAP
10
FC
CC
CC
CC
CC
CC
CC
ENDCHAR
STARTCHAR 20A3
ENCODING 8355
SWIDTH 565 0
DWIDTH 11 0
BBX 10 14 0 0
BITMAP
7FC0
7FC0
7000
7000
7000
7000
7FC0
7FC0
7000
7000
FC00
FC00
7000
7000
ENDCHAR
STARTCHAR 20A4
ENCODING 8356
SWIDTH 565 0
DWIDTH 11 0
BBX 10 14 1 0
BITMAP
0E00
3F80
3980
71C0
7000
7000
FE00
7000
FE00
FE00
3000
7000
FFC0
FFC0
ENDCHAR
STARTCHAR 20A7
ENCODING 8359
SWIDTH 565 0
DWIDTH 11 0
BBX 10 14 1 0
BITMAP
E000
F800
D900
CD00
CFC0
CD00
C900
F900
F100
C100
C100
C100
C180
C1C0
ENDCHAR
STARTCHAR 20AB
ENCODING 8363
SWIDTH 565 0
DWIDTH 11 0
BBX 10 17 1 -3
BITMAP
0180
0FC0
0FC0
0180
3D80
7F80
E380
E180
C180
C180
E180
E380
7F80
3D80
0000
FF80
FF80
ENDCHAR
STARTCHAR 20AC
ENCODING 8364
SWIDTH 565 0
DWIDTH 11 0
BBX 9 14 1 0
BITMAP
0780
1F80
1C80
3800
3000
FE00
FE00
3000
FE00
3000
3000
3800
1F80
0F80
ENDCHAR
STARTCHAR 2105
ENCODING 8453
SWIDTH 565 0
DWIDTH 11 0
BBX 10 14 1 0
BITMAP
6000
F000
9800
8300
9A00
F600
6400
0C00
1B80
16C0
36C0
26C0
06C0
0380
ENDCHAR
STARTCHAR 2113
ENCODING 8467
SWIDTH 565 0
DWIDTH 11 0
BBX 8 13 2 0
BITMAP
1E
3F
73
73
76
76
7C
F8
F0
70
30
3C
1C
ENDCHAR
STARTCHAR 2116
ENCODING 8470
SWIDTH 565 0
DWIDTH 11 0
BBX 10 14 1 0
BITMAP
CD80
CD40
CD40
ED40
ED40
ED80
FDC0
FC00
DC00
DC00
DC00
DC00
CC00
CC00
ENDCHAR
STARTCHAR 2122
ENCODING 8482
SWIDTH 565 0
DWIDTH 11 0
BBX 9 6 1 8
BITMAP
FC80
6C80
6D80
6F80
6F80
6E80
ENDCHAR
STARTCHAR 2126
ENCODING 8486
SWIDTH 565 0
DWIDTH 11 0
BBX 10 14 1 0
BITMAP
1C00
3F00
7380
E180
E1C0
C1C0
C1C0
C1C0
E180
E180
6380
3300
F7C0
F7C0
ENDCHAR
STARTCHAR 212E
ENCODING 8494
SWIDTH 565 0
DWIDTH 11 0
BBX 10 10 1 0
BITMAP
1F00
2180
6080
60C0
FFC0
E000
6000
6000
2080
1F00
ENDCHAR
STARTCHAR 215B
ENCODING 8539
SWIDTH 565 0
DWIDTH 11 0
BBX 11 13 1 0
BITMAP
E000
E000
6300
6200
6600
6C00
0980
1BC0
1240
33C0
2240
0660
03C0
ENDCHAR
STARTCHAR 215C
ENCODING 8540
SWIDTH 565 0
DWIDTH 11 0
BBX 12 14 0 0
BITMAP
3000
F800
0800
3980
0900
CF00
7A00
06C0
05E0
0920
19E0
1120
0330
01E0
ENDCHAR
STARTCHAR 215D
ENCODING 8541
SWIDTH 565 0
DWIDTH 11 0
BBX 11 14 0 0
BITMAP
7800
7800
4000
F980
0B00
CA00
7E00
04C0
0FE0
0B60
19C0
1360
0360
01E0
ENDCHAR
STARTCHAR 215E
ENCODING 8542
SWIDTH 565 0
DWIDTH 11 0
BBX 10 14 1 0
BITMAP
F800
F800
1000
3200
2600
6400
4C00
8980
1BC0
3640
2380
6640
0640
03C0
ENDCHAR
STARTCHAR 2202
ENCODING 8706
SWIDTH 565 0
DWIDTH 11 0
BBX 9 14 1 0
BITMAP
7E00
7F00
0300
0380
0980
7F80
7380
E180
E180
C180
E180
E380
7F00
3E00
ENDCHAR
STARTCHAR 2206
ENCODING 8710
SWIDTH 565 0
DWIDTH 11 0
BBX 12 14 0 0
BITMAP
0600
0700
0F00
0F00
0F80
1D80
1980
19C0
38C0
30C0
30E0
70E0
7FE0
FFF0
ENDCHAR
STARTCHAR 220F
ENCODING 8719
SWIDTH 565 0
DWIDTH 11 0
BBX 9 16 1 -2
BITMAP
FF80
FF80
E380
E380
E380
E380
E380
E380
E380
E380
E380
E380
E380
E380
E380
E380
ENDCHAR
STARTCHAR 2211
ENCODING 8721
SWIDTH 565 0
DWIDTH 11 0
BBX 11 16 0 -2
BITMAP
FFE0
FFE0
7000
3000
1800
1C00
0E00
0700
0300
0700
0E00
1C00
3800
3000
7000
FFE0
ENDCHAR
STARTCHAR 2212
ENCODING 8722
SWIDTH 565 0
DWIDTH 11 0
BBX 8 2 1 6
BITMAP
FF
FF
ENDCHAR
STARTCHAR 2215
ENCODING 8725
SWIDTH 565 0
DWIDTH 11 0
BBX 8 15 2 -1
BITMAP
07
06
06
0C
0C
0C
18
18
38
30
30
70
60
60
E0
ENDCHAR
STARTCHAR 221A
ENCODING 8730
SWIDTH 565 0
DWIDTH 11 0
BBX 11 14 0 0
BITMAP
00E0
00C0
00C0
00C0
0180
0180
0180
F300
F300
1B00
1A00
1E00
0E00
0C00
ENDCHAR
STARTCHAR 221E
ENCODING 8734
SWIDTH 565 0
DWIDTH 11 0
BBX 10 7 1 2
BITMAP
7380
FFC0
8CC0
8C40
9CC0
F7C0
6380
ENDCHAR
STARTCHAR 222B
ENCODING 8747
SWIDTH 565 0
DWIDTH 11 0
BBX 7 19 2 -4
BITMAP
06
1E
18
38
38
38
38
38
38
38
38
38
38
38
38
38
38
F0
E0
ENDCHAR
STARTCHAR 2248
ENCODING 8776
SWIDTH 565 0
DWIDTH 11 0
BBX 9 8 1 2
BITMAP
2080
7C80
CF80
8300
2080
7880
CF80
8300
ENDCHAR
STARTCHAR 2260
ENCODING 8800
SWIDTH 565 0
DWIDTH 11 0
BBX 9 9 1 1
BITMAP
0300
FF80
FF80
0400
0800
FF80
FF80
3000
1000
ENDCHAR
STARTCHAR 2264
ENCODING 8804
SWIDTH 565 0
DWIDTH 11 0
BBX 8 12 2 0
BITMAP
01
07
3F
F8
C0
F8
1F
07
00
00
FF
FF
ENDCHAR
STARTCHAR 2265
ENCODING 8805
SWIDTH 565 0
DWIDTH 11 0
BBX 8 12 2 0
BITMAP
80
E0
F8
1F
07
3E
F8
C0
00
00
FF
FF
ENDCHAR
STARTCHAR 25CA
ENCODING 9674
SWIDTH 565 0
DWIDTH 11 0
BBX 9 14 1 0
BITMAP
0C00
1C00
1E00
3600
3300
6300
6380
E180
6380
7300
3700
3E00
1E00
1C00
ENDCHAR
STARTCHAR F6C3
ENCODING 63171
SWIDTH 565 0
DWIDTH 11 0
BBX 2 4 3 -2
BITMAP
C0
C0
80
80
ENDCHAR
STARTCHAR FEFF
ENCODING 65279
SWIDTH 565 0
DWIDTH 11 0
BBX 0 0 0 0
BITMAP
ENDCHAR
STARTCHAR FFFC
ENCODING 65532
SWIDTH 565 0
DWIDTH 11 0
BBX 10 10 1 0
BITMAP
ABC0
8040
0000
A840
D4C0
DEC0
AD40
8040
8040
ABC0
ENDCHAR
STARTCHAR FFFD
ENCODING 65533
SWIDTH 565 0
DWIDTH 11 0
BBX 11 18 0 0
BITMAP
0400
0600
0E00
0F00
1F00
3180
20C0
64C0
FCE0
FDE0
79C0
3FC0
3980
1900
1F00
0E00
0600
0400
ENDCHAR
ENDFONT
